<svg xmlns="http://www.w3.org/2000/svg" viewBox="0 0 366.97 264.81"><defs><style>.cls-1{fill:#ce8b3e;}.cls-2{fill:#502301;}.cls-3{fill:#5b2a0a;}.cls-4{fill:#6e3616;}.cls-5{fill:#ab7531;}</style></defs><title>acorn</title><g id="Layer_2" data-name="Layer 2"><g id="Layer_1-2" data-name="Layer 1"><path class="cls-1" d="M104.37,101.72l-47.89,163S-29.68,218.8,17.72,101l86.65.75Z"/><polygon class="cls-2" points="126.37 77.99 112.51 73.92 133.44 2.69 142.65 5.4 126.37 77.99 126.37 77.99"/><polygon class="cls-3" points="112.57 73.93 98.71 69.86 124.28 0 133.49 2.71 112.57 73.93 112.57 73.93"/><path class="cls-4" d="M120.52,46.76l-26.73,91C59.19,127.56,4.38,115.58.25,101S44.16,24.32,120.52,46.76Z"/><path class="cls-1" d="M75.11,108.56c-1.85,6.28-6.86,10.34-11.19,9.07s-6.34-7.39-4.49-13.67,6.85-10.34,11.18-9.07,6.34,7.39,4.5,13.67Z"/><path class="cls-1" d="M103.81,83.71C102,90,97,94.05,92.62,92.78s-6.34-7.4-4.49-13.68S95,68.76,99.31,70s6.34,7.39,4.5,13.67Z"/><path class="cls-1" d="M63,77.2c-1.85,6.29-6.85,10.34-11.18,9.07s-6.35-7.39-4.5-13.67,6.85-10.34,11.18-9.07S64.82,70.92,63,77.2Z"/><path class="cls-1" d="M36.69,97.27c-1.85,6.28-6.85,10.34-11.18,9.07S19.16,99,21,92.67s6.85-10.34,11.18-9.07,6.34,7.39,4.5,13.67Z"/><path class="cls-5" d="M104.37,101.72l-47.89,163s97.3,8,121.18-116.75l-73.29-46.24Z"/><path class="cls-3" d="M120.52,46.76l-26.73,91c34.6,10.17,87.18,29.74,98.56,19.7s4.53-88.23-71.83-110.67Z"/><path class="cls-5" d="M131.54,91.86c-1.85,6.28.17,12.4,4.5,13.68s9.34-2.79,11.18-9.07-.17-12.4-4.5-13.68-9.33,2.79-11.18,9.07Z"/><path class="cls-5" d="M105.58,117.52c-1.84,6.28.17,12.4,4.5,13.68s9.34-2.79,11.18-9.07-.16-12.4-4.49-13.68-9.34,2.79-11.19,9.07Z"/><path class="cls-5" d="M141,127.93c-1.85,6.28.17,12.4,4.5,13.67s9.34-2.78,11.18-9.06-.17-12.41-4.5-13.68-9.33,2.79-11.18,9.07Z"/><path class="cls-5" d="M163.57,109.12c-1.84,6.28.17,12.41,4.5,13.68s9.34-2.79,11.18-9.07-.17-12.4-4.5-13.68-9.33,2.79-11.18,9.07Z"/><path class="cls-1" d="M284.05,97.34,305,231.26s-77.81-3.8-83.71-105l62.79-28.95Z"/><polygon class="cls-2" points="291.84 72.73 280.46 74.51 271.31 15.99 278.88 14.81 291.84 72.73 291.84 72.73"/><polygon class="cls-3" points="280.5 74.5 269.11 76.28 263.79 17.16 271.36 15.98 280.5 74.5 280.5 74.5"/><path class="cls-4" d="M277,52.19l11.68,74.74c-28.43,4.44-72.06,14.45-80,5.32S214.25,62,277,52.19Z"/><path class="cls-1" d="M265.26,112.24c.8,5.16-1.43,9.8-5,10.35s-7.09-3.17-7.9-8.33,1.43-9.8,5-10.35,7.09,3.17,7.9,8.33Z"/><path class="cls-1" d="M277.51,84.54c.81,5.16-1.43,9.79-5,10.35s-7.1-3.18-7.9-8.34,1.42-9.79,5-10.35,7.09,3.18,7.9,8.34Z"/><path class="cls-1" d="M245.83,93.74c.81,5.16-1.42,9.8-5,10.35s-7.1-3.17-7.9-8.33,1.42-9.8,5-10.35,7.09,3.17,7.9,8.33Z"/><path class="cls-1" d="M233.69,117.17c.81,5.16-1.42,9.8-5,10.35s-7.1-3.17-7.9-8.33,1.42-9.8,5-10.35,7.1,3.17,7.9,8.33Z"/><path class="cls-5" d="M284.05,97.34,305,231.26s72.93-27.35,47.7-125.5l-68.62-8.42Z"/><path class="cls-3" d="M277,52.19l11.68,74.74c28.43-4.44,73-8.22,77.82-19.34s-26.76-65.2-89.5-55.4Z"/><path class="cls-5" d="M300.3,81c.8,5.16,4.34,8.89,7.9,8.34s5.78-5.19,5-10.35-4.34-8.89-7.9-8.34-5.79,5.19-5,10.35Z"/><path class="cls-5" d="M290.3,108.33c.81,5.16,4.34,8.89,7.9,8.34s5.79-5.19,5-10.35-4.34-8.89-7.9-8.34-5.79,5.19-5,10.35Z"/><path class="cls-5" d="M319.41,103.78c.8,5.16,4.34,8.9,7.9,8.34s5.79-5.19,5-10.35-4.34-8.89-7.9-8.34-5.79,5.19-5,10.35Z"/><path class="cls-5" d="M329.28,82.53c.81,5.16,4.35,8.9,7.91,8.34s5.78-5.19,5-10.35-4.35-8.89-7.9-8.34-5.79,5.19-5,10.35Z"/></g></g></svg>