<svg xmlns="http://www.w3.org/2000/svg" viewBox="0 0 146.06 146.34"><defs><style>.cls-1{fill:#c68b32;}.cls-2{fill:#eaa13e;}.cls-3{fill:#c5c4c6;}</style></defs><title>ball</title><g id="Layer_2" data-name="Layer 2"><g id="Layer_1-2" data-name="Layer 1"><path class="cls-1" d="M124.65,124.9a73.77,73.77,0,0,1-57.9,21.2c.5-2,1-4,1.5-5.9l-9.2-1.5-1.5,6a59.73,59.73,0,0,1-10.2-3A73.41,73.41,0,0,1,4.05,97.4a88.37,88.37,0,0,1-2.5-8.8c2-.4,3.9-.9,5.8-1.4l-1.1-9.4q-3,.9-6,1.5a80.66,80.66,0,0,1,.1-13.9A73.07,73.07,0,0,1,69.45.2a67.87,67.87,0,0,1,10.1.2c-.4,1.6-.8,3.4-1.3,5.3l9.4,1.2c.5-1.8.9-3.5,1.2-5a76.6,76.6,0,0,1,8.2,2.3,73.12,73.12,0,0,1,44.6,43.9,74.46,74.46,0,0,1,2.7,9.2c-1.5.3-3.2.7-4.9,1.2l1.1,9.4c1.9-.5,3.6-.9,5.2-1.3a55.34,55.34,0,0,1,.2,9.1A72.79,72.79,0,0,1,124.65,124.9Z"/><path class="cls-1" d="M126.75,103.3a72.9,72.9,0,0,1-47.5,21.3,72.35,72.35,0,0,1-10.4-.1c.5-2,1-4,1.5-5.9l-9.2-1.5-1.5,6a59.73,59.73,0,0,1-10.2-3A73.41,73.41,0,0,1,6.15,75.8,88.37,88.37,0,0,1,3.65,67c2-.4,3.9-.9,5.8-1.4l-1.1-9.4q-3,.9-6,1.5c-.1-.9-.1-1.8-.2-2.7A72.94,72.94,0,0,1,69.35.1a67.87,67.87,0,0,1,10.1.2c-.4,1.6-.8,3.4-1.3,5.3l9.4,1.2c.5-1.8.9-3.5,1.2-5A76.6,76.6,0,0,1,97,4.1,73.12,73.12,0,0,1,141.55,48a74.46,74.46,0,0,1,2.7,9.2c-1.5.3-3.2.7-4.9,1.2l1.1,9.4c1.9-.5,3.6-.9,5.2-1.3.1,1,.2,2,.2,3A71,71,0,0,1,126.75,103.3Z"/><path class="cls-2" d="M126.75,103.3a72.9,72.9,0,0,1-47.5,21.3,72.35,72.35,0,0,1-10.4-.1c.5-2,1-4,1.5-5.9l-9.2-1.5-1.5,6a59.73,59.73,0,0,1-10.2-3A73.41,73.41,0,0,1,6.15,75.8,88.37,88.37,0,0,1,3.65,67c2-.4,3.9-.9,5.8-1.4l-1.1-9.4q-3,.9-6,1.5c-.1-.9-.1-1.8-.2-2.7A72.94,72.94,0,0,1,69.35.1a67.87,67.87,0,0,1,10.1.2c-.4,1.6-.8,3.4-1.3,5.3l9.4,1.2c.5-1.8.9-3.5,1.2-5A76.6,76.6,0,0,1,97,4.1,73.12,73.12,0,0,1,141.55,48a74.46,74.46,0,0,1,2.7,9.2c-1.5.3-3.2.7-4.9,1.2l1.1,9.4c1.9-.5,3.6-.9,5.2-1.3.1,1,.2,2,.2,3A71,71,0,0,1,126.75,103.3Z"/><path class="cls-3" d="M7.25,87.2l-1.1-9.4C34.05,70,55,54,68.25,30a107.73,107.73,0,0,0,9.9-24.4l9.4,1.2a122.28,122.28,0,0,1-11.1,27.8C65.85,53.6,45.55,76.8,7.25,87.2Z"/><path class="cls-3" d="M68.25,140.1l-9.2-1.5c10.4-38.1,33.6-58.4,52.5-68.9a117.45,117.45,0,0,1,27.9-11.2l1.1,9.4A111.6,111.6,0,0,0,115.75,78C92,91.4,76.05,112.3,68.25,140.1Z"/></g></g></svg>