<svg xmlns="http://www.w3.org/2000/svg" viewBox="0 0 705.38 548.35"><defs><style>.cls-1{fill:#816758;}.cls-1,.cls-10,.cls-11,.cls-12,.cls-13,.cls-14,.cls-15,.cls-16,.cls-17,.cls-18,.cls-19,.cls-2,.cls-20,.cls-21,.cls-22,.cls-23,.cls-24,.cls-25,.cls-26,.cls-27,.cls-28,.cls-29,.cls-3,.cls-30,.cls-31,.cls-32,.cls-33,.cls-34,.cls-35,.cls-36,.cls-37,.cls-38,.cls-39,.cls-4,.cls-40,.cls-41,.cls-42,.cls-5,.cls-6,.cls-7,.cls-8,.cls-9{fill-rule:evenodd;}.cls-2{fill:#7c5d4d;}.cls-3{fill:#92796b;}.cls-4{fill:#857063;}.cls-5{fill:#ad978b;}.cls-6{fill:#684736;}.cls-7{fill:#7a5c4e;}.cls-8{fill:#543828;}.cls-9{fill:#6f5344;}.cls-10{fill:#745444;}.cls-11{fill:#c2c0c0;}.cls-12{fill:#fff;}.cls-13{fill:#a6a5a5;}.cls-14{fill:#f7f6f5;}.cls-15{fill:#725440;}.cls-16{fill:#735440;}.cls-17{fill:#70523f;}.cls-18{fill:#7b5b46;}.cls-19{fill:#8b6c54;}.cls-20{fill:#7c5942;}.cls-21{fill:#7f6556;}.cls-22{fill:#755641;}.cls-23{fill:#7f5d46;}.cls-24{fill:#9b7a5f;}.cls-25{fill:#97765d;}.cls-26{fill:#d4d5d4;}.cls-27{fill:#aea59f;}.cls-28{fill:#fddcae;}.cls-29{fill:#563a2a;}.cls-30{fill:#5a3f2e;}.cls-31{fill:#674835;}.cls-32{fill:#664836;}.cls-33{fill:#8b6a52;}.cls-34{fill:#937057;}.cls-35{fill:#5b3f2d;}.cls-36{fill:#6d4e3c;}.cls-37{fill:#5e412f;}.cls-38{fill:#9e7b60;}.cls-39{fill:#84614a;}.cls-40{fill:#d4a86c;}.cls-41{fill:#a68569;}.cls-42{fill:#ebbc77;}</style></defs><title>Asset 3</title><g id="Layer_2" data-name="Layer 2"><g id="Layer_1-2" data-name="Layer 1"><path class="cls-1" d="M21.54,237l1.61,1.36a14.46,14.46,0,0,1-5.89,3.75c-.43-.37-.57-.74-.43-1.11s.26-.59.37-.59A9.15,9.15,0,0,1,21.54,237Z"/><path class="cls-2" d="M7.59,170.26c0,.45,0,.91,0,1.39-1.56,1.59-3.77.91-5.61,1.59-.37-.4-.49-.74-.32-1.08s.29-.51.43-.51c1.9-.17,3.4-1.87,5.47-1.39Z"/><path class="cls-3" d="M16,242.8c-.42,1.19-1.5,1.64-2.46,2.15a1.66,1.66,0,0,1-1.22,0c-.57-.23-.51-.65-.09-1.1a7.35,7.35,0,0,1,3.77-2.7,1,1,0,0,1,.34,1.08c-.11.37-.22.54-.34.54Z"/><path class="cls-4" d="M6.23,210.51c.51.48,1,1,1.56,1.5-1.08,1.53-3,1.45-4.45,2.24a2.19,2.19,0,0,1,0-1.87c.65-1.07,1.44-2,2.89-1.87Z"/><path class="cls-5" d="M2.12,171.65c0,.54-.09,1-.11,1.59A1,1,0,0,1,.53,174c-.79-.34-.59-1.08-.08-1.5a7.28,7.28,0,0,1,1.67-.85Z"/><path class="cls-6" d="M16,242.8v-1.62c.43-.25.82-.48,1.22-.73,0,.56,0,1.13.06,1.7-.43.22-.85.45-1.28.65Z"/><path class="cls-7" d="M3.34,212.38v1.87c-.54.32-1.08.17-1-.28a6.19,6.19,0,0,1,1-1.59Z"/><path class="cls-8" d="M16,168.9a189.1,189.1,0,0,1,36.68-1.73c2.55.08,5.1.14,7.62,0s5.56,1.33,7.4-.51c1.68-1.67,2.27-4.45,3.21-6.8,10.8-27.67,24.4-53.92,39.88-79.26,3.37-5.5,7.14-10.8,10.83-16.13a5.35,5.35,0,0,0,1-5.16c-4.11-12.33-1.87-24.77-.37-37.16.46-3.66,1.45-7.26,2.24-10.88,1.11-5,4.85-7.8,8.76-10.27a8.11,8.11,0,0,1,7.43-.14,40.74,40.74,0,0,1,6.63,3.72,110.41,110.41,0,0,1,24,22c2.35,2.87,4.68,5.76,7.14,8.54,1.93,2.21,2.13,2.18,4.74,1.16,2.38-.94,4.73-1.9,7.08-2.81a40.85,40.85,0,0,1,10.86-2.24C219.4,29.52,237.71,29.92,256,30a38.69,38.69,0,0,1,11.57,2A105.18,105.18,0,0,0,290,36.63a20.52,20.52,0,0,1,4.08.77,4.46,4.46,0,0,0,4.48-.85c8.73-6.58,18.57-11.28,28.21-16.27,7.31-3.77,15.36-4.91,23.58-4.71,7.17.2,11.14,2.87,13.52,9.73a41.32,41.32,0,0,1,2.35,10.09c1,13,.88,25.93-2.72,38.61-.51,1.78-.73,3.85-1.84,5.18-2.38,2.84-1.22,5,.51,7.34,2.69,3.77,5.1,7.77,7.85,11.46,10.32,13.74,15.34,29.45,17.18,46.29.79,7.14,1.64,14.28,1.5,21.48a13.14,13.14,0,0,0,.17,2.07c.29,2.41.6,2.75,3.06,2.61,8.34-.48,16.64-1,25-.94,3.91.06,7.79,1,11.73.34,2-3.6,2-7.62,2.86-11.42,9-39.57,28.78-73,58-100.83C504.59,43.21,522.7,34.2,543.11,30a74.51,74.51,0,0,1,20.72-1.56c16.39,1.25,32.77,2.47,48.73,6.78,12,3.23,23.08,8.16,32.88,15.84.94.71,1.9,1.36,2.78,2.1,2.33,1.93,3.91,5.44,3.09,7.11a8,8,0,0,1-7.11,4.77c-2.07.08-4.17,0-6.3,0a3.17,3.17,0,0,0,2.55,2C660.13,71.53,676,82.3,689.64,96.7a43.89,43.89,0,0,1,7.62,11.57A78.6,78.6,0,0,1,705.37,141,90.82,90.82,0,0,1,695.76,184c-4.2,8.25-8.93,16.18-13.44,24.26-.28.49-.68.68-1.16.34-.28-.25-.65-.76-.57-1,1.14-5.36-.25-10-3.37-14.43a14.53,14.53,0,0,0-4.48-4.25c-9-5.19-18.62-8.62-28.91-8.74-19.19-.22-33.9,8.08-43.17,25.12-5.14,9.44-8,19.7-10.29,30.1-2.41,10.69-3,21.57-3.52,32.43a319.61,319.61,0,0,1-3.6,35.21c-1.78,11.42-3.6,22.85-5.39,34.3a101.24,101.24,0,0,1-6.12,22c-3.77,9.47-7.71,18.88-11.93,28.12-6.58,14.38-15,27.64-24.32,40.4-5.5,7.57-12.53,13.58-20.24,18.82a378.15,378.15,0,0,1-33.59,20.89c-2.41,1.28-4.06,2.75-4.37,5.67a60.72,60.72,0,0,1-1.53,6c-3.4,14.57-11.22,26.79-20.38,38.29a25.62,25.62,0,0,1-4.85,5c-5.92,4.43-12,8.68-18,13a19.27,19.27,0,0,1-9.69,3.4c-9,.79-18,1.62-27,2.67-16.78,1.92-33.53,4-50.4,5-13.41.8-26.84,1.31-40.25,1.85a38.79,38.79,0,0,1-15.68-2.55,28.26,28.26,0,0,1-4.39-2c-3.94-2.41-6.6-5.61-6.6-10.66,0-3.15-.43-3.4-3.09-3.15-5.59.57-11.12-.45-16.67-.39-8.56.14-17.12.42-25.68.71-5.81.19-11.6.42-17.29-1a5.53,5.53,0,0,0-4.57.94c-2.55,1.59-5.19,3-7.85,4.36-3.23,1.65-6.61,2.24-10,.49a3.59,3.59,0,0,0-3.29-.37c-3.85,1.81-7.22.14-10.51-1.56a6.94,6.94,0,0,0-5.13-.48,72.61,72.61,0,0,1-16.61,1c-6.47-.2-12.93-.71-19.42-.8-5.1,0-10.15-.82-15.22-1.3a19.31,19.31,0,0,1-7.8-2.69c-4.68-2.72-6.75-6.58-6.41-12.08.23-3.57,1.31-6.23,4.48-8a47.22,47.22,0,0,0,4-2.83c-11.62-11.63-20.61-25.23-31.27-37.42A65.21,65.21,0,0,1,80,460.19c-11.73-18.85-24-37.42-34.29-57.12a112.18,112.18,0,0,1-12-41.73C32.51,348.13,33,335,33.7,321.8c.2-3.68.28-7.4.31-11.11a270.51,270.51,0,0,1,9.35-67.21c1.37-5.13,2.75-10.26,4.09-15.42a26.43,26.43,0,0,0,.42-3.29c-4.51,2.35-8.5,4.42-12.5,6.52-1.79.94-3,.91-2.89-1.62A75.86,75.86,0,0,1,46,221.34a10.46,10.46,0,0,0,5.78-7.23c1.22-4.65,2.84-9.21,4.26-13.66-1-1-1.79-.68-2.73-.43q-21.37,5.79-42.77,11.51c-.91.23-1.84.31-2.75.48-1.5.51-1.81-.19-1.56-1.5,4.9-3.17,10.4-5,15.93-6.55q15.94-4.54,32.06-8.56c2.5-.62,4.05-1.44,4.9-4,2-6.15,4.34-12.19,6.5-18.26.48-1.39-.09-2.21-1.56-2.32-11.31-.82-22.62-.6-34-.43-.91,0-1.82-.05-2.75-.08-3.83,0-8,2.38-11.34-1.39Z"/><path class="cls-9" d="M32.48,229.67c.54,1.34,1.73,1.45,2.89,1.62a57.36,57.36,0,0,1-12.22,7.11c-1.5.68-1.75-.11-1.61-1.36,3.57-2.58,6.8-5.67,10.94-7.37Z"/><path class="cls-10" d="M16,168.9c1,1.13,2.44,1,3.83,1.08,2.49.05,5,.19,7.51.31-6.49,1.44-13.13,1.05-19.73,1.36a.85.85,0,0,1-.34-.94c.08-.31.2-.45.31-.45,2.81-.48,5.44-1.9,8.42-1.36Z"/><path class="cls-11" d="M345.57,218.68q11.06,3.52,22.11,7.08c3.17,1,3.68,1.84,2.69,4.93-1.25,3.92-2.72,7.74-4.08,11.63-.54,1-.4,2.15-.91,3.17.88-.45,1.45-1.36,2.41-1.7,3.68-4.14,7.43-8.25,11.08-12.44a3.14,3.14,0,0,1,3.66-1,23.78,23.78,0,0,1,12.13,7.43c10,11.57,20.35,22.82,28.77,35.66,2.53,3.88,4.71,8,7.06,11.93a350.34,350.34,0,0,1,37.7,87.77c.85,3.14,1.79,6.23,2.72,9.32a63.64,63.64,0,0,1,2.7,17.09c.14,6.27.54,12.5.7,18.74a141,141,0,0,1-2.12,28.35c-2.15,12.33-4.48,24.57-8.53,36.45-3.86,11.17-10.41,20.69-18.14,29.37-4.34,4.82-10.07,8.16-15.48,11.68-2.5,1.64-5.61,2-8.65,2.26-8.79.77-17.52,1.68-26.27,2.56-9,.9-18,1.7-26.93,2.83-14.94,1.93-30,2.41-45,3-5.55.23-11.08.74-16.64.88a37.8,37.8,0,0,1-16.3-2.69,2.38,2.38,0,0,1-.88-4,25.31,25.31,0,0,1,9.64-6.66c3-1.19,6.15-2,9.16-3.23,3.88-1.56,7.68-3.35,9.61-7.46a2.65,2.65,0,0,0-.63-3.54c-1.7-1.76-2.66-4.25-3.85-6.49-8.76-16.64-13.35-34.47-14.91-53.12-.65-7.6-1.22-15.25-1.25-22.88-.11-28.23,7.88-54.28,21.57-78.77a63.35,63.35,0,0,1,10.49-13.78c7.29-7.31,16-8.76,25.63-6.6a57,57,0,0,1,12.89,5c1.05.65,2.64.2,3.43,1.53-.31-1.24-1.61-1.81-2-3-1.59-1.36-3.12-2.81-4.76-4.08-9.81-7.46-24.38-8.4-34.7.28a64.93,64.93,0,0,0-11.62,12.81c-9.21,13.3-14.88,28.18-19.45,43.54a153.07,153.07,0,0,0-5.1,61.83,35.66,35.66,0,0,1,.34,5.55c-.45,13.1,2.13,25.8,5.08,38.44,1.3,5.61,3.14,11.11,4.73,16.67.4,1.47.17,2.66-1.53,3.28a45.18,45.18,0,0,0-12.84,6.78c-1.82,1.47-3.91,1.33-5.93,1.44-7.59.43-15.19,1.68-22.81.12-12.17,1.3-24.55-.37-36.63,2.41a7.91,7.91,0,0,1-2.18-.31c.59-2.72,2.32-4.65,3.63-6.75,4.42-7.06,9.21-13.89,13-21.34,7-13.84,14.51-27.44,20.92-41.53,12.53-27.67,22.93-56.07,27.92-86.23,1.9-11.43,4.22-22.76,6.32-34.13.34-1.82.48-3.66.71-5.5.88-6.07.74-12.22,1.7-18.23a21.56,21.56,0,0,0,.91-4c.06-.93-.09.23,0-.68s.11-.79-.06.12c-2.32,5.47.37,12-4,17-2.78,11.45-5.75,22.84-8.3,34.35a237.75,237.75,0,0,1-14.69,44.7q-7.05,15.87-13.18,32.09a233.66,233.66,0,0,1-11.14,24.61c-5.33,10.29-10.43,20.63-15.7,30.92-5.7,11.14-12.73,21.49-19.76,31.81-4.48,6.63-11,8.76-18.74,7.2-3.65-5.76-2.32-12.64-4.25-18.8-2.61-25.22-6.55-50.31-8.67-75.6-1.76-21-1-42-1.17-63,0-2.27,0-4.53,0-6.83a44.76,44.76,0,0,1,.23-5.41c-.48,5-.17,9.92-.26,14.88v5.64c-1.44,37.78,2.75,75.2,7.66,112.56,1.16,8.68,2.29,17.38,3.46,26.05-.85,3.41,3.62,7.09-.54,10.35-4.31-.62-7.68-2.92-10.69-6-16.95-17.32-31.32-36.43-41.5-58.57-1.36-2.94-2.66-5.89-4.28-8.7-8.53-15.11-15.59-30.95-23.44-46.43a126.37,126.37,0,0,1-8.65-21.88,177.26,177.26,0,0,0-9.07-24.69c-4.73-10.21-6.52-21.15-7.71-32.2-1.53-2.3-.08-4.77-.39-6.84,0-1.21-1.48.29-.66-.14.29-.14.49,0,.4.49-.88,5.81-1.25,11.67-1.73,17.51-.14,7.63-.57,15.25.88,22.88a76.69,76.69,0,0,0,3.26,11.31c2.27,6.55,4.65,13.07,6.75,19.67a140.12,140.12,0,0,0,8,20c10.94,21.68,21.63,43.54,32.71,65.16,7.2,14.06,16.47,26.82,26.85,38.75,1.78,2.07,3.63,4.11,5.5,6.24-3.21,1.33-3.21,1.33-7.2,1.25-24.3-.43-31.44-1.11-36.32-3.35,3.75-3.77,3.75-3.77,11.15-5.89.22-5.45-2.1-9.61-5.93-13.35a187.88,187.88,0,0,1-18.54-21.61c-1.93-2.6-3.94-5.18-6.09-7.59a173.38,173.38,0,0,1-19.85-27.61c-2.35-4-4.84-7.88-7.39-11.77-8-12-14.74-24.63-21.38-37.36s-8.78-26.75-9-41c-.26-21.09.08-42.18,1.84-63.19,1.1-13.4,3.88-26.59,7.2-39.6,2.35-9.18,5.21-18.22,7.71-27.38.79-2.86,2.13-4.93,5-6.15,4.42-1.93,8.44-4.76,13.21-6,2,2.69.36,5.36-.15,7.93-1.16,5.67-2.41,11.29-2.6,17.07,0,1.39-.09,3,1.38,3.6,1.68.71,2.56-.74,3.21-1.9,1.42-2.52,2.72-3.94,5.89-1.9s4.11-.65,4.17-3.09c.06-4.56-1.22-8.93-2.41-13.72-2.69,2.81-1.19,7-5.3,9.07-2.89-6-4.17-12-1.9-18.51a20.94,20.94,0,0,1,14.77-5.5c-6.26-.93-11.93,4.14-18.65,4-2.86,1.16-5.76,2.29-8.62,3.54-1.22.51-2.32,1.33-3.74.68l.11.14c-.34-4.56,2.21-8.36,3.29-12.53.4-1.5,2-1.95,3.29-2.24,9.89-2.06,19.61-5.27,29.88-5.3a3.61,3.61,0,0,0,1.36-.11,1.32,1.32,0,0,0,.71-.91,1.36,1.36,0,0,0-.63-1,18.08,18.08,0,0,0-8.84-1c-6.13,1-12.33,1.56-18.37,3.26a29.1,29.1,0,0,1-3.8.51c-1.42-1.34-.42-2.41-.11-3.32,1.61-4.56,3.43-9.07,5-13.63a3.53,3.53,0,0,1,4.17-2.67c2.52.26,5,.43,7.57.68,2.75.26,5.5.57,8.25.85,2,1.42,3.8-.54,5,.06-.48.08-1.28-.68-2.16-1.31a78.28,78.28,0,0,0-17.71-3.23c-1.48-.11-2.07-1-1.67-2.35.48-1.53,1-3.06,1.64-4.56,13.35-31.27,27.1-62.37,42.63-92.64.34-.6.43-1.42.88-1.87,4.31-4.08,4.2-9.55,4.71-14.8.71-7.11,1-14.28,1.67-21.43.48-5.3,1.05-10.6,2.83-15.67.74-2.13,2.39-3,4.31-2a54.35,54.35,0,0,1,6,3.54c7.59,5,13.8,11.59,19.56,18.59,2.06,2.5,4.05,5.08,6.23,7.46,2.44,2.69,5.25,4.62,9.19,2.83a4.93,4.93,0,0,1,2-.28c15.73-.37,31.32-2.92,47.11-2.41,11.79.4,23.61-.4,35.4.54a21.66,21.66,0,0,0,6.92-.37c7.46-1.76,14.74.43,22.11.65a4.9,4.9,0,0,1,2.64.77c4.05,3.23,7.73,1.59,11.48-.6,4.79-2.8,9.63-5.55,14.45-8.3a53.61,53.61,0,0,1,28.52-7.34c3.32.08,4.17.68,5,3.65A34.85,34.85,0,0,1,356.25,38c.74,10.18.94,20.36-2,30.31a51.79,51.79,0,0,0-1.45,6.06c-.53,3.4-1.1,6.75,2,9.61,1.24,1.14,1.64,3.26,2.26,5a244.79,244.79,0,0,0,11.66,27.41,87.6,87.6,0,0,1,8.9,36.11c.17,4.17.62,8.31.93,12.45.09,1.39.17,2.78.14,4.16-.08,2.73-.54,3.24-3.12,3.66-8.67,1.48-17.31,2.89-26,4.42-1.81.31-3.6.88-5.39,1.36a19.07,19.07,0,0,1-8.33,2.72c-.57,0-.77.29-.57.71a1.74,1.74,0,0,1,1.14-.68c3.91-1.87,8.16-.34,12.16-1.3,5.24-.65,10.51-1.28,15.76-2,4.56-.62,9.1-1.33,13.63-2,1.22,5,1.31,16.64.2,22.56l-17.15-.9c-3.91-1.19-7.94-.29-11.9-.6-2.13-1.93-3.94-3.2-7.37-1.7s-7.74-.37-11.57.85l.11.34c-.25,3.2,2.24,1.62,3.58,1.93,2.63.62,5.69-1.25,8,1.42-.68,5-.94,10.06-2.95,14.76-1.62,1.42-3.43.46-5.16.51-4.68.06-2.89-5.3-6.09-7.11-4.57,4.51-2.61,11.39-5.62,16.35,3.94.2,6.32-1.87,7.69-5.49.62-1.73,1.19-3.63,3.57-3.72,4.11.91,8.78-.17,12.19,3.38Z"/><path class="cls-11" d="M683.8,196.57c-.63-3.18-1.11-6.38-1.9-9.47a16.8,16.8,0,0,0-8.59-11.28c-17.75-9.27-36-12.19-54.48-2.47C605.39,180.44,595,190.78,589,205.1a156.16,156.16,0,0,0-9.78,35.37,230,230,0,0,0-2.52,28.35,249.12,249.12,0,0,1-2.92,29c-1.82,11.68-3.63,23.33-5.36,35a93.25,93.25,0,0,1-5.67,20.69c-6,15.05-11.71,30.22-20.15,44.17q-4.17,6.79-8.34,13.63c-5.84,9.58-13.38,17.72-21.74,25.09-9.41,8.27-18.85,16.47-29,23.86a22.38,22.38,0,0,1-2.21,1.39c-1.64-.82-.91-2.07-.88-3.06a24.38,24.38,0,0,1,.48-3.43c.91-5.7,1.84-11.42,2.69-17.12a98.23,98.23,0,0,0,.86-19.39c-.32-6.72-.06-13.41-.6-20.12a96.47,96.47,0,0,0-3.46-20.5c-4.85-15.93-9.41-31.95-15.42-47.48a280.12,280.12,0,0,0-18.28-38.15A42.17,42.17,0,0,1,441.63,276c-2-17.71-3.29-35.49-4.16-53.26a324.8,324.8,0,0,1-.15-34c.26-4.17.88-8.28,1.28-12.42.14-1.28.48-2.27,1.93-2.38.56-.06,1-.51.62-.88-3.12-3.2-1-6.63-.28-9.78,7.9-35.46,25.14-65.88,50-92.21C505.61,55.4,523.75,46.41,544.5,42.5a75.9,75.9,0,0,1,22.79-1.08c10.12,1.11,20.3,1.73,30.36,3.41a128.67,128.67,0,0,1,26,7.11c.82.34,1.56.88,3,1.65-3.2,1.58-6.06,2.66-8.53,4.33s-4.42,4.06-6.78,5.93c-2.63,2.12-3.88,5-4.93,8.13,3.26,3.66,7.54,4.17,12.33,4.45,13,.68,25.63,3.09,37.39,9.27a99.73,99.73,0,0,1,21.6,14.94C688,110.08,693,122,694.57,135.45a77.43,77.43,0,0,1-.85,22.82c-1,5.24-1.22,10.57-1.87,15.87a63.14,63.14,0,0,1-8.05,22.43Z"/><path class="cls-12" d="M428.62,173.6c-1.59,10.78-1.73,21.83-1.67,32.89,0,2.41-.94,3.28-2.78,2.46-10.43-4.67-21.46-7.08-32.77-8.42a2.15,2.15,0,0,1-2-2.35c-.09-4.65-.34-9.3-.06-13.89.2-3.15-1.9-7,.63-9.3,2.07-1.9,5.78-.68,8.73-1.13,8.5-1.36,17.09-1.19,25.65-1.22,1.36,0,2.81-.25,4.28,1Z"/><path class="cls-12" d="M416.35,239.85a109.78,109.78,0,0,0-19.08-8.16c-4.9-1.65-8.19-5.05-11.85-8.22a2.12,2.12,0,0,1-.48-2.53,51.75,51.75,0,0,0,3.83-14.71,1.91,1.91,0,0,1,2.32-1.93c10.77,1.48,21.49,3.09,32,6.13,2.92.85,4,2.43,4,5.47,0,7.4.37,14.79.6,22.19.85,2.19,1.27,4.34-.63,6.27-4.67,1.16-8-.94-10.68-4.51Z"/><path class="cls-11" d="M353.9,200.39c7.43-.14,14.68,1.48,22.05,1.9,2.44.14,3.15,1.22,2.7,3.74a32.08,32.08,0,0,1-1.73,6.69c-5.62,13.13-1.65,11.4-15,8-4.9-1.25-9.66-3.12-14.77-3.49-1.24-.62-3.14-.09-3.68-2,.08-4.48,2.81-8.19,3.68-12.5.74-3.77,4.06-2.81,6.78-2.33Z"/><path class="cls-13" d="M81.26,207.85A56.1,56.1,0,0,0,83.36,225c.88-3.89,1.56-7.12,2.33-10.32a2.2,2.2,0,0,1,1.7-2,1.81,1.81,0,0,1,1.9,1.62c1.07,4.73,2.26,9.44,3,14.2.48,2.92.6,6-2.07,8.36-1.22,1.08-2.49,1.31-3.68.26s-2.19-2.21-3.32-3.38c-.74,1.59-1.36,3.07-2.07,4.51a4.15,4.15,0,0,1-4.42,2.64c-2.47-.26-2.44-2.5-3-4.14a6.06,6.06,0,0,1-.08-2.69A160,160,0,0,1,78.49,209c.45-.48.93-.94,1.38-1.42a.85.85,0,0,1,1.39.23Z"/><path class="cls-14" d="M408.38,239.48l6.58,1.65c5.1,1.41,10.37,2.46,13.94,6.94.4,5.64.77,11.28,1.17,16.87a2.94,2.94,0,0,1-1.05.14,1.38,1.38,0,0,1-.6-.31c-.51-.46-1-.94-1.5-1.42q-10.85-11.1-21.71-22.17c-.06-2.63,1.44-2.38,3.17-1.7Z"/><path class="cls-13" d="M353.9,200.39c-1.11.14-2.27.23-3.37.43-.94.14-2,.62-1.9,1.58.45,5.14-2.75,9-4.45,13.36-2.47,2-4.25,1-5.7-1.34-.2-5.18.31-10.23,2.81-14.88.79-1.13,1.81-1,2.86-.45,3.23.59,6.69-.4,9.75,1.3Z"/><path class="cls-15" d="M292.84,317.58q1.46-9.7,2.86-19.39c3.41,1.19,1.48,3.68,1.36,5.72a57.09,57.09,0,0,1-2.83,19.45c-.62-1.9.57-4.22-1.39-5.78Z"/><path class="cls-16" d="M81.26,207.85c-.45-.09-.9-.17-1.39-.23-.59-1.28-1.84-1.25-3-1.5a45.44,45.44,0,0,1,18.82-5.59c.65-.05,2.07-.34,1.81,1.14a2,2,0,0,1-1.38,1.19c-4.37.59-8.37,2.24-12.45,3.74a21.63,21.63,0,0,0-2.44,1.25Z"/><path class="cls-13" d="M330.23,196.31c2.18-1.87,4.82-1.08,7.23-1.05,3.26.06,5.84-.54,7.23-3.85a2.09,2.09,0,0,1,1.58-1,2,2,0,0,1,1.79,1.81c.23,1.36.23,2.72.34,4.08-.79,1.14-1.79,1-2.86.43q-7.65-.21-15.31-.37Z"/><path class="cls-17" d="M188.5,505.06c1.61,5.95,2,12.1,2.83,18.2-1.16-.09-2.32-.14-3.51-.2a9.71,9.71,0,0,0-.17-5.47,27,27,0,0,1-.48-4.05c1.78-2.64-1.62-6,1.33-8.48Z"/><path class="cls-18" d="M334.34,181.14a16.78,16.78,0,0,1,9.89-2.55c1.08,1.62,3,.85,4.4,1.45-4.57,1.81-9.53,1.67-14.2,2.89a1.12,1.12,0,0,1-.09-1.79Z"/><path class="cls-19" d="M80.1,335.63a74.86,74.86,0,0,1,1.67-21,24.26,24.26,0,0,1,.71,10c-1.58,2-.85,4.36-1.16,6.57-.2,1.56.06,3.21-1.22,4.45Z"/><path class="cls-20" d="M338.48,214.42c1.81.8,3.63,1.62,5.7,1.34,1,.48,1.95,1,2.94,1.47-.51.48-1,1-1.55,1.45-4.34-.15-8.39-1.54-12.45-2.87-.45-.25-.59-.48-.42-.71a.65.65,0,0,1,.48-.28c1.76-.14,3.54-.28,5.3-.4Z"/><path class="cls-21" d="M428.9,248.07q-7-3.45-13.94-6.94c.45-.43.93-.85,1.39-1.28,3.54.54,6.21,3.23,9.63,4.05.91.54,2.07.29,2.87,1.08,0,1,0,2.07,0,3.09Z"/><path class="cls-22" d="M344.15,199.09c-1,.14-1.9.28-2.86.45-3.92-.28-7.8-.54-11.71-.91-.63,0-1.36-.56-1-1.41s1-.71,1.73-.57c1.93,1.84,4.37.79,6.58,1.11,2.44.31,5.1-.66,7.23,1.33Z"/><path class="cls-22" d="M345.54,196.68c1-.14,1.93-.28,2.86-.43,4.2.71,8.59-.14,12.67,1.51-4.36,0-8.73.11-13.09,0-.83,0-1.62-.71-2.44-1.08Z"/><path class="cls-23" d="M99.23,171.73a1.94,1.94,0,0,1,.66,0c2.09.85,4.93.2,6,3.06-2.24,1.5-4.19-.82-6.38-.54a3.94,3.94,0,0,1-3-1.22c1-.34,2.13-.25,2.8-1.25Z"/><path class="cls-24" d="M369.15,330.08a16.2,16.2,0,0,1,2.64,1.92c2.21,2.3,2.94,4.26,1.92,4.34-1.9.17-2.29-1.84-3.51-2.66a26.87,26.87,0,0,1-2.5-2.16l1.45-1.44Z"/><path class="cls-25" d="M367.79,243.79c-2.78,4.51-4.08,5.87-4.31,4.82-.45-2.38,1.3-4,2.27-5.9.11-.2.37-.28.54-.39.51.48,1,1,1.5,1.47Z"/><path class="cls-26" d="M408.38,239.48c-1.22.29-2.58.29-3.17,1.7a8.12,8.12,0,0,1-3.94-4c2.94-.45,5,1,7.11,2.27Z"/><path class="cls-14" d="M428.85,245c-1.14.14-2.27.23-2.87-1.08,2.24-1.47,1.31-3.82,1.68-5.81,1.36,2.13.42,4.65,1.19,6.89Z"/><path class="cls-27" d="M384.15,226.24c-.2.26-.37.74-.6.74a2.81,2.81,0,0,1-1.05-.45,3,3,0,0,1,.65-.68.63.63,0,0,1,1,.39Z"/><path class="cls-28" d="M64.54,210.34c.25.43-.09,1-.31.85-.88-.73-.17-.73.42-.71l-.11-.14Z"/><path class="cls-8" d="M301.2,84.82A53,53,0,0,1,329,92c12.36,7.2,17.89,18.28,19,32-1.24,18.4-7.23,34.18-23.5,44.93-12.92,8.53-26.61,9.81-41.21,6.21a33.48,33.48,0,0,1-14-7.54c-11.45-10-17.71-22.51-16.67-38a53.85,53.85,0,0,1,10.52-28.29,38.36,38.36,0,0,1,15.68-12.22,47.32,47.32,0,0,1,22.33-4.31Z"/><path class="cls-8" d="M104.39,140.41c-.56-7.91,1.34-16.16,4.62-24.21a41.14,41.14,0,0,1,10.52-15.3c2.38-2.16,5-4.14,7.4-6.3,6.58-5.84,14.4-8,23-7.93,4.17,0,8.33-.4,12.44.56,10.46,2.44,17.49,8.9,22,18.46,5.27,11.14,5.27,22.76,3.43,34.64-1.9,12.33-8.11,21.94-17.89,29.39-11.71,8.93-24.86,12.08-39.15,8.45a40.74,40.74,0,0,1-18.9-11.11c-5-5.08-7.06-11.29-7.46-18.17-.14-2.56,0-5.11,0-8.48Z"/><path class="cls-29" d="M187.11,179.81a24.61,24.61,0,0,0,1,8.22c1.82,5.05,5.39,6.64,10.41,4.57a13.76,13.76,0,0,0,5.3-4.34c3.48-4.37,4.79-7.94,5.95-16.24-2.81-1.73-5.75-3.49-8.62-5.36-3.54-2.35-4.36-5.73-3.4-9.75a5.67,5.67,0,0,1,2.13-3.43,42.72,42.72,0,0,1,9.35-5.87c7.77-3.26,18.48,1.64,21.06,9.55,1.48,4.57.68,7.37-3.17,10.21-3.4,2.52-7.15,4.28-11.51,4.28-2,0-2.81,1.08-3.09,2.95A24.51,24.51,0,0,0,215,189.39a7.19,7.19,0,0,0,6.55,4.43,53.67,53.67,0,0,0,5.53.05,8.28,8.28,0,0,0,7.11-4.84c1.22-2.5,2-5.16,3-7.77.36-.68.82-.71,1.36-.17l0,0c.34.54.68,1.08,1,1.59,2,6,.2,10.91-4.62,14.79-5,4-10.46,4.37-16.27,2a11.82,11.82,0,0,1-6.41-6c-.88-1.84-1.59-3.8-2.35-5.7-2.1.09-2.44,2-3.29,3.24a20.77,20.77,0,0,1-7.54,6.94c-7.45,4-15.42-2.3-15.42-9.24a17.82,17.82,0,0,1,2.13-8.65c.37-.68.82-.7,1.33-.14Z"/><path class="cls-30" d="M188.5,505.06c-.06,1.56-.14,3.15-.17,4.73,0,1.36,0,2.75-1.16,3.75-2.13-10.66-3.24-21.43-4.45-32.21-1-8.7-2.07-17.4-3.29-26.08-2.3-16.46-3.94-33-3.8-49.63.08-8.53,0-17.06,0-25.6,0-2.29.22-4.59.34-6.91,1.1-1.7.37-3.6.59-5.42a8.6,8.6,0,0,1,.26-2.8,1.15,1.15,0,0,1,1.61-.09c.26,7.85.71,15.71.74,23.56.06,12.95-.14,25.91.91,38.8.88,10.83,2.15,21.63,3.34,32.43,1.14,10.32,2.44,20.64,3.6,31,.54,4.81,1,9.63,1.45,14.48Z"/><path class="cls-13" d="M138.35,296.57c0,4.34.06,7.37,0,10.38a10.66,10.66,0,0,1-3.76,7.91,1.69,1.69,0,0,1-2.47-.15,5.48,5.48,0,0,1-2.07-4.22c.06-4.62-.45-9.24.59-13.83.94-4.06,1.45-8.17,2.16-12.25a10.84,10.84,0,0,1,.59-2.69c.37-.8,1-2,1.59-2.07,1.31,0,1.59,1.27,2,2.44,1.7,5.16,1.36,10.51,1.44,14.48Z"/><path class="cls-13" d="M213.58,417.21c0-4.13-.45-8.3.91-12.38.68-2,.11-4.11-.65-6.1-.37-.9-.34-2.12.51-2.46,1.42-.57,2.1.76,2.41,1.81,1.22,3.71,2.81,7.43,3.23,11.28.54,4.79,2.27,9.47,1.79,14.4a11.71,11.71,0,0,1-.31,3.43c-.86,2.07-1.62,5-4.12,4.93-2.66,0-3.4-3-3.68-5.21a78.38,78.38,0,0,1-.09-9.7Z"/><path class="cls-13" d="M321.93,469.23c-5.73-4.82-8.79-10.37-9.62-16.92-.5-4.08-.14-8.31-.08-12.48a6.21,6.21,0,0,1,1.81-4.36,1.12,1.12,0,0,1,1.79,0,10.64,10.64,0,0,1,1.62,3c1.39,4.85,2.75,9.76,3.94,14.66a27.87,27.87,0,0,1,.51,5.5c.08,3.2,0,6.4,0,10.6Z"/><path class="cls-13" d="M269.29,476.63c0-2.55-.09-5.08,0-7.63a2.48,2.48,0,0,1,1.19-1.56c.94-.56,1.79,0,2.36.77a15,15,0,0,1,2.23,3.46c1.22,3.26,2.44,6.52,3.35,9.86a11,11,0,0,1-1.59,9.3c-1.24,1.81-3.09,1.93-4.65.25a11,11,0,0,1-3.14-7.51v-6.94Z"/><path class="cls-13" d="M256.59,275.42v-6.23a2.83,2.83,0,0,0-1-2.33c-1.44-1.36-1.24-2.29.17-3.45a2,2,0,0,1,3,.08c3.57,3.72,7.14,17.21,5.84,22.2a8.14,8.14,0,0,1-.83,1.92c-.62,1.19-1.1,2.7-2.83,2.55a3.27,3.27,0,0,1-3-2.46c-.71-2.21-1.62-4.34-1.45-6.72.14-1.84,0-3.71,0-5.56Z"/><path class="cls-13" d="M203.61,75.3c.22-5.33,1.92-10.32,3.74-15.25a73.84,73.84,0,0,1,3.06-6.86c.11-.26.85-.37,1.19-.28s.94.59.91.87c-.85,6.61-.34,13.27-.51,19.9-.09,2.9-1.53,5.25-3,7.54-1.07,1.62-3.65,1.25-4.56-.56-.71-1.36-.79-2-.79-5.36Z"/><path class="cls-13" d="M222.54,59.48c.37.31,1.11.68,1.31,1.25a59.51,59.51,0,0,1,2,6.58c.4,1.75.34,3.65.79,5.41.94,3.49-.42,6.32-2.24,9a3.63,3.63,0,0,1-4.14,1.82,3.72,3.72,0,0,1-2.63-3.66,34.18,34.18,0,0,1-.06-4.85,58.76,58.76,0,0,1,3.06-14.76c.26-.68,1-.94,1.9-.8Z"/><path class="cls-13" d="M333.18,214.82c0,.34,0,.65-.06,1-1.33.91-1.33,2.33-1.53,3.69a7.17,7.17,0,0,1-2.15,4.22,7.39,7.39,0,0,1-3.38,2.24c-1.73.28-3.57-.2-5.58-.4.23-1.9,1.64-3.14,1.56-5-.14-4.2,1.42-8.08,2.58-12.05a5.82,5.82,0,0,1,1.73-2.89A2.62,2.62,0,0,1,330,206a9.44,9.44,0,0,1,1.62,5.19c0,1.42.23,2.78,1.56,3.63Z"/><path class="cls-31" d="M339.81,56a9.84,9.84,0,0,1-1.16,5.32c-.91,2-2.5,2.58-4.54,1.42-5-2.86-9.83-6-15.25-8a1.75,1.75,0,0,1-.51-2.86C322.83,47,328,43.24,334.94,43c1.78,0,3.77-.2,4.73,2a3.66,3.66,0,0,1-1.76,2.29,11.94,11.94,0,0,1-3.31.66c-2.9.28-6.3,0-7.94,2.8-1.08,1.76,1.59,2.21,2.66,3.18,3.26,2.92,6,1.84,8.62-1,1.79.32,1,2.19,1.87,3.07Z"/><path class="cls-13" d="M342.53,465.91c-.22,1.28-.42,2.19-.54,3.09a1.34,1.34,0,0,1-1.92,1.25c-3.41-1.05-6-2.83-7.29-6.6-1.33-4-.93-8.2-2.18-12.14-.2-.62.4-1.3,1.13-1.5.43-.11,1.11-.23,1.33,0,4.4,4.45,8.25,9.24,9.47,15.62,0,.23,0,.45,0,.31Z"/><path class="cls-13" d="M235.92,423a7.52,7.52,0,0,1-2.83,6.15,3.28,3.28,0,0,1-5.42-1.79,13.76,13.76,0,0,1-.28-4.82c.82-5.21,1.84-10.4,2.83-15.59a1.27,1.27,0,0,1,.94-.68,2.5,2.5,0,0,1,1.11.68.9.9,0,0,1,.31.57q1.69,7.74,3.34,15.48Z"/><path class="cls-13" d="M238.47,280.67c-.62-5,1.68-10.06,1.62-15.39a1.08,1.08,0,0,1,1.39-1.11c.34.12.85.54.88.85.39,6.47,1.78,12.76,2.94,19.11a17.58,17.58,0,0,1-.17,5.5,2.75,2.75,0,0,1-2.29,2.32,2.69,2.69,0,0,1-2.44-1,5.61,5.61,0,0,1-1.93-4.28c0-1.87,0-3.71,0-6Z"/><path class="cls-13" d="M424.82,370.27a11.8,11.8,0,0,1-.48,2,3.25,3.25,0,0,1-4.59,1.62,8.84,8.84,0,0,1-4.06-5.44,93.83,93.83,0,0,1-1.89-9.44,3.54,3.54,0,0,1,.42-2c.43-.88,1.45-1.61,2.21-1,4.28,3.54,8.7,7.11,8.39,14.17Z"/><path class="cls-13" d="M299.67,234.07c0-2,.14-4.14-.05-6.18a13,13,0,0,1,4.56-11.65c1.67-1.48,3.12-4.68,5.27-3.66,3.12,1.47.29,4.34.09,6.63-.63,6.72-4.59,11.23-9.92,14.83Z"/><path class="cls-13" d="M402.34,360c.4,0,1-.08,1.25.14,3.43,3.69,6.58,7.57,8.31,12.39a5.4,5.4,0,0,1,0,4c-.6,1.47-1.11,3.17-3.06,3.31-1.79.15-2.95-1.1-3.86-2.43a7,7,0,0,1-1-2.5c-.94-4.22-1.84-8.45-2.66-12.67a1.79,1.79,0,0,1,1-2.27Z"/><path class="cls-13" d="M258,480.77c0-2.27,0-4.57,0-6.83,0-.6.25-.94.82-.91a2.16,2.16,0,0,1,1.22.39c3.48,3.83,5.1,8.57,6.15,13.53a5.3,5.3,0,0,1-.43,2.63c-.88,2.67-2.72,4.48-4.05,4a5.22,5.22,0,0,1-3.63-4.56,44.93,44.93,0,0,1-.11-4.79c0-1.14,0-2.27,0-3.43Z"/><path class="cls-13" d="M246.69,71.59a4.34,4.34,0,0,1-.28,1.41c-.71,2-3.66,4.74-4.79,4.48-1.56-.34-3.06-3.12-3.15-5.7a14.9,14.9,0,0,1,.91-5.41,6.43,6.43,0,0,0,.11-3.37c-.28-1.31-2.83-2.61-.08-3.75s5.1-.14,5.61,2.24c.63,2.92,2.07,5.67,1.67,10.1Z"/><path class="cls-13" d="M151.51,311.54c-1.25,1.81.34,4.73-1.85,6.69-3.57-.37-3.48-3.77-4.84-6a5.26,5.26,0,0,1-.8-2.61c-.05-4.14-.05-8.31,0-12.45a1.94,1.94,0,0,1,1.28-1.3,2,2,0,0,1,1.7.79,47.71,47.71,0,0,1,4.48,14.83Z"/><path class="cls-13" d="M251,416.36a12.77,12.77,0,0,1-6,10.41,2.71,2.71,0,0,1-1.93.34c-1.3-.34-.79-1.36-.62-2.24.6-3.18,1-6.38,1.76-9.5.59-2.49,1.36-4.87,1.3-7.48,0-.85.12-2,1.39-2,1.05,0,1.59.94,1.82,1.79.87,3.09,1.64,6.21,2.26,8.67Z"/><path class="cls-32" d="M138.41,42.13c0-.93,0-1.87,0-2.77.74-.77.42-2,1.3-2.7,1.5-1.39,3.09-1.92,5-.62A49,49,0,0,1,156,47.18c1,1.28.23,3.17-1.19,3.17a62.68,62.68,0,0,0-13.78,1.56c-2,.49-2.94-.85-2.92-2.8a3.66,3.66,0,0,1,1.59-.94c2.64-.71,5.16-1.78,8.22-2.24-1.84-3.48-3.88-5.55-7.85-3.14a2.27,2.27,0,0,1-1.7-.66Z"/><path class="cls-13" d="M59,375.49c0-2.3,0-4.59,0-6.89,0-.34.43-.94.63-.91a1.75,1.75,0,0,1,1,.65,2.78,2.78,0,0,1,.66,1.2c1.47,5.75,2.94,11.5,4.31,17.29a12.38,12.38,0,0,1,.14,4.08A2.25,2.25,0,0,1,64.31,393,2,2,0,0,1,62,392a15.85,15.85,0,0,1-2.92-8.95c-.09-2.53,0-5.05,0-7.57Z"/><path class="cls-13" d="M434,372.17c-3.09-3.37-5.07-6.52-5.19-10.77-.08-2.49-1-5-1.61-7.43a2,2,0,0,1,.85-2.38,1.7,1.7,0,0,1,2.46.46c4.31,6.43,8,12.58,3.49,20.12Z"/><path class="cls-13" d="M110.46,232.93c-.11,1.59-.11,2.87-1.25,3.49a3.9,3.9,0,0,1-4-.2,5.86,5.86,0,0,1-3-5.1c0-3.23-.06-6.44,0-9.67a2.56,2.56,0,0,1,.88-1.7c.65-.56,1.25,0,1.7.51a24.94,24.94,0,0,1,5.64,12.67Z"/><path class="cls-13" d="M280.23,480c0-2.94-.26-5.5,1.19-7.79a1.47,1.47,0,0,1,2.32-.14c.31.34.74.62.91,1,2,4.93,3.17,10,2.24,15.36-.17,1-.77,1.93-1.65,2a3.64,3.64,0,0,1-2.29-1.25c-2.55-2.69-3-6-2.72-9.16Z"/><path class="cls-13" d="M70.1,373.67c.17-2.43-.23-4.08.67-5.52a1.77,1.77,0,0,1,1-.8,1.18,1.18,0,0,1,1,.6c1.47,5.72,2.95,11.45,4.25,17.23a13.4,13.4,0,0,1-.14,4.08,1.53,1.53,0,0,1-.77,1,1.41,1.41,0,0,1-1.22-.14c-1.1-1.42-2.66-2.81-3-4.46-.91-4.19-1.3-8.53-1.78-12Z"/><path class="cls-13" d="M279.58,284.78c-3.69-2.07-5.33-4.59-5.05-8.16.25-3.32-1.13-6.27-1.9-9.36-.14-.45.48-1.19.91-1.61.22-.23.85-.09,1.27-.06a1.25,1.25,0,0,1,.63.25c3.31,2.24,6.37,10.07,5.47,14-.34,1.53-.82,3.06-1.33,5Z"/><path class="cls-13" d="M362.55,466.85a11.92,11.92,0,0,1-4.85-5.39c-1.11-2.72-2.24-5.47-3.29-8.25a1.29,1.29,0,0,1,.62-1.72,2.42,2.42,0,0,1,1.93-.09c4,2.41,5.73,6.38,6.55,10.72.25,1.41.68,3.14-1,4.73Z"/><path class="cls-13" d="M161.65,320.61a9.84,9.84,0,0,1-4-6.24c-.74-3.34-1.65-6.66-1.16-10.12a1.19,1.19,0,0,1,.82-.82,1.5,1.5,0,0,1,1.16.45,5.87,5.87,0,0,1,1.05,1.76c1.64,4.76,3.15,9.53,2.15,15Z"/><path class="cls-33" d="M177.36,364.86c-.06.85-.14,1.73-.2,2.61-.31.7-.68.7-1.16.14.05-3.18-.06-6.38.17-9.53.17-2.24-.77-4.79,1.53-6.57,1.64,2,.85,4.25.71,6.46-1.22,2.15.31,4.73-1,6.89Z"/><path class="cls-34" d="M297.06,303.91c-.62-1.87.34-4.11-1.36-5.72a3.56,3.56,0,0,1,.91-3.18,1.25,1.25,0,0,1,.48-.42c.57-.14,1,.08,1,.54-.17,2.94.48,6-1,8.78Z"/><path class="cls-35" d="M338.51,46.47c.37-.48.76-1,1.16-1.47,1.42,3.62,1.13,7.31.14,11-1.08-.71-1.19-1.88-1.36-3-1.84-2.18-1.64-4.37.06-6.55Z"/><path class="cls-36" d="M177.36,364.86c.08-2.35-.71-4.82,1-6.89a19.12,19.12,0,0,1,.05,6.83c-.36,0-.73,0-1.1.06Z"/><path class="cls-37" d="M138.41,42.13c.51,0,1,0,1.53,0,1.81,2.44,1.64,4.74-.4,6.92-.45,0-.9,0-1.39,0-.82-2.36-.31-4.68.26-7Z"/><path class="cls-36" d="M176,367.61c.39-.06.79-.09,1.16-.14-.06,1.95.71,4.08-1.16,5.64v-5.5Z"/><path class="cls-38" d="M187.11,179.81l-.65.14h-.68a7.56,7.56,0,0,1,.65-1.78c.31-.46.88-1.16,1.56-.37a1.37,1.37,0,0,1,0,1.16c-.17.34-.6.57-.91.85Z"/><path class="cls-39" d="M238.59,181.09a4.45,4.45,0,0,1-1.36.17c-.26-.82-.32-2,.42-2.1s1,1.05.94,1.93Z"/><path class="cls-40" d="M139.74,36.66a3.24,3.24,0,0,1-1.3,2.7,2.34,2.34,0,0,1,1.3-2.7Z"/><path class="cls-41" d="M334.34,181.14l.09,1.79c-.77.82-1.17.4-1.25-.42s.42-1.22,1.16-1.37Z"/><path class="cls-42" d="M299.62,234c-.09.17-.2.54-.26.54-.42-.09-.31-.29.31-.51Z"/><path class="cls-39" d="M239.55,182.65a1.37,1.37,0,0,1-1-1.59,1.26,1.26,0,0,1,1,1.59Z"/><path class="cls-13" d="M535.63,398.25a6.13,6.13,0,0,1-.65,1.59c-1.59,2.24-3,4.45-5.5,6-7.2,4.47-14,9.72-22.37,11.9-.88.23-1.73.6-2.63.77a2.4,2.4,0,0,1-2.33-1.17,1.89,1.89,0,0,1,.06-2.52,33.5,33.5,0,0,1,4.36-4.39c6.1-4.88,12.28-9.61,18.43-14.4a26.86,26.86,0,0,1,3.4-2.33c3.46-1.87,7.12.29,7.23,4.51Z"/><path class="cls-13" d="M607.18,108.75a21.86,21.86,0,0,1,3.34.62c2.83,1.08,3.46,4.08,1.13,6-4.28,3.52-8.59,7-14.06,8.59-4,1.16-7.85,2.58-11.82,3.8a7.28,7.28,0,0,1-2.69.23,2.48,2.48,0,0,1-1.61-3.72,6.38,6.38,0,0,1,1.38-1.53c5.5-3.83,10.95-7.68,16.53-11.37,2.3-1.5,4.82-2.8,7.8-2.63Z"/><path class="cls-13" d="M548.27,245.72c-1.16,9.24-1.33,18-4.56,26.28-1.14,3-1.42,6.29-2,9.43a5.68,5.68,0,0,1-1.44,3.09c-1.22,1.28-3.57.94-3.94-.73-.77-3.55-1.79-6.86-.71-10.83,1.13-4.14.6-8.67,1.9-13a24.45,24.45,0,0,1,10.77-14.28Z"/><path class="cls-13" d="M462.3,155.26a22.77,22.77,0,0,1-.71,6.84c-2.24,7.48-4.23,15-6.29,22.56a5.81,5.81,0,0,1-.8,1.87,3.24,3.24,0,0,1-1.61,1.05,1.24,1.24,0,0,1-1.48-1.11c-.59-3.57-1.53-6.88-.71-10.8,1.05-5.1.91-10.48,2-15.67.82-3.91,2.09-7.54,5.61-9.95,1.84-1.25,3.77-.43,4,1.76.11,1.16,0,2.32,0,3.45Z"/><path class="cls-13" d="M502.52,404.32a2.72,2.72,0,0,1-2.49-2.67,4.62,4.62,0,0,1,1.5-3c2.29-2.27,4.39-4.82,6.94-6.72,4.23-3.15,7.71-7.31,12.79-9.3,2.35-.93,3.4-.85,4.87.79s1.9,3.18.68,5c-1.64,2.47-3.23,4.85-5.92,6.55a99,99,0,0,1-13.78,7.88,34.32,34.32,0,0,1-4.59,1.48Z"/><path class="cls-13" d="M463.8,181.6c1.42-8.14,1.9-16.5,6.69-23.73,1.5-2.27,3.26-4,6.07-3.88,1.7.08,2.63,4.14,1.89,7.37a40.18,40.18,0,0,1-3.65,10.43c-2.3,4.28-4.4,8.67-6.61,13-.56,1.11-1.44,2-2.75,1.65s-1.58-1.51-1.61-2.72c0-.68,0-1.39,0-2.1Z"/><path class="cls-13" d="M610.32,121.45c2.41-.14,4.65,0,6.38,2a1.73,1.73,0,0,1,.28,2.44,30.37,30.37,0,0,1-7.93,6.66c-5.42,3.37-11.6,4.36-17.69,5.5-1.31.25-2.89.14-3.46-1.56a3.23,3.23,0,0,1,1.5-3.6c3.57-2.55,7.23-5,10.89-7.4,1.36-.91,2.92-1.48,4.19-2.47a8.26,8.26,0,0,1,5.84-1.61Z"/><path class="cls-13" d="M607.46,149.31a22.24,22.24,0,0,1-3.6-.45,3.87,3.87,0,0,1-2.86-2.72c-.34-1.28.62-2.13,1.5-2.87a12,12,0,0,1,2.75-2c2.69-1.27,5.5-2.32,8.19-3.63a8.43,8.43,0,0,1,5.36-.76c2,.42,4.65.59,5.41,2.38,1,2.24-1.7,3.46-3.06,4.82-3.8,3.8-8.73,4.85-13.69,5.27Z"/><path class="cls-13" d="M559.35,258.39c.74,7.88.51,14.82-2.35,21.51-.62,1.48-1,3.06-1.47,4.6-.23.65-.34,1.36-.6,2-.73,1.59-2.58,2.92-3.68,2.72s-1.9-2-1.76-4.05c.6-9.61,3.91-18.23,9.86-26.76Z"/><path class="cls-13" d="M530.44,250.11a21.14,21.14,0,0,1-1.36,10c-1.56,4.34-3,8.67-4.62,13-.08.31-.74.57-1.11.57a1.42,1.42,0,0,1-1-.65c-.46-1-1.22-2.3-1-3.21,1.08-3.63.6-7.31.82-11,.37-5.3,2.75-9.66,6.27-13.49a2.12,2.12,0,0,1,1.22-.4c.51,0,.79.29.79.88,0,1.59,0,3.2,0,4.28Z"/><path class="cls-13" d="M502,377.39c-.42-.06-1.1-.12-1.76-.26-1.27-.28-2.15-2.55-1.13-3.31,4.85-3.69,9.21-8.2,15.36-9.9a1.58,1.58,0,0,1,2,2c-1.33,6.86-7,11.48-14.43,11.48Z"/><path class="cls-13" d="M496.6,159.83c-1.62,7.65-3.43,13.94-7.09,19.59a13.41,13.41,0,0,1-2.41,2.41,1.6,1.6,0,0,1-2.24-.86,16,16,0,0,1,2-12c2.16-3.43,5.33-6.18,9.73-9.18Z"/><path class="cls-12" d="M304.92,113.4a42.86,42.86,0,0,1,.68-4.94,7.37,7.37,0,0,1,2.83-4.59c2-1.53,4-3.14,5.93-4.73a8.53,8.53,0,0,1,7.79-1.7,18.71,18.71,0,0,1,13.44,11.79c1.78,4.42,2.49,8.82-.63,13.12-3.28,4.57-7.59,7.52-13,8.25-8.62,1.17-16.9-6.8-17-17.2Z"/><path class="cls-12" d="M146.66,118.19c.08-1.14.17-2.3.23-3.46.36-7.82,6.43-12,11.9-13.61,6.86-2,12.36,0,17,6.27,5,6.8,2.95,19.19-4.08,24.32-2.19,1.61-4.4,3.4-7.34,3.66-5.28.48-14.43-4.88-16.5-9.7a16.49,16.49,0,0,1-1.22-7.48Z"/><path class="cls-13" d="M338.51,46.47c0,2.18,0,4.37-.06,6.55a16.12,16.12,0,0,0-.91,1.81c-1.73,5-1.73,5-5.84,2.58-2.58-1.5-5.18-2.95-7.73-4.42-1.7-1-1.82-2.1-.34-3,4.56-2.92,9.29-5,14.88-3.49Z"/><path class="cls-13" d="M139.54,49.08c.15-2.3.29-4.59.4-6.92.37-.79.77-1.61,1.11-2.44.53-1.24,1.39-1.89,2.6-1a38.81,38.81,0,0,1,7.66,7.48c-.94,1.87-2.5,1-3.66,1.33s-2.24.46-3.29.8c-1.3.42-2.49,1-3.77,1.47-.25.08-.68-.45-1.05-.68Z"/></g></g></svg>