<svg xmlns="http://www.w3.org/2000/svg" viewBox="0 0 518.77 538.61"><defs><style>.cls-1{fill:#543828;}.cls-1,.cls-10,.cls-11,.cls-12,.cls-13,.cls-14,.cls-15,.cls-2,.cls-3,.cls-4,.cls-5,.cls-6,.cls-7,.cls-8,.cls-9{fill-rule:evenodd;}.cls-2{fill:#d1c3bc;}.cls-3{fill:#fbe85d;}.cls-4{fill:#f99f3f;}.cls-5{fill:#8a6a3c;}.cls-6{fill:#7d613a;}.cls-7{fill:#996436;}.cls-8{fill:#563a29;}.cls-9{fill:#f0d633;}.cls-10{fill:#f0d634;}.cls-11{fill:#f0d735;}.cls-12{fill:#795d38;}.cls-13{fill:#866b3e;}.cls-14{fill:#a08044;}.cls-15{fill:#fff;}</style></defs><title>Asset 5</title><g id="Layer_2" data-name="Layer 2"><g id="Layer_1-2" data-name="Layer 1"><path class="cls-1" d="M220.08,475.64c2.84-.91,5.67-1.87,8.56-2.73,3.12-.9,5.56.12,7,2.87a4.78,4.78,0,0,1-1,6.26,10.37,10.37,0,0,1-2.24,1.65c-4.93,2.58-10,4.82-15.56,5.61a21.1,21.1,0,0,0-13.18,6.77A58,58,0,0,1,191,506.79c-1.25.76-2.52,2.29-4.37,1-1.41-1-1.7-2.5-.59-5,.94-2.13,2.15-4.08,3.23-6.12.43-.83,1-1.59.43-2.87-2.1-.11-4.37-.14-6.61-.34a29.56,29.56,0,0,1-5.44-.9c-1.73-.49-4.22-.91-4.39-2.84-.23-2.58,2.55-2.72,4.42-3.49a93.61,93.61,0,0,1,23.3-6.43c4.76-.6,5.44-1.33,6.18-5.92,1.1-6.87,2.15-13.72,3-20.61.34-2.95,2.43-6.18.62-8.73-1.47-2.1-4.45-3.12-6.72-4.68a54.24,54.24,0,0,1-16.16-17c-4.33-7.11-8.61-14.29-10-22.73a3.73,3.73,0,0,0-2.44-3.09l-2.55-1A127.66,127.66,0,0,1,140,376.93a141.66,141.66,0,0,0-13.55-9.66,138.62,138.62,0,0,1-34-29.4C84.7,328.6,76.85,319.45,70,309.53a95.37,95.37,0,0,1-8-13.81C56.21,283.36,50.4,271,44.73,258.59A109.79,109.79,0,0,1,35,217c-.06-1.62-.17-3.24-.32-4.85a2.18,2.18,0,0,0-2.09-2.3,39,39,0,0,0-6.18-.71c-6,.2-12-.59-18,.34a5.31,5.31,0,0,1-5-1.81c-1.11-1.19-2.3-2.3-3.43-3.46v-1.39c.37-.28.88-.48,1.08-.85,5.75-10.71,14-19.5,22-28.46.63-.68,1.17-1.44,1.82-2.09A5.78,5.78,0,0,0,26.65,167c.17-12.16,3.23-23.78,7.11-35.21,1.82-5.24,4-10.34,6.07-15.5,4.9-12.42,12.53-23.19,20.35-33.82A21,21,0,0,1,64.49,78c2.41-1.76,2.18-3.48,1.16-5.92-2.1-5.13-4.42-10.15-5.22-15.76a64.26,64.26,0,0,1,2.41-28.83,19.63,19.63,0,0,1,7.49-10.55A9,9,0,0,1,80.05,16a21.14,21.14,0,0,1,8,6.46c1.82,2.38,3.57,4.79,5.73,7.71,1-2.47,1.73-4.51,2.61-6.46,3.74-8.36,8.5-15.82,16.32-21.15,5.16-3.51,9.93-3.29,14.83-.08a19.71,19.71,0,0,1,8.67,11.31c.34,1.13.65,2.24,1,3.34,1.72,5.81,1.67,5.73,6.49,2.58C153,13.62,163,12,173.54,15.37a14.3,14.3,0,0,1,10.23,11.26,13.56,13.56,0,0,1-1.42,8.7c-2,4.22-4.87,7.85-7.57,11.59-2.26,3.12-1.47,6,2.16,6.72,5,1,9.78,2.78,14.65,4.17A41.36,41.36,0,0,1,203.9,64c12.24,8.33,23.75,17.71,36.39,25.45,8,4.88,16.56,8.31,25.17,11.6,6,2.32,12.7,2.66,19.17,2.77,19.92.34,39.79-.36,59.69-1.81,23.79-1.73,47.14-.14,69.51,9.21,10.88,4.54,21.83,8.9,32.29,14.43a67.22,67.22,0,0,1,12.55,8.59c6.13,5.33,12.39,10.46,18.6,15.7,5.5,4.65,10.49,9.7,13.52,16.47,1.3,2.92,3.54,5.42,5.39,8.08a130.24,130.24,0,0,1,20.18,45.38c2.13,9,2.21,18.34,2.35,27.61.12,6.49,0,13,0,19.48a102.48,102.48,0,0,1-2.52,21.34c-5.39,24.83-16.5,47.06-31,67.69-5.67,8.08-13.24,14.32-21.35,19.73a242.51,242.51,0,0,1-45.41,23.73,97.39,97.39,0,0,1-27,6.32c-4.14.4-8.13,1.73-12.36,1.79a11.1,11.1,0,0,0-5.38,1.07c-1.82,1.05-.6,3.4-1.05,5.13a30,30,0,0,1-3.09,7.71,174,174,0,0,1-14.43,20.44c-2.78,3.55-6.72,5.56-11,6.81a15.34,15.34,0,0,1-2.74.42c-2.73.23-4,1.84-4.51,4.37-1.5,7-2.92,14.06-4.71,21-2.21,8.53-3.54,17.24-5.16,25.88a2.55,2.55,0,0,0,.6,2.72c2.52-.51,5.19-1.1,7.85-1.5a13.17,13.17,0,0,1,4.11,0c2.58.45,4.2,2.47,4.62,5.39.31,2.12-1,3.37-2.52,4.5a13.16,13.16,0,0,1-8.39,2.89c-5.76-.14-10,2.38-13.69,6.66-3.18,3.69-7,6.78-10.41,10.24a43.73,43.73,0,0,1-7.82,5.75,12,12,0,0,1-3.86,1.48,2.86,2.86,0,0,1-3.31-3.35c.42-3.12,2.12-5.61,4.08-7.91s4.08-4.33,6.09-6.46c-.53-1.73-1.84-1.11-2.86-1.11-4.62,0-9.27.17-13.89,0a38.51,38.51,0,0,1-6.15-1c-1.36-.23-3-.43-3.32-2-.42-2.16,1.59-2.55,3-3.24a66.72,66.72,0,0,1,27.24-7.31c2.3-.08,4.59-.28,6.75-.4,1.93-3.57,1.95-7.34,2.55-10.94,2.1-13,5.41-25.82,8.33-38.66,0-.23.12-.45.17-.68.54-2,1.36-4.11.77-6.12-.68-2.24-3.29-2.3-5-3.43-8-5.56-16-11.23-21.21-19.73a2.92,2.92,0,0,0-3.37-1.56c-5.72.71-11.39,2-17.23,2-6.47-.06-13,.34-19.31-1.5-1.64-.48-3.14-.51-4.14,1.33-3.28,6-9,9.27-14.76,12.19-6.38,3.26-12.62,7-20.24,7.34A247.62,247.62,0,0,0,218.18,471c-.45,2-1.87,4.39,1.9,4.68Z"/><path class="cls-2" d="M220.08,475.64a2.16,2.16,0,0,1-2.21,1c-1.13-.29-1-1.25-.88-2a6.3,6.3,0,0,1,1.19-3.66c.6,1.59-.08,3.68,1.9,4.68Z"/><path class="cls-3" d="M204.38,399c-9.1-5-17.75-10.8-27.58-14.55a116.09,116.09,0,0,1-34-19.87,116.9,116.9,0,0,0-13.69-9.46,114.65,114.65,0,0,1-27.3-23.48c-6.94-8.1-13.58-16.44-20.15-24.83A97.4,97.4,0,0,1,70.1,287.9q-9.87-21.09-19.84-42.1c-4.93-10.31-7.43-21.37-10-32.4A1.73,1.73,0,0,1,41.87,211c3.23-.31,6.43-.76,9.66-.93a12.4,12.4,0,0,0,10.29-6.21c4.74-7.45,8.51-15.39,10.12-24.18a9.62,9.62,0,0,0-3.14-9.44,53.62,53.62,0,0,0-10.66-7.74c-6.55-3.46-13.24-3.82-20-.51-1.44-1.1-.85-2.61-.62-3.82A109.33,109.33,0,0,1,40.22,146c5-16,10.66-31.61,20.21-45.56A37,37,0,0,1,65.68,94c4.17-3.88,6.49-8.93,8.56-14.15a4.74,4.74,0,0,0-.68-5.15c-7.48-9.25-6.61-19.9-4.88-30.53a48.07,48.07,0,0,1,5-15.11A2.54,2.54,0,0,1,77.19,28a11.3,11.3,0,0,1,3.6,3.2C85.46,36.89,87.9,43.55,89,50.81c.37,2.49.8,5,1.19,7.54a8,8,0,0,0,.48,2A4,4,0,0,0,96.83,62a8.18,8.18,0,0,0,3.54-7.11,73.11,73.11,0,0,1,2.5-17.83,64.51,64.51,0,0,1,6.38-15.36,26.26,26.26,0,0,1,5.61-7c3.71-3.2,7.94-2.63,10.69,1.45A14.58,14.58,0,0,1,128,22.57c.6,5.05,1.45,10.07.88,15.2A13.08,13.08,0,0,0,129.4,44c1,2.63,3.26,3.26,5.53,1.78a11.52,11.52,0,0,0,4-4.7,39.08,39.08,0,0,1,2.29-4.28c2.67-3.94,6-7,10.69-8.42,6.32-1.87,12.64-2.95,19.1-.82,2.1.71,2.73,1.78,1.65,3.57a77.13,77.13,0,0,1-4.91,7.57c-1.75,2.43-3.74,4.73-5.72,7a8.09,8.09,0,0,0-2,5c-.2,2.78.51,5,3.12,6.4,2.46,1.34,4.84,2.64,7.79,2.5,4.59-.23,8.59,1.47,12.36,3.94q7.28,4.71,14.26,9.86c13.41,9.92,26.53,20.27,40.9,28.78a138.13,138.13,0,0,0,25.94,11.56,56.32,56.32,0,0,0,17.09,2.69c15.54.37,31.07.46,46.58-.56,11.79-.77,23.58-1.08,35.4-1.28a119.47,119.47,0,0,1,48.08,9c10.28,4.22,20.57,8.36,30.41,13.55a58.38,58.38,0,0,1,11.54,7.68c10.26,9,20.66,17.89,31.55,26.16,5.41,4.14,10.06,8.93,11.85,15.82,4.82,5.7,6.2,12.76,7.56,19.76.77,3.85,1.05,7.82,1.71,11.7,2.83,17.24,2.43,34.62,2.32,52A76.35,76.35,0,0,1,505.9,288c-5.5,21.83-15.28,41.7-28,60.13-6.29,9.09-14.79,16-24.38,21.4-8.24,4.65-16.78,8.84-25.25,13.06-12,6-24.66,9.22-37.87,10.8-4.82.6-9.64,1.2-14.43,1.9-5.56.8-10.21,4-11.42,9.76-2.36,11.16-9.5,19.41-16,28.11a6.31,6.31,0,0,1-3.26,2.5c-7.35,2.13-14.49,2.81-21.18-2.21-5.75-4.34-11.76-8.42-15.22-15-2.89-5.41-7.63-6.35-12.93-6-5.78.32-11.45,1.62-17.26,1.79-8.25.25-16.13-.79-23.73-4.08a33.32,33.32,0,0,0-14.85-2.92c-2.55.08-5.1-.12-7.65-.2-1.22-.09-3.38-2-2.89,1.42,6,3.85,12,7.68,18,11.59a1.3,1.3,0,0,1,.08,2.27,39.47,39.47,0,0,1-5.21,3.4c-3.46,1.81-6.92,3.68-10.52,5.16-8.39,3.4-16.61,3.71-24.12-2.33a54.62,54.62,0,0,1-6.1-5.58c-5.5-6-9.32-12.95-12.64-20.81,2.64-.9,4.88-.17,7.06-.28s4.59-.25,6.92-.4c.79-.62,3-.48,1.33-2.43Z"/><path class="cls-4" d="M51.28,190c-5.27,1.61-10.55,3.23-15.85,4.82-5.61,1.67-10.09,1.81-16.64.48,1.7-3.17,4.23-5.53,6.35-8.16,3.77-4.65,8.08-8.82,11.65-13.67s8.85-6.18,14.83-4.7c4.9,1.22,8.56,4.42,12.39,7.34a3.09,3.09,0,0,1,1.16,3.09,29.43,29.43,0,0,1-.85,3.32c-1.59,5.61-4.51,10.6-7.09,15.73-.74,1.47-1.73,2.89-3.48,3.06-4.14.37-8.2,1.47-12.39,1.1a2.33,2.33,0,0,1-2.44-2,2.27,2.27,0,0,1,1.39-2.81,56.34,56.34,0,0,0,12.27-6.26c.94-1.73-.14-1.59-1.3-1.36Z"/><path class="cls-5" d="M229.61,408.43a5.61,5.61,0,0,1-3.52-1.73c2.78-1.11,2.78-1.11,6.41.31-1,.45-2.24.31-2.89,1.42Z"/><path class="cls-6" d="M204.38,399a4.47,4.47,0,0,1,3,1.27,1.24,1.24,0,0,1,.32.51c.17.54-.06.82-.68.8-1.31,0-2.64-.09-3.94-.15.42-.82.87-1.64,1.33-2.43Z"/><path class="cls-7" d="M51.28,190a11.84,11.84,0,0,1,2.21-1.13,1.07,1.07,0,0,1,1.45.7,1.35,1.35,0,0,1-.63,1,8.74,8.74,0,0,1-1.73.77c-.42-.45-.85-.91-1.3-1.36Z"/><path class="cls-1" d="M211.92,149.25c-.37,5.05-.54,10.12-1.67,15.14a26.49,26.49,0,0,1-12,17.12,97.93,97.93,0,0,1-16.49,8.76c-12.25,4.91-24.75,5.78-37.28,1.56-14.2-4.82-23.78-14.65-29.25-28.54a48.53,48.53,0,0,0-1.65-4.57c-3.2-6.09-2.83-12.56-2-19A57.16,57.16,0,0,1,124,111.53a95.75,95.75,0,0,1,8-9.53c6.26-6.06,13.94-9.75,22.19-12.33a9.18,9.18,0,0,1,6.1-.11,20,20,0,0,0,4.76.65c16.3,1.59,28.86,9.1,36.94,23.53,3.14,5.64,6.2,11.31,7.88,17.68a55.8,55.8,0,0,1,2,17.83Z"/><path class="cls-8" d="M300.73,301.28a187.13,187.13,0,0,0,27.92,10.2c18.54,5,37.08,4.85,55.64.88a247.52,247.52,0,0,0,42.86-13.63,56.42,56.42,0,0,0,20.33-14.15,36.11,36.11,0,0,0,5.86-8.56c2.84-5.87,3.92-11.76.69-17.94a43.69,43.69,0,0,1-3.12-7.68c-1-3.29.28-5.45,3.57-6.27,1.78-.43,3.66-.54,5.47-.88,4.17-.76,6.38-3.57,6.12-7.82a11.88,11.88,0,0,0-3-7.57c-.29-1.36.11-2,1.59-1.59,6.17,1.48,8.53,4.11,8.33,9.92-.23,5.62-2.5,10.29-7.46,13.35a20.19,20.19,0,0,1-3.71,1.88c-1.76.62-1.81,1.87-1.45,3.31.32,1.14.77,2.18,1.14,3.29,2.63,8,1.05,15.56-2.78,22.76-4.11,7.74-10.37,13.58-17.38,18.65a64.26,64.26,0,0,1-13.91,7.71,264.25,264.25,0,0,1-46.32,14.29,82.12,82.12,0,0,1-34.41-.23,165.78,165.78,0,0,1-44.2-16.07c-1.19-.68-2.32-1.5-3.48-2.27-.17-1.33.11-2.15,1.7-1.58Z"/><path class="cls-9" d="M412.78,353a27.84,27.84,0,0,1,8.19.94,21.49,21.49,0,0,0,6.18.42c3.66,0,6.64,1.84,9.5,3.77,1.61,1.11,1.67,3.32.31,4.91a5.55,5.55,0,0,1-4,2.4c-2.3,0-4.77.46-6.89-.17-6.15-1.87-12.45-3.4-18.14-6.54a11.65,11.65,0,0,1-1.76-1.11,2.32,2.32,0,0,1,.54-4A14.33,14.33,0,0,1,410,353a23.47,23.47,0,0,1,2.78,0Z"/><path class="cls-10" d="M154.63,287.13c-1.56,1.08.08,3.26-1.39,4.34a6.7,6.7,0,0,1-5.19,1.59,10.12,10.12,0,0,1-5-2.33c-5.72-5.1-11-10.63-14.08-17.83-.49-1-1.14-2.12-.77-3.29s.77-2.43,1.59-2.94c1.36-.85,1.84.68,2.38,1.61,1.33,2.24,3.37,3.71,5.27,5.42,5.05,4.42,11.28,7.2,16,12,.45.46,1.27.54,1.16,1.42Z"/><path class="cls-10" d="M358.21,297.17a12.48,12.48,0,0,1-6-.91c-11.49-3.69-22-9.44-32.26-15.56A13.46,13.46,0,0,1,315,276c-.19-.34-.22-1.1,0-1.27a4.12,4.12,0,0,1,1.78-.8,2.06,2.06,0,0,1,1.28.43c8.1,5.5,17.66,7.74,26.36,11.88,4.14,1.95,8.65,3.17,12.36,6a12.66,12.66,0,0,1,2.44,2.41,2.47,2.47,0,0,1,.14,1.87c-.06.31-.68.54-1.11.68s-.9.08,0,0Z"/><path class="cls-10" d="M113.19,299.32c-1.56,1.59-3,2.24-5.08,1.33-3.88-1.75-7-4-9.1-8-3.23-6.07-7.2-11.74-10.85-17.6a32.56,32.56,0,0,1-1.67-2.95c-.37-.8.51-2.21,1.27-2,1.9.57,4,.51,5.5,2.39,4.45,5.55,9.1,10.94,13.89,16.21,2.66,2.95,4.08,7.06,6,10.6Z"/><path class="cls-9" d="M117.27,273a8.12,8.12,0,0,1,1.84,1,96.5,96.5,0,0,0,9.92,8.59c4.71,3.54,7.74,8.5,10.6,13.55a6.42,6.42,0,0,1,.69,1.93,2.68,2.68,0,0,1-3.09,3.4,11.51,11.51,0,0,1-5.59-2.58,19.57,19.57,0,0,1-2.49-2.41,103.46,103.46,0,0,1-12.73-18c-.65-1.25-1.28-2.55-.54-3.94a7.5,7.5,0,0,1,1.39-1.53Z"/><path class="cls-9" d="M269.89,141.57c5.13-.17,10,1.36,14.88,2.47,3.46.76,5.5,3.23,7.57,5.7a1.42,1.42,0,0,1-.68,2.26c-3.83,1.7-7.63,2.81-11.94,1-4.87-2-10.17-3-14.85-5.56-1.39-.79-3-1.39-2.83-3.43.14-1.53,1.64-2.33,4.39-2.44,1.16-.06,2.32,0,3.46,0Z"/><path class="cls-9" d="M230.12,379.12c6.15,1.1,12.72,2.09,19.19,3.48,2.61.57,5.5,1.14,7.08,3.8a2,2,0,0,1,0,2.55c-1.61,1.76-3.65,3.21-6,2.64-6.89-1.7-13.84-3.37-20.07-7a11.35,11.35,0,0,1-2.58-2.27,1.91,1.91,0,0,1-.29-2.53,2,2,0,0,1,2.7-.7Z"/><path class="cls-10" d="M285.51,166.43c-4.54.54-7.37-.85-10.24-1.56-5.84-1.44-11.17-4.3-16.35-7.37a1.27,1.27,0,0,1-.6-1.75,3,3,0,0,1,1.56-1.17,7.76,7.76,0,0,1,2,.34c5,.77,9.87,2.1,15,2.1,3.15,0,6.29,1.19,9.41,1.93a5.28,5.28,0,0,1,1.81,1c2.47,1.73,2.13,4.82-.71,6a5.31,5.31,0,0,1-1.89.48Z"/><path class="cls-9" d="M432.17,343.26c2.1,0,4.17,0,6.26,0a10.86,10.86,0,0,1,7,2.64c1.24,1,2.46,2.24,2.15,4.08a5.39,5.39,0,0,1-3.51,4,6.13,6.13,0,0,1-4.77.11c-4.9-2-9.72-4.28-14.57-6.46a2.07,2.07,0,0,1-1.07-.83,2.75,2.75,0,0,1-.46-1.9c.14-.56.85-1.33,1.33-1.36,2.53-.14,5.08-.08,7.63-.08v-.17Z"/><path class="cls-10" d="M253.59,380.73c.22,0-.29.12-.71,0-6.38-1.9-12.87-3.48-18.8-6.71-.9-.51-1.47-1.25-1.13-2.22a2.12,2.12,0,0,1,2.69-1.55c3.15,1.13,6.41.56,9.59.9,3.85.43,7.71,1.11,11.53,1.87a8.84,8.84,0,0,1,3,1.56,2.84,2.84,0,0,1-.22,5.05,10.06,10.06,0,0,1-6,1.13Z"/><path class="cls-10" d="M375.11,291.87c-3.15.36-6-.88-8.7-2-4.74-2-8.62-5.3-12.42-8.64a2.24,2.24,0,0,1-.31-1.9,1.58,1.58,0,0,1,2.12-1.16c5.53,1.64,11,3.26,16.47,5.13a15.44,15.44,0,0,1,7.35,5,1.82,1.82,0,0,1-1.08,3.12c-1.13.23-2.3.31-3.43.43Z"/><path class="cls-9" d="M243.89,246.51a9.39,9.39,0,0,1-2-.71c-5.18-3-10.2-6.2-14.11-10.88a6.87,6.87,0,0,1-.69-1.19,2.2,2.2,0,0,1,1.85-3,3.12,3.12,0,0,1,1.36,0c5.44,2.33,11.25,4,15.79,8.17a6.15,6.15,0,0,1,1.67,2.89c.79,2.46-.65,4.56-3.83,4.73Z"/><path class="cls-10" d="M434.75,179.13c1.13,0,2.3.09,3.46,0,3.46-.31,5.53,1.84,7.4,4.25a3,3,0,0,1,.08,3.86,22.76,22.76,0,0,1-3.37,3.43,2.28,2.28,0,0,1-2.58.34,62.8,62.8,0,0,1-12.56-7.12,2.23,2.23,0,0,1-1.05-2.38,2.7,2.7,0,0,1,2.41-2.15c2.07-.17,4.14-.06,6.21-.06v-.17Z"/><path class="cls-10" d="M438.09,165.21c.86,1.36,2.3,1.22,3.63,1.51,2.75.59,4.14,2.6,5.13,5a2.94,2.94,0,0,1-.22,2.61c-1.7,3.2-6,4.42-8.76,2.24a41.28,41.28,0,0,1-5.39-5.27c-2.27-2.58-1.22-5.3,2.21-6a23,23,0,0,1,3.43-.12Z"/><path class="cls-11" d="M253.67,231.46c-.25,1.53-4,3.43-5.78,2.64-2.92-1.34-5.78-2.84-8.59-4.45-1.27-.71-1.27-2.41-.31-3.6a6,6,0,0,1,4.76-2.39,10.35,10.35,0,0,1,9.75,6.47,6.2,6.2,0,0,1,.17,1.33Z"/><path class="cls-10" d="M447.42,330.7c3.88,0,6.46-.31,8.48,1.84,1.53,1.68,2,3.43.93,5-1.33,2-3.57,3.32-5.19,2.58-3.14-1.42-6.2-3-9.21-4.7a2.08,2.08,0,0,1-1-2.41,2.52,2.52,0,0,1,1.84-1.85c1.81-.31,3.66-.39,4.11-.45Z"/><path class="cls-11" d="M267.62,364.83a4.18,4.18,0,0,1-.68,1.16c-2.1,1.45-4.2,2.72-7,1.62-1.45-.6-3.15-.51-4.71-.85a9.77,9.77,0,0,1-4.9-2.36,1.62,1.62,0,0,1,.4-2.32,5.44,5.44,0,0,1,1.9-.65c3.45-.09,6.91-.06,10.37,0a5.23,5.23,0,0,1,4.11,2.21,4.35,4.35,0,0,1,.54,1.22Z"/><path class="cls-10" d="M377.6,275.2c-4.14-.82-7.88-2.35-10.77-5.53-.45-.48-.85-1.25-.31-1.84a2.42,2.42,0,0,1,1.64-.94c4.6.17,9.07.94,12.7,4.06a2.74,2.74,0,0,1,1,1.67c.11,1-.71,1.64-1.56,2a20.74,20.74,0,0,1-2.67.6Z"/><path class="cls-10" d="M438.12,165.24c-1.61-1.93-3.29-3.8-4.82-5.78a2.84,2.84,0,0,1,2.24-4.51,9.57,9.57,0,0,1,2,.23c2.89.51,5.67,1.73,5.84,4.87s-2.16,4.82-5.28,5.16Z"/><path class="cls-11" d="M232,252.61c-.14,1.27-2.1,1.92-3.35,1.07a40.39,40.39,0,0,1-6.83-6.69,1.61,1.61,0,0,1-.37-.56c-.42-1.48-2.86-2.87-1.84-4,1.67-1.81,3.09.68,4.62,1.42a23,23,0,0,1,7.17,6.23,2.59,2.59,0,0,1,.6,2.53Z"/><path class="cls-10" d="M271.81,134.57c-1.16,0-2.29.06-3.45,0s-2.3-.65-2.41-1.95a2.77,2.77,0,0,1,2.15-3.12,24.38,24.38,0,0,1,4.76-.46,10.33,10.33,0,0,1,6.41,2.16,1.24,1.24,0,0,1-.11,2.18c-2.3,1.45-4.82,1.28-7.35,1.19Z"/><path class="cls-12" d="M300.73,301.28c-.57.54-1.14,1.05-1.7,1.58a26.09,26.09,0,0,1-9.73-6.94c-.34-1.28,0-2,1.45-1.39l10,6.75Z"/><path class="cls-13" d="M290.75,294.53c-.48.45-1,.94-1.45,1.39a17.76,17.76,0,0,1-5.81-5.47,1.12,1.12,0,0,1,.06-1.08c.25-.23.79-.17,1.19-.14.17,0,.34.26.51.4,1.81,1.64,3.66,3.26,5.5,4.9Z"/><path class="cls-14" d="M464.66,226.27c-.54.51-1.05,1-1.59,1.59a12.09,12.09,0,0,1-1.62-1c-.28-.23-.37-.71-.57-1.11.54-.23,1.11-.73,1.56-.62a9.9,9.9,0,0,1,2.22,1.13Z"/><path class="cls-15" d="M173.59,144.46c-5.52-.65-11-4.56-14.11-11.33-3.57-7.74-3.09-15.82-.31-23.64,2-5.67,11.31-10.32,17.2-9.13,7.32,1.5,13.61,5.13,17.77,11.19,7.23,10.52,5.39,18.49-3.43,27.1-3.94,3.86-9.24,6.13-17.12,5.81Z"/></g></g></svg>