<svg xmlns="http://www.w3.org/2000/svg" viewBox="0 0 505.89 567.5"><defs><style>.cls-1{fill:#543828;}.cls-1,.cls-10,.cls-11,.cls-12,.cls-13,.cls-14,.cls-15,.cls-16,.cls-17,.cls-18,.cls-19,.cls-2,.cls-20,.cls-21,.cls-22,.cls-23,.cls-24,.cls-25,.cls-26,.cls-27,.cls-28,.cls-29,.cls-3,.cls-30,.cls-31,.cls-32,.cls-33,.cls-34,.cls-35,.cls-36,.cls-37,.cls-38,.cls-39,.cls-4,.cls-5,.cls-6,.cls-7,.cls-8,.cls-9{fill-rule:evenodd;}.cls-2{fill:#967868;}.cls-3{fill:#674939;}.cls-4{fill:#745646;}.cls-5{fill:#725141;}.cls-6{fill:#775a4a;}.cls-7{fill:#886e5f;}.cls-8{fill:#866a5c;}.cls-9{fill:#917a6c;}.cls-10{fill:#998174;}.cls-11{fill:#866858;}.cls-12{fill:#9c8072;}.cls-13{fill:#8e7465;}.cls-14{fill:#9e897c;}.cls-15{fill:#997f71;}.cls-16{fill:#a5978f;}.cls-17{fill:#b3a298;}.cls-18{fill:#7e5f50;}.cls-19{fill:#735849;}.cls-20{fill:#fbb157;}.cls-21{fill:#fff;}.cls-22,.cls-23{fill:#f29e32;}.cls-23{stroke:#f29e32;stroke-miterlimit:10;stroke-width:0.2px;}.cls-24{fill:#7c5f4c;}.cls-25{fill:#785541;}.cls-26{fill:#c3a688;}.cls-27{fill:#593d2c;}.cls-28{fill:#5e402f;}.cls-29{fill:#644635;}.cls-30{fill:#6a4d3b;}.cls-31{fill:#745540;}.cls-32{fill:#82614d;}.cls-33{fill:#927059;}.cls-34{fill:#d3aa7a;}.cls-35{fill:#dfdfde;}.cls-36{fill:#e0e0df;}.cls-37{fill:#e8cba9;}.cls-38{fill:#fbe85d;}.cls-39{fill:#a8845a;}</style></defs><title>Asset 2</title><g id="Layer_2" data-name="Layer 2"><g id="Layer_1-2" data-name="Layer 1"><path class="cls-1" d="M35.72,235.27c6.46-4.51,13.55-7.88,20.69-11.06,2.64-1.19,4.05-2.44,4.14-5.5a106.94,106.94,0,0,1,2.63-19.16,40.18,40.18,0,0,0,.43-4.54l-19.42,1.22c-1.64.23-3.77,1.87-4.34-1.33a88.61,88.61,0,0,1,16.36-3c2.3-.23,4.56-.54,6.86-.88a2.93,2.93,0,0,0,2.5-2.1Q67.73,182,69.9,175c.4-1.19-.48-1.78-1.36-1.95-3.17-.6-6.35-1.14-9.55-1.54-14.68-1.78-29.34-3.88-44.11-4.84-.08-1.65,1-1.85,2.24-1.82,6.69.26,13.38-.71,20,.51a194.74,194.74,0,0,1,28.35,2.44c1.39.2,2.78.37,4.14.54,1.81.23,3.06-.26,3.65-2.27.71-2.44,1.79-4.76,2.64-7.14,5.47-15.62,13.83-29.79,22.34-43.85,1.75-3,4.28-5.45,6.69-8.48-.85-1.36-1.76-2.89-2.7-4.39a61.27,61.27,0,0,1-7.85-19.9c-1.81-8.36-3.77-16.7-5-25.2C87.76,45.57,88.1,34,88.55,22.44,88.87,14,92.78,7.45,100.06,3c2.61-1.61,5.3-2.89,8.42-2.91,7,0,13.89-.17,20.84,0,4.67.12,9.1,1.73,13.32,3.69C156,9.91,168.66,17,178.38,28.36c1.05,1.22,2.33,2.27,3.49,3.38s2.44,2.18,3.52,3.37,1.87,2.44,3,3.91c1.39-.9,2.81-1.67,4.08-2.63a49.56,49.56,0,0,1,24.27-9.5L231.87,25c17.78-2.21,35.61-1.45,53.44-1.05a38.71,38.71,0,0,1,10.91,2c7,2.24,14.09,4.48,20.69,7.88,2.27,1.16,4.77,1.84,7,3.09,3,1.75,5.16,1.3,7.68-1.31,10.26-10.6,22.68-18.25,35.66-25a78.25,78.25,0,0,1,21-6.83C396.42,2.2,404.5.08,412.92.05a45.31,45.31,0,0,1,17.61,3.4,28,28,0,0,1,15.81,15.79A48.76,48.76,0,0,1,449,48.52a174.33,174.33,0,0,1-12.7,35.89c-6.35,13.49-14.8,25.65-23.24,37.81-2.21,3.2-5.13,5.9-7.71,8.82,1.78,3.45,3.82,6.77,5.3,10.34,3.09,7.49,5.86,15.08,8.78,22.62.4,1.08,1,2.13,1.31,3.23.57,1.9,1.93,2.33,3.71,2.33,3.94,0,7.88.08,11.82.2a36.48,36.48,0,0,1,9.58,1.44c-1.22,3.55-3.77,1.56-5.89,1.42-5.19.43-10.46-.54-15.51.85-.88,2,.4,3.32,1.05,4.62,4,8.25,8.31,16.36,12.13,24.66,1.76,3.8,4.14,6.41,8.22,7.37,1.59,2.87-4.39.94-2.55,4,6.27,9.78,13.64,18.65,21,27.61,8.73,10.6,16,22.08,20.78,35.09,1.55,4.34,3.4,8.59,5.16,12.87a228,228,0,0,1,15,59.73,159.56,159.56,0,0,1,.68,18.06c.06,9.72,0,19.44-.25,29.16a217.42,217.42,0,0,1-3.24,29.68c-.88,5.25-1.78,10.49-2.8,15.73a144.83,144.83,0,0,1-10.43,32.29c-8.25,18.17-19.34,34.24-35.89,46a56.14,56.14,0,0,1-10.72,6.35c-5.78,2.4-11.28,5.32-16.83,8.13-3.55,1.79-7.09,3.35-11.14,3.49-1.85,0-3.63.85-5.45,1-3.06.28-5.07.93-5.24,4.85a9.68,9.68,0,0,1-5.24,7.76c-4.23,2.41-8.37,5.19-12.9,6.75-9.81,3.37-19.65,6.8-30.11,8a127.33,127.33,0,0,1-36-1,36.3,36.3,0,0,1-15.16-6.58,22.23,22.23,0,0,1-7.34-8.13,2.84,2.84,0,0,0-3.38-1.67c-12.67,2.26-25.42,1.36-38.15,1.22-6.92-.12-13.83-1.14-20.75-1.68-12-.93-23.92-2.55-35.46-6.21a4.94,4.94,0,0,0-4.54.8,84.64,84.64,0,0,1-42.15,14.4c-6,.4-12,1.08-17.94,2-14.85,2.36-28.38-1.5-41.56-8-11.73-5.76-10.94-22.79-2.55-28.69,5.33-3.68,10.23-8,16.44-10.2a30.26,30.26,0,0,0,3.32-1.71,163.44,163.44,0,0,1-13.55-15.1C86,482.36,78.41,466.86,73.3,450.08,69.36,437.21,67,424,65,410.73c-.91-5.92-1.9-11.88-3.21-17.74-3.26-14.89-3.28-29.88-1.61-44.93,1.39-12.19,2.92-24.38,4.76-36.51,1.56-10.27,3.06-20.64,7.43-30.22A3.62,3.62,0,0,0,72,277.5c-2-3.4-4.08-6.74-5.87-10.23a59.3,59.3,0,0,1-6.57-28.09c0-3.69.14-7.37-.2-11.48-8.14,1.9-14.71,6.4-22.11,8.9-1.5.68-1.7-.12-1.5-1.33Z"/><path class="cls-2" d="M37.16,165.36c-4.31.65-8.64.15-13,.2-3.12,0-6.41-1-9.3,1.11-4.14.08-8.3.22-12.44.28A15.18,15.18,0,0,1,0,166.41c2.41-1.59,4.76-1.73,6.94-1.93,9.44-.82,18.91-.25,28.38.09.62,0,1.22.51,1.84.79Z"/><path class="cls-3" d="M439.94,172.62c1.92-.68,4.25.37,5.89-1.42,3.4-.56,6.52.8,9.75,1.42a.84.84,0,0,1,.34.94c-.08.31-.19.45-.31.45-5.21-.4-10.51,0-15.67-1.39Z"/><path class="cls-4" d="M443.28,214.09c-1.44-2-1.47-2,.23-2.72.85-.34,1.78-.4,2.32-1.25,3,.26,5.64,1.7,8.31,2.95.17,1.33-.29,1.93-1.67,1.33-2.16-.54-4.34-1.1-6.52-1.56-1.14-.25-2.27-.22-2.67,1.25Z"/><path class="cls-5" d="M39.85,194.9c1.14,1.47,2.9.85,4.34,1.33-3,1.85-6.35,1.05-9.52,1.53-1.28.12-3,1.28-3.09-1.36,2.8-.22,5.3-2.12,8.27-1.5Z"/><path class="cls-6" d="M35.72,235.27c.51.42,1,.87,1.5,1.33-2,1.93-4.56,2.92-7,4.11-1.5.56-1.76-.17-1.5-1.42,2.21-1.59,4.31-3.34,7-4Z"/><path class="cls-7" d="M31.58,196.4c.79,1,2,.94,3.09,1.36-3.21,1.65-6.83,1.48-10.21,2.36-.45-.29-.62-.6-.48-.88s.34-.46.48-.46c2-1.78,4.68-1.72,7.12-2.38Z"/><path class="cls-8" d="M452.47,214.4c.56-.45,1.13-.88,1.67-1.33,1.87.88,3.74,1.73,5.64,2.61a1.38,1.38,0,0,1-.09,2l-7.22-3.32Z"/><path class="cls-9" d="M28.69,239.29c.51.45,1,.94,1.5,1.42a8.89,8.89,0,0,1-4.88,2.69,9.34,9.34,0,0,0-1.73.6l-.59-.71a17.07,17.07,0,0,1,5.7-4Z"/><path class="cls-10" d="M23.13,245c-1.45,1.5-2.15,4.08-5.05,3.49.29-2.3,2.44-3.06,3.75-4.48a3.7,3.7,0,0,1,1.16-.68l.54.39a1.65,1.65,0,0,1-.4,1.28Z"/><path class="cls-11" d="M455.61,174a12.73,12.73,0,0,1,0-1.39c2.1-.51,3.72,1,5.59,1.33.4.31.54.65.42,1s-.28.48-.42.48c-1.93-.2-4,.28-5.56-1.39Z"/><path class="cls-12" d="M459.69,217.72l.09-2a8.23,8.23,0,0,1,4.22,2.66,1.7,1.7,0,0,1-2.12.12,1.79,1.79,0,0,1-2.19-.74Z"/><path class="cls-13" d="M461.88,218.46c.71,0,1.41-.09,2.09-.12a5.07,5.07,0,0,1,3.18,2.75,1.27,1.27,0,0,1-1.93.14c-1.1-.93-2.24-1.84-3.34-2.77Z"/><path class="cls-14" d="M461.17,175.4V174c1,.43,2.07.77,3,1.25a1.13,1.13,0,0,1,.37,1,2,2,0,0,1-1.16.51,2.74,2.74,0,0,1-2.24-1.27Z"/><path class="cls-15" d="M18.94,200.29c1-.34,1.89-.71,2.86-1,.4.31.51.59.37.88s-.26.42-.4.42c-.51,1.39-1.76,1.19-2.81,1.33a1,1,0,0,1-.42-1.05c.14-.36.25-.53.4-.53Z"/><path class="cls-16" d="M465.22,221.23c.65,0,1.28-.08,1.93-.14.48.2.71.57.4.91a1,1,0,0,1-1,.31,9.26,9.26,0,0,1-1.33-1.08Z"/><path class="cls-17" d="M18.94,200.29c0,.51,0,1.05,0,1.58-.31.51-.88.71-1.13.26-.6-1.08-.14-1.76,1.11-1.84Z"/><path class="cls-18" d="M21.77,200.54a4.34,4.34,0,0,0,0-1.3c.88-.14,1.78-.29,2.66-.46a10,10,0,0,1,0,1.34l-2.69.42Z"/><path class="cls-19" d="M23.13,245a5.42,5.42,0,0,1,.4-1.28c.59-.08,1.19-.17,1.78-.28-.73.51-1.44,1-2.18,1.56Z"/><path class="cls-20" d="M102.42,179.45c6.88.17,13.29,2.67,19.81,4.54,2.61.73,5.16,1.7,7.74,2.55.57.25,1.19.51,1.7.14.71-.51.06-1-.23-1.42-6.55-4.14-13.89-6.26-21.17-8.53-8-2.47-16.22-3.77-24.32-5.61-.85-.2-1.7-.51-2.84-.85a157.31,157.31,0,0,1,10.29-25.2c3.06-6,6.44-11.77,9.84-17.55a83.59,83.59,0,0,0,7.31-16.47c1-3.2,2.86-6.35-1-9.24-1-.76-1-3-1.39-4.56-1.9-8.59-3.65-17.21-5.7-25.74a172.24,172.24,0,0,1-4.28-43.4,28.43,28.43,0,0,1,1.68-9.52A8.13,8.13,0,0,1,106.38,13a40.65,40.65,0,0,1,5.5-.54c4.2-.06,8.37.09,12.53,0a34.53,34.53,0,0,1,14.83,3,115.71,115.71,0,0,1,21.2,11.76,85.29,85.29,0,0,1,8.39,7.26c2.55,2.38,4.91,4.93,7.37,7.37,1,1,2.27,1.67,2.44,3.23.2,1.93,1.61,2.1,3,1.9,3.89-.57,7.88-.88,11.63-2,16.27-4.93,33-7.28,49.83-8.39,15.25-1,30.56-1.13,45.81.63,7.42.85,14.26,3.8,21.09,6.63,4.9,2.07,9.72,4.34,14.45,6.72,1.79.91,3,.45,4.45-.51a6.8,6.8,0,0,0,3-3.74,4.63,4.63,0,0,1,3-3.43,100.21,100.21,0,0,0,16-9.78,99.33,99.33,0,0,1,44.56-18.06c3.91-.57,7.76-1.33,11.62-2,6.32-1.05,12.44-.17,18.51,1.55C433,16.77,437,22.1,438.83,29.24a37,37,0,0,1-.37,19.87,180.59,180.59,0,0,1-21.34,48.05c-5.36,8.36-10.38,17-17.35,24.24-2.75,2.83-2.81,6.74-4.19,10.15-.26.65-.06,1.38.82,1.41a2.68,2.68,0,0,1,2.8,2.53c2.1,11.19,6.13,21.79,10.26,32.34a6.47,6.47,0,0,1,0,1.79c-2.66.39-5.38.93-8.1,1.21A326.4,326.4,0,0,0,343,182.37c-3.77,1.08-7.37,2.69-11,4.08a12.87,12.87,0,0,1-4.14,2.92c1.67-1.44,4.56-.51,7-1.5,10.72-2.83,21.4-5.67,32.26-7.71s21.77-4,32.8-5.13c3.2-.34,6.4-.77,9.63-1.11a2.93,2.93,0,0,1,3.29,1.85c4.14,9,8.36,18,12.59,26.95.08,2.75-1.56,2.5-3.38,1.93-4.08-.17-8.16-.34-12.24-.54-6-.9-11.93-.34-17.89-.31-3.14,0-5.16-.82-6.49-3.83-2-4.5-6.06-7.37-9.81-11.05-1.47,5.81,5.62,9.75,2.13,15.19l-11,.17c-3.54-1.58-5.07-5.1-7.48-7.76-1.28-1.48-2.55-3.86-4.91-2.47-1.9,1.13-1,3.4-.22,5,2,4.42.14,6.21-4.12,6.63-2.72.12-5.44.23-8.19.37-4,.4-4.33-4-7.39-5.53-.88,2.19,1,4.94-1.14,6.72-1.53,1.31-4.17.91-5.13,3.66,2.32.17,4.37-1.45,6.55-.74,4.45,3.26,5.24,8.42,6.94,13.13,6,3.63,12.9,2.12,19.28,3.06a293.12,293.12,0,0,1,37.67,7.82c2.41.8,4.91,1.39,7.06,2.86-1.73-1.55-4-1.84-6.07-2.74-16-4.85-32.48-7.4-49-9.3-4.65-2.84-4.93-8-6.32-12.45-1.13-3.74,2.5-2.77,4.25-3.65,2.84,0,5.67-.09,8.51-.14,4.65,2,6.6,7.76,11.9,8.73.66-.26,1-.63.91-1.14-.82-8.36-.82-8.56,7.65-8.28,3.86.12,8.22-1.67,11.57,2.19.37.42.85-2.36,2.69-2.27,1.34.08,2.78.28,4.06-.51,9.95-.54,19.84,1,29.76,1.28a5.18,5.18,0,0,1,4.88,3.26c.62,1.24,1.22,2.49,1.84,3.74a126.71,126.71,0,0,0,15.3,23.07c3.15,3.71,6.21,7.48,9.25,11.28,8.42,10.52,15.45,21.86,20.09,34.61,3.75,10.21,8.42,20,11.23,30.56,4.73,17.69,8.25,35.55,7.74,54-.29,9.69.08,19.45-.43,29.14A248.63,248.63,0,0,1,487.84,447c-.82,3.12-2.07,6.09-3.14,9.15-4.34-1.24-3.07-6.09-5.5-8.61-1.05-1.14-1.76-3.29-3.49-2.81-2.38.68-1.33,3-1.16,4.68.48,5.47,5,8.42,7.82,12.44a37.05,37.05,0,0,1-1,4c-4.68,12.21-11.85,22.93-20.07,33-6.15,7.54-14.54,12-22.71,16.72-4.76,2.78-9.89,5-14.79,7.52a23.09,23.09,0,0,1-7.88,2.49,84.83,84.83,0,0,0-17.63,3.63c-4.68-3.35-8.62-7.6-13.55-10.63a62.49,62.49,0,0,0-22.51-8.42,40.79,40.79,0,0,1-4-1.08c-1.19-3.4,1.11-5.72,2.7-8.19,7.9-12.25,9.49-25.77,8.44-39.94-.73-9.89-1-19.81-1.05-29.71,2.38-3.45,3.69-.56,4.14,1.11,1.87,6.8,6.61,10.88,12.3,14.2.54.23.52,1.19,1.28,1.08.28,0,0-.2-.57-.48-.82-.4.29.08-.48-.49-3.66-5.58-3.6-12.89-8.62-17.88-2.63-2.67-4.93-5.56-9.29-4.34-1.87-.82-2.47-2.61-3.38-4.22-22.62-40.65-55.24-67.18-102.33-74.78-51.7-8.31-103.12,30.44-114.35,69.05-.65,2.3-1,5.13-4.08,5.9-2.35-1.34-3.77-1.79-4.31,2-1.1,8.11-1.53,16.24-2.07,24.41,1-.09,2.16-1.22,2.87.45.39,9.24-.6,18.43-.4,27.67.14,7.06,2.13,13.63,3.91,20.35,1.3,4.85,6.18,6.6,8.08,10.77-4.59-.08-9.16.48-13.8-.48-3-.62-6.38.65-9.56,1.16-1.36.23-2.69.68-4,.91a3,3,0,0,1-3.09-1.11c-6.44-7.88-13.78-15-19.65-23.38-11.25-16-18.25-33.76-22.08-52.78-2.32-11.57-3.8-23.3-6.15-34.87a146.57,146.57,0,0,1-3.4-32.37,166,166,0,0,1,1.36-18C72.23,332.49,74,319.91,76,307.32c.71-4.56,1.9-9,3-13.55a13.23,13.23,0,0,1,1.39-2.72c1.72,1.5,3.26,2.81,4.76,4.11,1.33,1.16,2.75,1.65,4.42.68,2.49-1.5,3.46-3.31,3-5.67a17,17,0,0,0-2.92-6.23c-3.55-5.16-7-10.41-10.38-15.62-1-1.56-2-3.15-2.92-4.74-5.86-9.95-7.25-20.86-6.46-32.11.2-2.72-.62-5.87,1.16-8.11s5-2.24,7.6-3c8.81-2.72,17.63-5.5,26.7-7.37a21.15,21.15,0,0,1,2.75-.17c2.33,2.83.43,5.67,0,8.47s-1.78,5.64.74,8.85c3.83-3.23,4.7-7.4,5.53-11.63.48-2.4,0-5.07,2.07-7,4.47-1.81,9.18-1.53,13.86-1.36,2,2.47.08,4.8-.29,7.18-.54,3.51-2.35,7,0,10.63,4.57-4.4,5.82-16.87,2.13-21.09-.4-.46-1.27,0-1.78.48-3.63.05-7.29.08-10.92.11-4.79,1.08-4.76-2.61-4.82-5.39-.08-3-.17-6.77,4.79-6.2,4.14-.31,7.91,1.81,12,2,.12-2.3-1.7-2.35-2.75-2.75-6.86-2.69-14.09-3.71-21.37-4.42-1.59-.14-3.18-.23-4.76-.34-4.48-3.63-1.9-7.23,0-10.86Z"/><path class="cls-21" d="M369.38,429.75a17,17,0,0,0,.14,4.11c1.71,6.1,1.25,12.3,1.39,18.51.09,3.66-.22,7.31.94,10.94a9.93,9.93,0,0,1,.17,4.11c-.85,7.49-1.08,15.08-3.35,22.37a40.41,40.41,0,0,1-5,10.54c-1.92,2.84-3.62,5.84-5.44,8.76-2.52,0-5.07,0-7.59,0a46.7,46.7,0,0,0-22,5.19A95.57,95.57,0,0,0,300.13,536a3.62,3.62,0,0,1-2.92,1.33c-10.17.22-20.32.45-30.47.82-9.75.34-19.39-.91-29-1.87-6.43-.63-13-.4-19.3-1.93-3.15-.76-6.35-1.16-9.5-1.87-5.18-1.16-10.49-2.13-13.46-7.37-9.53-6.89-18.68-14.46-30.84-16.44-4.54-.74-9.07-1.73-13.58-2.61-.17-.14-.34-.42-.51-.42-4.68-.57-7-3.52-8.59-7.66-2.47-6.49-4.51-13-4.73-20s-.06-13.83,0-20.72a14.2,14.2,0,0,1,.71-5.45,9.61,9.61,0,0,0,.39-5.44c-2.15-9.38,0-18,4.57-26.25,1.39-1.13,1.41-2.89,1.9-4.36a96,96,0,0,1,16-30.5,82.94,82.94,0,0,1,12.5-13c9.3-7.59,18.85-14.88,29.82-20a105.63,105.63,0,0,1,26.31-8.39c4.7-.85,9.64-.74,14.43-1.53a13.2,13.2,0,0,1,5.47.4,34.87,34.87,0,0,0,6.18.73c22.85,1.48,43.82,8,62.13,22.34,9.27,7.29,18.66,14.43,26.73,23,7.74,8.25,15,17,19.76,27.41,1.22,2.69,1.36,5.92,3.88,8,.2.17.43.37.66.54a7.13,7.13,0,0,1,.88,4.14,8.27,8.27,0,0,1-.12.85Z"/><path class="cls-22" d="M309.29,552.69a17.82,17.82,0,0,0-.6-3.94c-1.67-4.17.14-7,3.12-9.69a73.6,73.6,0,0,1,18.11-12.62,45,45,0,0,1,21.41-4.71c8.84.32,17.43,1.82,25.34,6a52.79,52.79,0,0,1,7.62,4.8c3.35,2.63,7.12,5,8.34,9.55-2.89,2.89-6.72,3.91-10.41,5.16-8.76,2.94-17.54,5.58-26.76,6.8a106.23,106.23,0,0,1-23.5.42c-6-.5-12-.93-17.94-1-1.61,0-3.23.08-4.73-.74Z"/><path class="cls-22" d="M188.36,534.69c-7.91,4.11-15.65,7.71-24.09,9-11.43,1.67-22.94,2.77-34.42,4.05s-22-2.18-32.08-7c-3.63-1.73-4.26-5-1.56-7.91a27,27,0,0,1,8.45-6c5.86-2.81,12.16-4.34,18.34-6.24,10.65-3.26,21.4-3.06,32.23-1,1.36.29,2.74.46,4.1.68,11.09,1.65,20.47,6.66,29,14.46Z"/><path class="cls-20" d="M85.61,214c-4.17,1.33-8.37,2.66-12.56,4-1.45.45-2.5-.23-2.3-1.51,1-6.4,1.62-12.84,3.23-19.13.69-2.78,2.41-3,4.65-2.81,16.39-1.5,14.94-.42,10.12,12.05-1,2.5-1,5.39-3.14,7.43Z"/><path class="cls-20" d="M80.14,190.28a9.39,9.39,0,0,1-2,.08c-.9-.11-2-.39-1.64-1.58,1.22-3.91,2.52-7.8,3.86-11.65a2.63,2.63,0,0,1,3.2-1.85c3.6.63,7.17,1.31,10.74,2,1.33.25,2.67.59,4,.91,2.35,7.65-.23,11.45-7.85,11.65-3.43.08-6.89-.54-10.26.45Z"/><path class="cls-20" d="M103.83,194.53c2.75.11,5.5.26,8.25.4,3.18,4.87,1.7,9.27-1.5,13.46a83.76,83.76,0,0,1-16.53,3.15c-1.36-5.53,1.53-10.18,3.38-15,1-2.69,3.68-3.09,6.4-2Z"/><path class="cls-22" d="M103.83,194.53c-3.43.11-5.27,1.5-5.92,5.25-.74,4-2.52,7.85-3.86,11.76-2.58,1.62-5.55,1.9-8.44,2.44a25.85,25.85,0,0,1,2.69-12c1-2.07,2.12-4.08,1.84-6.72-3.77-1.1-7.71.09-11.51-.74a9.2,9.2,0,0,1,2.58-.82c6.92,0,13.81.06,20.7.14a6,6,0,0,1,1.92.71Z"/><path class="cls-22" d="M377.66,204.11c.42-2.49-1-4.45-2-6.52a34,34,0,0,1-3.45-9.75c-.15-.88,0-2,1.1-2.21a2.41,2.41,0,0,1,1.87.48c3.52,3.35,6.95,6.78,10.38,10.24a4.36,4.36,0,0,1,1.47,2.29c.28,4.2,3,4.51,6.29,4.37,4.17-.17,8.34,0,12.5,0,1.39,0,2.78,0,3.86,1.13Z"/><path class="cls-22" d="M116.31,211.45c-.15,3.69-.12,7.29-1,11a25.46,25.46,0,0,1-4.67,9.1c-.66.91-1.53,1.84-2.89,1.48s-1.68-1.59-2-2.64a13.78,13.78,0,0,1-.08-7.51c.73-3.37,2.32-6.55,2.32-10.09a14.63,14.63,0,0,1,8.34-1.34Z"/><path class="cls-22" d="M130.2,207.29a10.74,10.74,0,0,1,.82-2.61,2.23,2.23,0,0,1,1.61-1.05,2,2,0,0,1,1.48,1.11,39.7,39.7,0,0,1,1.39,17.09,14,14,0,0,1-5,9.75c-2.86-2.27-4.34-4.65-3.57-8.79.82-4.33,2.38-8.42,3.26-12.7,1.22-.9,1.19-1.84,0-2.8Z"/><path class="cls-22" d="M395.72,207.43c-1.22,2-4.28.17-5.22,2.61-.48,1.22-.88,2-2.27.68a8.37,8.37,0,0,0-6.32-2.18c-3.63,0-7.28,0-10.94,0-.94,2.29.08,3.88.45,5.58a25.84,25.84,0,0,1,.74,4c.17,2.12-1.13,3-3,2.09-4.06-2.12-8.08-4.33-10.29-8.7a25.84,25.84,0,0,0-1.93-2.8c12.9-1.14,25.79-2.1,38.78-1.28Z"/><path class="cls-22" d="M482.37,461.81c-7.31-2.35-9-8.45-10-15a10,10,0,0,1,.25-3.38,2.56,2.56,0,0,1,4.28-1.39,19.64,19.64,0,0,1,6.49,11.06c.26,1.13.34,2.27,1.34,3a7.63,7.63,0,0,1-2.33,5.7Z"/><path class="cls-22" d="M340.16,223.73c-1.85-4.54-3.66-9.07-5.5-13.61,4.56-.71,9.07-2,13.77-1.27a11.42,11.42,0,0,1-1.7,1c-.85.34-1.87.54-1.39,1.78,1.51,4,3.09,8,4.65,12-3.26,2.49-6.52,2.35-9.83.11Z"/><path class="cls-22" d="M350,205.64a6.38,6.38,0,0,1,1.71-1c1.58-.43,2.46-1.17,1.67-2.9-.48-1-1-2.07-1.42-3.11a8.73,8.73,0,0,1-.51-4.74c.28-2.46,2.27-3.63,4.37-2.44,1.39.8,3,1.59,3.82,2.81,2.33,3.37,5.47,6.18,7.09,10.06-5.61,0-11.08,2-16.73,1.36Z"/><path class="cls-22" d="M80.14,190.28a4.34,4.34,0,0,1,3.11-1.16c1.59,0,3.21,0,4.79,0,7.2-.06,9-1.59,10.18-8.84a13,13,0,0,0,0-2.07,4.36,4.36,0,0,1,4.17,1.27c-.06,2.41.22,4.85-.85,7.17-.66,1.39.19,2.55.82,3.69-7.43,0-14.83,0-22.25,0Z"/><path class="cls-22" d="M110.58,208.39c.09-4.53,2.24-8.84,1.5-13.46,2.44,0,5-.85,7.17.88-1,.39-2.41.56-2.69,1.75a19.72,19.72,0,0,0,.06,8.06c.22,1.21,1.61,1.38,2.66,1.78-2.78,1.5-5.75,1.11-8.7,1Z"/><path class="cls-23" d="M333.24,207.2c.14-1.9-.57-3.6-1.05-5.38a14.12,14.12,0,0,1-.11-4.11c0-.85,1.64-1.39,2.21-.74.94,1,1.73,2.15,2.61,3.2,1.61,2,3.26,3.89,4.87,5.84-2.69,1.5-5.64,1.05-8.53,1.19Z"/><path class="cls-24" d="M334.77,187.87c-3.51,1.62-7,3.26-10.57,4.85-.62.28-1.5.17-1.65-.54a2.06,2.06,0,0,1,.74-1.73c2.64-1.79,5.33-3.54,8.62-4,.59,1.22,1.81,1.14,2.86,1.42Z"/><path class="cls-25" d="M131.44,185.26c.6.23,1.22.4,1.79.68.79.4,1.9,1,1.56,1.87-.6,1.59-1.79.37-2.64.09a10.42,10.42,0,0,1-2.18-1.36c.48-.43,1-.85,1.47-1.28Z"/><path class="cls-26" d="M422,204.65c1.28-.39,2.67-.54,3.38-1.93.85.57,1.36,1.45.91,2.3s-1.59.74-2.47.48a12.46,12.46,0,0,1-1.82-.85Z"/><path class="cls-1" d="M313.77,70.46c6.35-.6,13.43,1.16,20.18,4.59,1.64.85,3.37,1.56,5.05,2.35,17.85,8.31,26.87,22.88,28.51,42,.63,7.14-1.36,14.2-4.79,20.72A67.45,67.45,0,0,1,327,172.45c-7.18,2.92-14.46,4.73-22.26,4.31a46,46,0,0,1-17.4-4.31A68.08,68.08,0,0,1,272.83,163a36.22,36.22,0,0,1-11.53-18.62c-2.67-9.64-3.77-19.5-2.16-29.54a50.35,50.35,0,0,1,13.75-27.47,57.12,57.12,0,0,1,25.85-15.59c4.57-1.27,9.16-1.27,15-1.3Z"/><path class="cls-1" d="M159.25,330.85c2.69-3.77,5.44-7.48,8.05-11.34A65.57,65.57,0,0,1,182,304c8.34-6.41,15.25-14.17,21.52-22.56a56.58,56.58,0,0,0,9.13-17.07,14.81,14.81,0,0,0,.62-6.83c-.48-3-1.42-4-4.48-4.25-9.55-.68-19,0-28.06,3.29-7.4,2.69-14.83,5.27-22.2,8a121.35,121.35,0,0,0-16.18,8c-3.91,2.19-8.05,3.52-12.62,2.81a2.06,2.06,0,0,1-1.78-3c.74-2.32,2.38-3.88,4.16-5.41,8-6.89,17.35-11.45,27.1-15.25,6.66-2.58,13.44-4.93,20.21-7.31a7.16,7.16,0,0,0,4.82-4.45c1.19-3.26,2.58-6.47,3.86-9.67,5-12.59,1.5-23.58-6.41-33.73-1.08-1.39-2.63-1.76-4.17-2.27a1.4,1.4,0,0,1-1.13-1.47c.06-.94.8-1.05,1.45-1.11a14.51,14.51,0,0,1,6.09,1.05c2.58,1,5.08,2.21,8,1.84,1.25-.14,2,.82,2.7,1.87a43.44,43.44,0,0,1,5.1,13.55c.42,1.82.65,3.66,1,5.5.71,4.59,1.34,5.22,5.56,4.31,12.53-2.75,18.62-11,19.13-23a1.87,1.87,0,0,0-1.59-2c-1.78-.46-3.57-.94-5.35-1.39a17.53,17.53,0,0,1-6.58-3.8,12.85,12.85,0,0,1-3.26-14.54c1.25-2.73,3.86-4,6.27-5.25a67.83,67.83,0,0,1,7.08-2.75c9.53-3.77,19.79,1.84,23.39,7.6,4.08,6.55,3.66,10.77-2.44,15.65a26.3,26.3,0,0,1-5.41,3.09c-1.65.79-3.43,1.27-5.56,2,0,2.95-.17,5.95.06,8.9.28,3.29,1.22,6.38,4.08,8.5,2.61,1.9,4.22,4.93,7.23,6.44,1.81.88,3.23.42,3.65-1.48,2.44-11.73,10.18-19.44,19.62-25.82a20.13,20.13,0,0,1,12.08-3.35c-5.67,7.35-11,14.49-16.62,21.43-7.28,9-6.66,19-3.34,28.95,2.89,8.61,3.29,8.67,12.33,8.36,12.87-.46,25.37,1.76,37.73,5,9.24,2.41,15.39,6.43,22.65,14.46-7.85,0-15.39.53-22.76-1.59a134.1,134.1,0,0,0-22.43-4.54c-11.76-1.33-23.64-1.36-35.26,1.05-7.68,1.59-8.19,3-6.12,10.77a23.14,23.14,0,0,0,3.94,7.26c5.84,7.85,12.36,15,21,20,6.37,3.77,12.67,7.65,19.47,10.63a72.08,72.08,0,0,1,17.55,11.11,30,30,0,0,1,3.77,4c.31.39.08,1.33-.14,1.9-.12.28-.83.45-1.22.45a10.51,10.51,0,0,1-2-.4c-4-1-8-2.41-12.11-3-8.9-1.39-16.61-5.5-24.09-10.18-2-1.22-3.89-2.52-5.87-3.71-9.1-5.44-16.38-12.81-22.85-21.09a36.13,36.13,0,0,1-6.49-11.39,3.23,3.23,0,0,0-1.73-2.27c-1.53.68-3.12,1.56-4.79,2.15a9.7,9.7,0,0,1-6.8.09c-3.35-1.22-3.43-1.11-5.19,1.75a129.93,129.93,0,0,1-42.89,42.78c-5.1,3.17-10,6.77-14.91,10.18a1.35,1.35,0,0,1-.14-2Z"/><path class="cls-1" d="M121.92,137.61a47.33,47.33,0,0,1,2.35-17c3.43-10.12,8.7-19.39,14.29-28.46a39.63,39.63,0,0,1,5-5.75,37.18,37.18,0,0,0,2.94-3c6.95-9.55,16.7-11.45,27.64-10.23a26.32,26.32,0,0,1,12.28,4.45,11.34,11.34,0,0,0,4.47,1.7,24.21,24.21,0,0,1,12.56,7c9.47,9.35,16.39,20.07,17.95,33.62a30.38,30.38,0,0,1,.08,8.3c-1.05,6.16-2.41,12.25-3.91,18.32-2.47,9.8-8.25,17.46-16,23.78s-16,10.91-25.74,13a8.56,8.56,0,0,1-3.4.4c-10.46-2.16-20.78-4.63-29.65-11.06a39.65,39.65,0,0,1-7.06-6.63c-1.61-2-3.2-4-5-5.79-6.3-6.52-9.5-14.14-8.79-22.76Z"/><path class="cls-27" d="M355.44,55.55c5.72-4.68,12.7-6.38,19.61-8.11a45.56,45.56,0,0,1,13.69-1.5c9.61.6,15.54,7.28,13.86,16.7-1.87,10.51-4.87,20.69-12.81,28.57a17.33,17.33,0,0,0-4.85,8.08,1.3,1.3,0,0,1-1.81-.48c-7-10.12-15.51-18.85-24.43-27.19-.66-.62-1.25-1.36-1.85-2-.39-1.33.4-1.84,1.51-2.13,9.07,2.56,13.77,10.44,19.95,16.47,5.27,5.19,5.53,5.42,10.15-.7,4.31-5.65,6.58-12.16,7.85-19,1.59-8.39-1.67-12.5-10.2-12.21-7.17.22-14.12,2-20.92,4.39-2.38.85-4.62,2.18-7.29,1.9-1.39-.4-2.92-.68-2.46-2.72Z"/><path class="cls-28" d="M117.72,68.11a31.81,31.81,0,0,1,0-20.38c2-6.24,6-8.45,12.25-6.92,9.35,2.27,17.55,6.92,25,12.87,2.32,1.87,4.62,3.74,6.89,5.64.85.74.34,2.75-.71,2.83-11.28,1.14-19,8.79-27.36,15.14-2.38,1.81-4.45,4-6.66,6-1.33.11-1.67-.74-1.78-1.84,4.59-8.76,12.58-13.92,20.55-19,6.66-4.22,6.75-4.5,0-8.73a59,59,0,0,0-13.78-6.54c-6.86-2.07-10,0-11.08,7.11-.45,3-.11,6-.2,9-.45,2,.14,4.63-3.09,4.77Z"/><path class="cls-22" d="M394.41,329.74c.06-.28.17-1.19.4-2.09a1.86,1.86,0,0,1,2.78-.94A52.65,52.65,0,0,1,403,332.1c2.7,3.4,5.08,7.08,7.71,10.57,3,4,4.23,8.65,5.76,13.21a5.63,5.63,0,0,1,.17,1.36,2.27,2.27,0,0,1-3,2.61,14.87,14.87,0,0,1-5.3-3.15A39.69,39.69,0,0,1,398.92,344c-1.42-2.89-2.5-5.95-3.77-8.9a13.45,13.45,0,0,1-.74-5.39Z"/><path class="cls-22" d="M392.94,365.12a3.87,3.87,0,0,1-.37,1.42,1.87,1.87,0,0,1-2.24,1.13,9.22,9.22,0,0,1-4.11-2.44,48.25,48.25,0,0,1-9.64-11.67c-1.7-3-3.09-6.18-4.67-9.27A9.41,9.41,0,0,1,370.8,339a3.27,3.27,0,0,1,2.15-3.21c1.25-.42,2.13.46,3,1.22,6.49,5.42,11.14,12.25,15,19.62a14.6,14.6,0,0,1,2,8.53Z"/><path class="cls-22" d="M430.3,283.57c0,.37-2.18,1.56-4.05.74a17.12,17.12,0,0,1-8-7.46c-3.57-6.72-6.86-13.58-10.29-20.41a7.46,7.46,0,0,1-.9-4,2.12,2.12,0,0,1,3-1.73,3.58,3.58,0,0,1,1.13.77c4.57,5.5,9.1,11,13.67,16.55,3,3.69,3.91,8.31,5.41,12.65a15,15,0,0,1,0,2.89Z"/><path class="cls-22" d="M107.83,338.42c-1.3,9.49-2.72,19.95-8.79,29-.68,1-1.67.62-2.41.08a5.34,5.34,0,0,1-2.49-4,27.85,27.85,0,0,1,.34-8.25,66.88,66.88,0,0,1,5.21-14.94c1.51-2.83,2.58-5.89,3.94-8.78a2.75,2.75,0,0,1,1.48-1.22c.82-.26,1.19.51,1.56,1.08,1.19,1.81,1.3,3.88,1.16,7Z"/><path class="cls-22" d="M117.89,352.71c.63,5.58-1.24,10.94-1.84,16.38-.28,2.64-1.76,5.19-2.83,7.71a2.9,2.9,0,0,1-4.65.54,8,8,0,0,1-1.82-3.63c-.34-3.66-.68-7.34.6-10.91,2.18-6,4.31-12.11,6.49-18.15a5.76,5.76,0,0,1,1.3-1.58c.54-.57,2.16-.09,2.21.71.23,3,.37,6,.54,8.93Z"/><path class="cls-22" d="M217.79,69.58c-.23-7.09,1.78-13.27,3.2-19.53.11-.45,1-1,1.61-1a2.1,2.1,0,0,1,1.76.77A8.56,8.56,0,0,1,226,53.51c.14,3.68,1,7.28,1.42,10.94.51,4.68-1,9.1-2.61,13.41-.51,1.3-1,2.58-1.59,3.85-.26.63-.62,1.36-1.47,1.11a3,3,0,0,1-1.65-1,17.39,17.39,0,0,1-2.29-7.88V69.58Z"/><path class="cls-22" d="M471,464c-.17,1.16-.23,1.61-.31,2a2.11,2.11,0,0,1-3.15,1.53,15.79,15.79,0,0,1-8.56-9.41,138.4,138.4,0,0,1-3.15-14,5.47,5.47,0,0,1,.43-2.66,2.47,2.47,0,0,1,3.43-1.19,6,6,0,0,1,1.07.88A43.5,43.5,0,0,1,471,464Z"/><path class="cls-22" d="M433.16,348.23a22.56,22.56,0,0,1-13.09-13.44c-.94-2.38-1.9-4.71-2.84-7.09a7.6,7.6,0,0,1-.31-4.76,2.27,2.27,0,0,1,2.78-1.33,6.79,6.79,0,0,1,1.78,1.05c1.36,1.25,2.61,2.63,4,3.82,6.52,5.62,8.73,12.79,7.68,21.75Z"/><path class="cls-22" d="M454.28,471.34c-.17.79-.28,1.47-.48,2.12a2.62,2.62,0,0,1-3.35,1.59,11.46,11.46,0,0,1-6.15-5.27c-2-3.46-2.72-7.32-3.77-11.09a61.57,61.57,0,0,1-1.1-6.09,4.59,4.59,0,0,1,1.39-3.77,1.43,1.43,0,0,1,1.84-.34,9.73,9.73,0,0,1,3.94,3.82c2.86,5,5.64,10.1,7.17,15.71.28,1.1.34,2.27.51,3.32Z"/><path class="cls-22" d="M244.32,53.25c-1.9,4.76-1,10.6-1.53,16.3-.34,3.74-2.55,6.86-4.48,10-.48.79-1.76.48-2.21-.48C233.4,73.32,233,67.77,235,60.37c.65-2.47,1.53-4.82,2.35-7.23A10.05,10.05,0,0,1,241.79,48,1.54,1.54,0,0,1,244,49c.14,1.14.2,2.3.37,4.28Z"/><path class="cls-22" d="M123.17,434.48c.53,5.08-.12,9.3-2.7,13.13-.88,1.33-2.24,1.42-3.43.23-2.83-2.84-3.37-6.75-3.2-10.21.25-5.44,1.7-10.83,2.66-16.24a3.51,3.51,0,0,1,.49-1.28c.53-1,.85-2.32,2.26-2.24,1.7.12,2.27,1.48,2.44,2.87.51,4.79,2.5,9.41,1.48,13.74Z"/><path class="cls-22" d="M368,424.22c.6-1,1.11-2.09,2.33-2.43s2.15.53,3,1.33c5,4.87,9.42,10.15,10.63,17.4a61.83,61.83,0,0,0,2.16,7.32l0,0c-3.15-.23-5.67-2-8.19-3.52a13.93,13.93,0,0,1-5.62-7.68c-.79-2.35-1-5-2.92-6.86h0c-1.47-1.59.26-4-1.42-5.56Z"/><path class="cls-22" d="M440.33,265.88c0,1.59.06,2,0,2.52-.14,1.93-1.39,3-3.2,2.72-2.58-.42-5-1.41-6.26-3.79-2.81-5.28-5.45-10.69-8.05-16.08-.57-1.19.05-2.24,1.07-3a2.16,2.16,0,0,1,2.58.17c5,3.37,8.56,8.27,12.62,12.61,1.58,1.67,1.19,3.88,1.24,4.82Z"/><path class="cls-22" d="M128,386.1c-5-5.33-5.42-11.2-4.46-17.21a116.33,116.33,0,0,1,3-12,10.26,10.26,0,0,1,1.25-2.44c.54-.9,2.27-.68,2.89.26a5.4,5.4,0,0,1,1,3.23c0,5.53,0,11.06,0,16.55a11.44,11.44,0,0,1-1.16,4.65c-.85,2.1-1.5,4.28-2.46,7Z"/><path class="cls-29" d="M340.16,223.73c3.29-.06,6.55-.09,9.83-.11,12.65,1,25.2,2.46,37.51,5.75A86.67,86.67,0,0,1,401.22,234c.25,1.36-.26,1.84-1.59,1.39-3.83-.85-7.66-1.73-11.51-2.52-15.85-3.32-31.72-6.58-48.08-6.27-.85,0-2.07.34-2.21-.9-.2-1.59,1.34-1.53,2.33-1.93Z"/><path class="cls-22" d="M253.16,75.62c-3.83-5.19-3.09-10.26-.74-15.25a76,76,0,0,1,4.63-7.68,1.85,1.85,0,0,1,2.38-.83,2.46,2.46,0,0,1,1.27,1.45,28.93,28.93,0,0,1-1.87,15.59c-1.08,2.55-3.68,4.45-5.67,6.72Z"/><path class="cls-22" d="M142.84,420.11c.17,3.49-1.22,6.72-1.9,10.07a162.4,162.4,0,0,0-2.67,16.18c-.56.94-1.16,1.87-1.78,2.89-1.36-1-.54-2.43-.85-3.63a19.08,19.08,0,0,1-.94-4.67c0-1.33,1-2.69.85-4-.39-5.81,1.31-11.39,1.59-17.12.09-1.36,0-2.81,1-3.91a3.23,3.23,0,0,1,1.73-.88c.29-.09.88.31,1,.65.71,1.45,1.31,2.95,2,4.42Z"/><path class="cls-30" d="M125.83,81.68c.45.54.88,1.11,1.3,1.65a8.28,8.28,0,0,1-2.89,3.74c-3.34-4.42-5.64-11.11-6.52-19,2-1.53,1-3.83,1.48-5.76,3.14.51,2.75,3.26,3.17,5.33,1,4.71,2.24,9.36,3.46,14Z"/><path class="cls-31" d="M358.5,68c-.54.54-1.11,1.05-1.65,1.59-2.21-1.64-4.5-3.2-6.57-5-2.44-2.07-2.38-3.43,0-5.64a14.66,14.66,0,0,1,5.13-3.4c.59,1.22,1.73,1.36,2.86,1.47-3.52,3.72-2.24,7.37.2,11Z"/><path class="cls-32" d="M399.63,235.35c.54-.45,1.08-.93,1.59-1.39a17.5,17.5,0,0,1,7.88,3.94,1.53,1.53,0,0,1,.28,1.19c-.17.57-.62.51-1.13.29-2.87-1.37-5.76-2.7-8.62-4Z"/><path class="cls-33" d="M159.25,330.85c.06.65.11,1.3.14,2-1,2.12-2.8,3.34-4.79,4.87.54-3.06.54-3.06,4.65-6.83Z"/><path class="cls-34" d="M386.08,447.84a7.7,7.7,0,0,1,.59.56c-.11,0-.28,0-.36-.11a1.51,1.51,0,0,1-.2-.48Z"/><path class="cls-35" d="M174.81,460.85c-.71-4.82.63-9.24,1.79-13.72a1.76,1.76,0,0,1,2.8-.74,6,6,0,0,1,2.16,3.43c1.39,6.78,2.86,13.49,4.14,20.27a30.23,30.23,0,0,1,.08,5.55,5.82,5.82,0,0,1-2.15,4.2c-2,1.84-4.4,1.53-5.78-.88a10.62,10.62,0,0,1-1.59-3.83c-.46-4.79-2.38-9.44-1.45-14.28Z"/><path class="cls-35" d="M302.63,451.21c0,1.16.08,2.32,0,3.49-.32,3.14-2.21,6.46-3.52,6.12-2.29-.57-3.06-2.64-4-4.48a45.6,45.6,0,0,1-2.4-6.41c-1.62-4.9-.83-10.09-2.44-15a7.13,7.13,0,0,1,.68-5.39c.56-1,1-2.13,2.32-2.32s2.07.65,2.67,1.7a49.5,49.5,0,0,1,6.69,22.25Z"/><path class="cls-35" d="M192.76,470c0-5.42,1.21-9.87,2.46-14.29a2,2,0,0,1,2-1.67c1,0,1.58.76,2.15,1.5,1.9,2.52,2.16,5.67,2.67,8.53,1.1,6.1,1.75,12.33-1.08,18.29-.79,1.7-2.52,1.89-3.8.36A18,18,0,0,1,192.76,470Z"/><path class="cls-36" d="M223.54,488.17a14.14,14.14,0,0,1-6.95-9.41A71.19,71.19,0,0,1,215,459.6a31.73,31.73,0,0,1,.28-3.43c.17-.91.68-1.81,1.7-1.81a2.35,2.35,0,0,1,1.64,1,17.94,17.94,0,0,1,1.93,3.68c3.66,9.27,5.64,18.71,2.95,29.14Z"/><path class="cls-35" d="M216.54,381.87c0-2.75,0-5.52,0-8.25a2,2,0,0,1,1.61-2,2.54,2.54,0,0,1,2.5.77,3.26,3.26,0,0,1,.88,1c3,6.49,5.41,13.15,4.5,20.49a11.53,11.53,0,0,1-.48,2c-1,3.06-2.61,3.43-4.93,1.21a12.23,12.23,0,0,1-4.25-9.75c.08-1.84,0-3.68,0-5.5Z"/><path class="cls-35" d="M318.44,456.6c-4.76-.66-6.26-4.4-7-8.25-1.05-5.67-.59-11.46-.2-17.18a1.89,1.89,0,0,1,1.73-1.84,2.38,2.38,0,0,1,1.76.82c4.31,7.23,7.62,14.68,5.16,23.41a11.76,11.76,0,0,1-.63,2,5.47,5.47,0,0,1-.85,1.08Z"/><path class="cls-35" d="M202.56,381.87c-.39-4.5,1.42-8.39,1.79-12.47a2,2,0,0,1,1.42-1.3,2.63,2.63,0,0,1,1.78.73,4,4,0,0,1,1.31,1.59c1.81,5.42,3.74,10.83,3.4,16.7a6.47,6.47,0,0,1-1.11,3.88c-1,1.28-2.1,2.52-3.94,2.38s-2.69-1.44-3.26-3.06c-1-2.83-1.78-5.7-1.39-8.45Z"/><path class="cls-35" d="M244.06,402c-2.55-4.28-4.33-7.17-6-10.12a6.18,6.18,0,0,1-.73-2.64c0-4.84,0-9.66.05-14.51a1.46,1.46,0,0,1,.17-.68,5.26,5.26,0,0,1,1.22-1.59c.94-.59,1.76,0,2.35.71,3.18,3.57,5.59,12.42,4.17,17.6-.88,3.21-.93,6.35-1.22,11.23Z"/><path class="cls-36" d="M331.77,438.48a55.85,55.85,0,0,1,.45-6.21,4.19,4.19,0,0,1,1.73-2.75c1.16-.51,2,.8,2.66,1.73a14.5,14.5,0,0,1,1.62,3.06c1,2.84,1.93,5.7,2.89,8.54a7.36,7.36,0,0,1,0,5.44c-.71,1.56-.34,4.42-2.55,4.36a6.09,6.09,0,0,1-5.22-4,14.41,14.41,0,0,1-1.53-6.72c.11-1.16,0-2.33,0-3.49Z"/><path class="cls-37" d="M368,424.19c2.1,1.45,1.42,3.58,1.42,5.56-1.9-1.47-1.39-3.57-1.42-5.56Z"/><path class="cls-21" d="M327.09,86.56a28.49,28.49,0,0,1,17.09,4,18.72,18.72,0,0,1,9.19,11.62,11,11,0,0,1-1.25,9.21c-3.29,5.53-8.62,8.39-14.32,10.35-8.73,3-16.89,1.5-24.12-4.37a16.63,16.63,0,0,1-6-9.1c-2.75-10.91,1.45-16.35,9.78-20.12a20.21,20.21,0,0,1,5.33-1.53,24,24,0,0,1,4.28-.06Z"/><path class="cls-38" d="M227.48,215.59c2.21,8.56,7.88,13.89,16,16.7a5,5,0,0,1,3.77,4.28c.76,3.88,1.78,7.6.08,11.51a6.3,6.3,0,0,1-2.47,3.14c-1.92,1.25-3.85,2.53-5.72,3.86s-3.74,2.89-4.48,5.13c-1.33,3.91-4.39,5.16-8,5.59-2.49.31-3.42-.18-3.28-3a34.9,34.9,0,0,0-1.36-12.3c-1.7-5.76-5.56-8.9-11.31-9.7-2.75-.39-5.53-.2-8.31-.34-3-.14-3.71-.74-3.91-3.57-.09-1.36,0-2.72,0-4.37,3.34.17,6.35.49,9.21-.45,5.58-1.84,10.72-4.34,13.89-9.64,1.42-2.38,2.89-4.7,4.34-7.06.59-.56,1.07-.48,1.5.2Z"/><path class="cls-39" d="M227.48,215.59c-.51-.05-1-.11-1.5-.2.22-.53.48-1.53.68-1.53,1.19,0,.85,1,.82,1.73Z"/><path class="cls-21" d="M206.93,111.51a10.5,10.5,0,0,1-1.82,6.46,32.72,32.72,0,0,1-11.05,10.2,9.19,9.19,0,0,1-6,1.17,31,31,0,0,1-11.65-4,14.93,14.93,0,0,1-6.69-9.27,31.58,31.58,0,0,1-.28-13.75c.48-2.69,1.44-5.33,2.12-8a8,8,0,0,1,2.58-4c3.2-3,6.69-3.77,10.74-2s8.17,3.2,12,5.27c7,3.74,9.5,10.29,10,17.89Z"/><path class="cls-22" d="M358.5,68l-6.81-5.67c1.31-3.06,4.88-3.09,6.61-5.3,7.37-2.77,14.8-5.27,22.59-6.43,3.91-.6,7.77-.82,11.68.42a8.07,8.07,0,0,1,6.07,7.54,10.55,10.55,0,0,1,0,2.1c-1.19,8.56-3.48,16.75-8.78,23.78-1.9,2.56-4.2,4.85-6.58,7.6-2.75-1.78-3.91-4.68-5.9-6.75s-3.79-4.08-5.75-6c-2.15-2.1-4.31-4.2-6.58-6.15-2.09-1.82-4.39-3.41-6.57-5.11Z"/><path class="cls-22" d="M125.83,81.68c-.85-.08-1.9.12-2.18-1-1.14-4.6-2.75-9.08-3.23-13.81-.15-1.56-.17-3.17-1.22-4.48,0-3-.06-6,.28-9a21,21,0,0,1,1.7-6,4.8,4.8,0,0,1,5-3.06,28.32,28.32,0,0,1,3.46.29c7.57,1.47,19.05,8,25,14.11-.62,1.7-2.38,1.85-3.68,2.58-9.36,5.56-18.34,11.57-25.09,20.35Z"/></g></g></svg>