<svg xmlns="http://www.w3.org/2000/svg" viewBox="0 0 207.29 113.68"><defs><style>.cls-1{fill:#fff;fill-rule:evenodd;}.cls-2{fill:#543828;}</style></defs><title>Asset 9</title><g id="Layer_2" data-name="Layer 2"><g id="Layer_1-2" data-name="Layer 1"><path class="cls-1" d="M134.79,78.08C119.73,69.66,108,52.2,112.48,35.53c3.07-11.39,13-19.91,24-24.27s23-5.24,34.73-6c4.08-.29,8.45-.5,11.95,1.61,3,1.78,4.8,4.94,6.49,8l9.86,17.58c4.09,7.31,8.08,16.86,2.89,23.44-1.88,2.38-4.68,3.86-6.72,6.11C154.1,94.38,134.79,78.08,134.79,78.08Z"/><path class="cls-2" d="M136.05,75.93c-16.35-9.49-29.35-30.51-17.11-48.34,11.79-17.18,37-20.08,56.14-20,6.33,0,9.48,3.36,12.41,8.51,2.72,4.77,5.38,9.59,8.07,14.38,2.46,4.41,5.18,8.88,6.3,13.87,1.42,6.32-1.05,9.92-5.71,13.8C184,68.25,168.76,78.47,152.39,79.58a29.3,29.3,0,0,1-12.29-1.49,18.91,18.91,0,0,1-2.84-1.35c-.4-.22-1.44-1-.71-.42-2.45-2-6,1.48-3.53,3.53,5,4.19,12.69,5.13,19,4.76a60.75,60.75,0,0,0,21.44-5.82C184,74,195,67.06,203.16,58.7c7.74-8,3-19.29-1.5-27.59q-4.83-8.85-9.85-17.59c-2.3-4-4.83-8-9.33-9.8-5.19-2.06-11.18-1.05-16.58-.63a140,140,0,0,0-20,2.68c-11,2.49-21.83,7.58-29.16,16.46-16.65,20.2-3.26,46.39,16.77,58C136.31,81.86,138.83,77.54,136.05,75.93Z"/><path class="cls-1" d="M33,5.9C21.72,1,8.34,11.12,6.26,21.22S8.14,41.8,5.63,51.84c-1,4-3,7.86-3.16,11.93C1.89,78.82,26.2,87,44.83,84.11s35-12.13,53.75-14.6c6.67-.89,14.89-1.65,17.39-6.63,1.34-2.67.42-5.66-.24-8.49-2.11-8.93-1.55-18.27-5.15-26.9C105.72,15.87,93,6.52,78,3.56s-31.74.56-42.91,9"/><path class="cls-2" d="M33.68,3.49C24.21-.15,14,4.37,8,12.08-.65,23.21,5.76,36.81,3.6,49.4c-1,5.8-4.31,11-3.46,17.09a17.68,17.68,0,0,0,5.23,10c6.68,6.68,16.78,9.48,25.92,10.43,12.42,1.29,24.46-2.23,36.11-6.13,6.59-2.2,13.13-4.57,19.85-6.36,6.24-1.67,12.59-2.25,18.91-3.47,4.14-.79,8.89-2.14,11.4-5.82,3.33-4.9.42-11.19-.37-16.42-1.84-12.23-2.6-23.51-11.47-33-18-19.28-51-20.48-71.87-5.26-2.57,1.88-.08,6.22,2.53,4.32,16.59-12.11,40.69-13.11,58-2a35.1,35.1,0,0,1,16.11,23.64c1,5,1.22,10.21,2.11,15.27.59,3.37,2.81,8.2.28,11.2-1.54,1.83-4.5,2.43-6.72,2.93-4.45,1-9,1.26-13.49,2.14A138.57,138.57,0,0,0,76,72.59c-9.9,3.26-19.73,7.07-30,8.82C33.5,83.52,1.08,80.51,5.4,61,6.64,55.39,8.88,50.54,9,44.69c.12-6.34-1.2-12.65-.78-19C9,14.1,20.62,3.8,32.35,8.31c3,1.16,4.3-3.68,1.33-4.82Z"/><path class="cls-1" d="M109.26,54.05c-13.74-2.39-29.08-.7-39.33,10.23s-11.87,33.06-.43,42.26c14.13,11.37,33-3.7,50.13-2.52,8.37.57,16.15,5.11,24.41,6.75s18.34-.89,21.75-9.8a27.74,27.74,0,0,0,1.45-8.19c.94-16.51-3.89-34.31-15.38-44s-30-8.22-37.8,5.57"/><path class="cls-2" d="M109.93,51.64c-20.35-3.32-43.26,2.94-49.41,24.92-2.44,8.74-2.15,19.21,3,27,5.32,8.08,14.54,10.62,23.73,9.34,11.65-1.62,23.07-8.11,35.06-6.05,10.91,1.88,20.75,8.85,32.19,6.26,22.95-5.19,16.46-39.38,8.4-54.43-5.1-9.51-13.59-17.08-24.58-18.44A26.65,26.65,0,0,0,111.9,53.05c-1.67,2.76,2.65,5.28,4.32,2.53a21.55,21.55,0,0,1,20.85-10.47c9.2.88,16.27,7.06,20.76,14.81,7.35,12.66,14.95,46.76-7.08,48.73-9.46.84-18.05-5-27.14-6.62-8.35-1.53-16.49.63-24.49,2.91-8.23,2.33-18,5.72-26,1.06-7.13-4.13-9.36-12.87-9-20.58.48-9.77,5.07-18.91,13.42-24.23,9.2-5.87,20.56-6.44,31.07-4.73,3.15.51,4.5-4.3,1.33-4.82Z"/></g></g></svg>