<svg xmlns="http://www.w3.org/2000/svg" viewBox="0 0 482.27 588.39"><defs><style>.cls-1{fill:#543828;}.cls-1,.cls-10,.cls-11,.cls-12,.cls-13,.cls-14,.cls-15,.cls-16,.cls-17,.cls-18,.cls-19,.cls-2,.cls-20,.cls-21,.cls-22,.cls-23,.cls-24,.cls-3,.cls-4,.cls-5,.cls-6,.cls-7,.cls-8,.cls-9{fill-rule:evenodd;}.cls-2{fill:#c6b6ac;}.cls-3{fill:#ffe8c7;}.cls-4{fill:#a06b49;}.cls-5{fill:#9f6b49;}.cls-6{fill:#935832;}.cls-7{fill:#563a2a;}.cls-8{fill:#573a2a;}.cls-9{fill:#593c2b;}.cls-10{fill:#593e2d;}.cls-11{fill:#e6c18a;}.cls-12{fill:#e6c189;}.cls-13{fill:#e7c18a;}.cls-14{fill:#e6c18b;}.cls-15{fill:#e7c28c;}.cls-16{fill:#e9c591;}.cls-17{fill:#6b4d3b;}.cls-18{fill:#70523f;}.cls-19{fill:#704f3d;}.cls-20{fill:#987159;}.cls-21{fill:#916e57;}.cls-22{fill:#955a33;}.cls-23{fill:#fff;}.cls-24{fill:#e5bf89;}</style></defs><title>Asset 8</title><g id="Layer_2" data-name="Layer 2"><g id="Layer_1-2" data-name="Layer 1"><path class="cls-1" d="M287.85,0c.2.37.34.94.65,1.08C298.62,5.13,306,12.44,311.12,21.71a134.12,134.12,0,0,1,14.43,36.63c.85,2.46,1.59.71,2.36-.06C333.06,47,340.8,37.45,348.68,28.06c2-2.44,4.88-4.28,7.57-6.06a8.07,8.07,0,0,1,9.67.68,15.78,15.78,0,0,1,5,7.37,40.81,40.81,0,0,1,2.38,14.31c0,5.53,0,11.09,0,16.73,1.78.85,2.66-1,3.94-1.76,4.31-2.58,6.89-2.35,10.71.82a19.06,19.06,0,0,1,5.47,7.91,87.26,87.26,0,0,1,5.9,22.08c.25,2,.48,4.11.71,6,.57.34,1,.82,1.3.74,9.24-2.1,17.95-.17,26.31,3.74a73.42,73.42,0,0,1,16.1,10.8c7.77,6.63,11.9,15.28,13.52,25.14a51.22,51.22,0,0,1-.6,21.38c-3.14,12.13-10,21.68-20,29.28-.2,1.64,1.25,2.27,2.27,3.09a95.84,95.84,0,0,1,24.52,30.73c4.34,8.44,8.93,16.75,11.28,26,1.25,4.93,2.47,9.83,1.45,15a13.85,13.85,0,0,1-6.83,9.92c-3,1.76-6.07,3.32-9.7,3.71,2.5,6.41,5.05,12.36,7.17,18.46,5.11,14.68,8.34,29.85,11.63,45,1.41,6.55,2.74,13.13,3.59,19.79a36.2,36.2,0,0,1-1.3,14.43A17.37,17.37,0,0,1,473,383.81c-1.19.71-2.32,1.5-3.54,2.15a3.29,3.29,0,0,0-1.65,3.49c.26,3.91.26,7.85.57,11.77a29.41,29.41,0,0,1-3.51,16.07A14.72,14.72,0,0,0,463.4,426c1.76,17.12.85,34.22-1.3,51.25-2.33,18.6-5.47,37.11-8.71,55.56a151.46,151.46,0,0,1-5.21,20.86,81.12,81.12,0,0,1-13.27,24.24c-4,5.22-9.18,8.28-16.15,7.65a63.14,63.14,0,0,1-23.9-6.54c-12.44-6.5-21.77-16.33-29.68-27.7a16.19,16.19,0,0,1-1.3-2.44c-2.33-5-2.33-5-7.4-3.88-7.46,1.67-14.88,3.43-22.31,5a31.26,31.26,0,0,1-5.53.65c-8.79.28-17.52,1.44-26.27,2.35-6.67.68-13.38,1.19-20.05,1.87-4.36.46-8.73,1-13.09,1.59-13.86,1.76-27.72,1.13-41.61.45-3.72-.17-7.4-.42-11.12-.42-13-.06-25.74-2.5-38.52-4.79-7.48-1.33-15.08-2.3-22.62-3.46-1.84-.29-2.86.74-4.14,1.9-11.08,10.15-21.66,20.92-34.44,29.05-4.11,2.61-8.22,5.19-12.42,7.63-4,2.32-7.82,2-11.7-.65-3.52-2.44-6.66-5.19-8.34-9.1-4.76-11-10-21.94-11.36-34.08-.63-5.5-.63-11.08-.88-16.63-.06-1.14,0-2.3,0-3.32-1.7-1.33-2.67.2-3.86.59a46.37,46.37,0,0,1-6.63,1.93c-5.64.85-9.92-1.42-12.78-6.32-3.09-5.3-4.45-11.2-5.47-17.12C41,488.61,40.81,475,41.18,461.28c.2-6.23.65-12.47,1-18.71.09-1.87-.79-2.41-2.55-1.53a40.89,40.89,0,0,1-3.68,2,12,12,0,0,1-15.42-6.86,33.07,33.07,0,0,1-2.47-11.48,125.52,125.52,0,0,1,2-26.25c.82-4.76,1.76-9.53,2.58-14-.68-1.19-1.64-1.16-2.55-1.33-5.13-.94-8-4.11-9.1-9.19a36.1,36.1,0,0,1-1-11c1.5-17.09,3.51-34.1,7.68-50.77.88-3.51,1.62-7.08,2.58-11.33-2.49.73-4.39,1.38-6.32,1.9C8.38,304.1.33,301,0,292.11a53.94,53.94,0,0,1,1.25-12.42C5,261,10.45,242.9,19,225.84c1.34-2.67,2.84-5.25,4.23-7.83A7.3,7.3,0,0,0,22,217c-6.06-2.89-8.42-7.82-6.69-16.47a31.23,31.23,0,0,1,5.1-11.31c1.82-2.66,3.89-5.16,5.82-7.71-.85-1.39-2.39-1.22-3.6-1.73-.86-.34-1.85-.34-2.67-.71-9.27-3.94-16.33-10.57-13.44-24,1.45-6.71,3.86-12.89,8.08-18.22a141.2,141.2,0,0,1,38.5-33.68,34.35,34.35,0,0,1,12.3-4.5c2.69-.43,5.39-1.11,8.11-1.71-1.39-4.7-2.55-9.18-2.33-13.86.49-10,4.45-15.11,14.2-18a58.72,58.72,0,0,1,12.25-2.38c6.24-.48,12.44-1,18.71-.22a31.55,31.55,0,0,0,4,0c1-1.62,0-2.81-.32-4.06A28.9,28.9,0,0,1,120.13,44c1.72-7.37,7.22-11.59,13.29-15.22a5.61,5.61,0,0,1,3.34-.54c13.07,1.85,26.23,3,38.92,6.86a128.92,128.92,0,0,1,16.59,6.35c1.53-1.1.85-2.27.73-3.29a49.19,49.19,0,0,1,2.75-22.53c2.87-8,9.53-11.71,18-10.66,6.66.82,12.38,3.12,17.26,8a68.07,68.07,0,0,0,9.89,7.59c5.78,3.86,11.51,7.8,16.41,12.79a1.91,1.91,0,0,0,2.13.62c.91-3.54,1.93-7.26,2.75-11C264.49,12.64,270,4.85,279.49,0Z"/><path class="cls-2" d="M327.91,58.28c-.4,1-.74,2.1-1.19,3.09-.09.23-.66.25-1,.25-.08,0-.25-.36-.25-.59,0-.88.06-1.79.11-2.69.77,0,1.56-.06,2.36-.06Z"/><path class="cls-3" d="M82.23,524.47c.17-4.57-1.11-9.25.62-13.75a2.54,2.54,0,0,0,.14-1.31c-2.21-16.41-.62-32.79.09-49.18.14-3.68.22-7.4.28-11.11A467.09,467.09,0,0,1,87.19,400c1.58-13.32,2.8-26.73,4.53-40,3.18-24.09,6-48.21,10.52-72.11,2.78-14.8,5.19-29.65,8.19-44.42a378.92,378.92,0,0,1,11-40.11c.42-1.3.88-2.61,1.27-3.94.85-3,1.9-5.64,4.88-7.23,1.87-1,3.23-2.52,2.41-5.07s-2.3-4.76-5.19-4.88a91.33,91.33,0,0,1-11-1.13c-13.78-2.3-23.19-13-23.19-27,0-17,6.77-30.92,19.73-41.89A24.26,24.26,0,0,1,121.51,107a49.68,49.68,0,0,1,20.64-.14c6.58,1.47,11,5.64,14.66,10.91a11.51,11.51,0,0,1,1.75,7.32,30.12,30.12,0,0,0,1.22,10.29c.85,2.77,3.66,3.6,5.25,1.36,5.13-7.4,12.84-11,20.49-14.94,13.27-6.78,27.3-11.37,41.64-15.08a33.89,33.89,0,0,1,8.25-1c8.82,0,17.63-.17,26.42-.15a99.12,99.12,0,0,1,20.64,2.56c9.72,2.15,19.55,3.65,29.22,6a351.24,351.24,0,0,1,36.43,11.22c4.16,1.51,8.1,3.35,11.14,6.81a14.18,14.18,0,0,0,3.17,2.66c2.64,1.73,4.79,3.66,4.68,7.17a2.88,2.88,0,0,0,.85,1.85,3.13,3.13,0,0,0,1.7.9c.79.17,1.22-.54,1.39-1.22a36.71,36.71,0,0,1,.88-4c3.85-9.95,10.17-18.12,18.17-25.06a16.54,16.54,0,0,1,4.79-2.78c8.25-3.15,16.61-3.91,25.08-.85a53.25,53.25,0,0,1,17.24,10.15,30.44,30.44,0,0,1,10,17.8C450,153.3,444.52,165,434.52,175.1a17.63,17.63,0,0,1-8.59,4.28c-4.06,1-8.17,1.7-12.28,2.35a11.84,11.84,0,0,0-6.23,2.75c-2.41,2.12-3.18,5.19-.66,7.11,3.24,2.53,3.38,5.84,4.14,9.16a218.42,218.42,0,0,0,6.64,22.62c4.14,11.79,7.59,23.81,11,35.8s5.13,24.46,6.49,36.88a191,191,0,0,0,5.56,30.7c3.15,11.22,4.7,22.68,5.78,34.21,1.39,15.2,2.64,30.45,4.05,45.67.37,3.91,1,7.79,1.71,11.65,3,18.48,2.32,36.94.11,55.39-2.55,21.15-6,42.18-10.06,63.07a84.73,84.73,0,0,1-12.62,30.64c-2.72,4.14-5.92,6-10.88,5.56-13.67-1.33-25.54-6.46-35-16.47-4-4.2-7.31-9-11-13.44a10.06,10.06,0,0,1-1.76-3.71,11.19,11.19,0,0,0-2.89-4.68c-2.6-2.78-5.64-3.94-9.38-3-4.28,1-8.59,1.9-12.81,3.06a96.69,96.69,0,0,1-24,3.74c-5.08.14-10.15.8-15.2,1.39-11.05,1.25-22.14,2-33.14,3.6a188.31,188.31,0,0,1-39.51,1.14c-4.17-.29-8.33-.69-12.47-.6-14.46.23-28.58-2.21-42.72-4.85-7.29-1.33-14.63-2.24-21.94-3.34-1.93-.29-3.32.42-5,1.47-8.42,5-15.36,11.82-22.39,18.51-6.41,6.12-13.64,11.11-21,16a39.8,39.8,0,0,1-4.85,2.72c-4.81,2.3-8,1.62-10.26-3.29-5.58-12-11-24-11.19-37.61-.06-3,0-6,0-9Z"/><path class="cls-4" d="M39,365.7c-.4-1.9.56-3.6.88-5.64-4-.26-7.06,1.56-9.75,4.16-1.85,1.76-3.63,3.6-5.62,5.19a2.2,2.2,0,0,1-3.62-1.53c0-6.26-.46-12.59.39-18.74,1.33-9.8,2.81-19.61,5-29.31,2.33-10.4,5-20.66,9.73-30.27a14,14,0,0,0,1.33-3.18,6.72,6.72,0,0,0-1.53-6.46c-1.76-1.87-3.46-2.15-5.45-.57-1.44,1.14-2.72,2.53-4.13,3.69-3.77,3.12-7.66,6-12.62,7-2.24.45-3.68-.77-3.31-3a131.71,131.71,0,0,1,3.54-16.92c3.88-12.84,7.57-25.74,13.75-37.76,2.55-5,5.64-9.55,8.64-14.23,1.53-2.4,3.94-3.77,5.9-5.21.14-1.25-.6-1.45-1.05-1.9-3.66-3.49-7.74-5.7-13.07-5.3-2.44.2-3.29-1.42-2.44-3.66a36.19,36.19,0,0,1,13.55-17.15c1.73-1.19,3.55-2.24,5.13-3.57s3-3.17,2.41-5.41c-.82-2.95-2.32-6-5.84-6-4.22-.12-8.22-1.36-12.35-1.62a21.48,21.48,0,0,1-9.22-2.92,5.5,5.5,0,0,1-3-6.37,39,39,0,0,1,7.54-16.87c7.28-9.5,16.61-16.67,25.82-24a43.54,43.54,0,0,1,7-4.51c7.8-4,15.7-7.93,23.58-11.85,1-.51,2.38-.36,2.87-1.64.56-1.5,1.27-3,.76-4.71-.34-1.1-.65-2.21-.93-3.34-.57-2-1.19-4-1.62-6-.91-4.37.65-7.17,4.9-8.39a52.92,52.92,0,0,1,14.29-2.55c5.78-.09,11.57-.06,17.38,0,4.65,0,9.13,1.22,13.6,2.35a6.38,6.38,0,0,0,6.35-1.7c2.9-2.69,3.24-6,.43-9a57.84,57.84,0,0,1-6.12-7.51,14.83,14.83,0,0,1,4.11-20.73,7.59,7.59,0,0,1,4.67-.93,172,172,0,0,1,19.36,1.1,170,170,0,0,1,21.07,3.92c6.57,1.64,12.72,4.05,18,8.5,1.87,1.59,3.45.77,3.51-1.84.14-5.56.26-11.11.09-16.67a37.17,37.17,0,0,1,1.58-10.94c.8-3,3.23-4.85,6.18-4.34,5.64.94,11.2,1.73,15.62,6.44,3.4,3.65,7.88,6.43,12.16,9.15,7.15,4.54,13.33,9.95,17.92,17.12,1.24,2,2.66,4.14,5.3,3.86,3.12-.37,4.56-2.86,5.36-5.7a32.37,32.37,0,0,0,1.24-5.39c.6-6,2.41-11.73,4-17.51A35.85,35.85,0,0,1,275.83,17c2.38-4.2,6.07-5.44,10.63-3.71,5.87,2.23,10.07,6.54,13.69,11.42s6.07,10.37,8.42,15.9c.94,2.13,1.7,4.34,2.78,6.35,4.31,8.14,8.67,16.22,13.24,24.72a28.68,28.68,0,0,1,5.81-5.47,61,61,0,0,0,12.42-13c3.6-5.36,7.54-10.52,11.48-15.65,1.36-1.75,2.83-4.39,5.38-3.77,2.89.68,3.23,3.72,3.23,6.24-.08,10,.94,19.93-1.05,29.79a35.3,35.3,0,0,0-.28,4.85c-.2,3.23.2,6.46-1,9.64-.63,1.64.08,3.14,1.27,4.42,1.73,1.9,3.32,2.07,5.56.88a10.75,10.75,0,0,0,3.37-3.41,57.68,57.68,0,0,0,6.81-11.28c1.53-3.57,4.25-5.27,7.88-6A3,3,0,0,1,389,70.3c2.81,4.59,4.17,9.78,5.7,14.85a79.14,79.14,0,0,1,1.61,8.14c.51,3.09-.34,5.33-3.54,6.6-4.59,1.79-8.22,5.13-11.9,8.25a40.68,40.68,0,0,0-12.53,18.06,1.58,1.58,0,0,1-2.7.76,8.18,8.18,0,0,1-1.05-.9c-8.64-8.85-19.53-13.92-30.84-18.17A170.75,170.75,0,0,0,297,98.48a211.72,211.72,0,0,1-21-4.43,34.72,34.72,0,0,0-7.57-.85c-10.18,0-20.38,0-30.59-.11a61,61,0,0,0-21,3.68c-7.2,2.5-14.4,5-21.57,7.63a55.53,55.53,0,0,0-18.68,11.76c-1.36,1.28-2.67,2.58-3.94,3.94-2.1,2.24-3.8,2.7-4.45-1-1.82-10.12-8.51-16.61-16.84-21.79a27.21,27.21,0,0,0-11.79-3.83c-7.88-.77-15.74-.51-23.25,2.46a24.15,24.15,0,0,0-4.42,2C101.7,104.71,93.08,113,87.47,124a61.52,61.52,0,0,0-6.69,35C82.57,175.69,94,190.2,112,193.38c.45.08.93,0,1.36.14,7.4,2,7.06,1.48,4.51,8.11a295.35,295.35,0,0,0-12.79,40.31C100.82,260.59,97,279.35,93,298.09c-2.16,10.15-4.42,20.3-6.15,30.53-1.68,10-4,19.87-5,30-.82,8.25-1.7,16.52-2.86,24.72-.85,5.92-1,11.93-2.16,17.86-1.22,6.54-.93,13.35-1.84,20-1.53,10.8-.48,21.77-1.59,32.51-1.67,16-.7,31.92-1.1,47.88-.06,3.06,0,6-2.72,8.16a15.55,15.55,0,0,1-9.61,3.38c-1.93.08-3-1.14-3.6-2.72A64.5,64.5,0,0,1,52.8,497c-2.38-13.81-1.19-27.73-1.33-41.59-.08-8.78,1.25-17.49,2.3-26.16.31-2.75-.63-5.08-1.59-7.34-1.39-3.23-3.49-3.35-6.58-1.25s-4.42,5.3-7.08,7.54c-1.62,1.36-3.07,2.78-5.36,2.92s-3.4-.45-4.17-2.67c-1.87-5.18-1.42-10.51-.76-15.78,1.1-8.71,2.26-17.38,3.94-26,.73-3.77.17-7.88,2.52-11.28,4.53,1.13,8.05-.29,10.74-4.08,2.89-4.08,6.52-7.66,9.58-12.53-7,.05-10,6.94-16,6.86Z"/><path class="cls-5" d="M458.75,376.87c-.59-1.22-.93-1.59-1-2-.6-6.66-.94-13.35-1.73-20a201.23,201.23,0,0,0-5.27-29.23c-2-7.34-3.91-14.68-4.54-22.33-.68-8.25-1.56-16.53-2.95-24.69a232.67,232.67,0,0,0-7.76-32.23c-1.56-4.85-2.92-9.75-4.4-14.6-3.31-10.83-6.94-21.57-12.58-31.49a32.92,32.92,0,0,1-1.48-3.12c-1-2.27-.36-3.43,2.27-3.69a38.34,38.34,0,0,0,6.75-1.5c4.67-1.42,5.18-1.36,8.1,2.55,6.21,8.34,12.22,16.81,16.9,26.17,3.8,7.65,8,15.1,11.48,22.9,2.1,4.7,3.8,9.44,3.37,14.68-.25,3-1.16,4-4.25,4.48s-6.41.88-9.58,1.42c-4.08.74-5.81,3.09-5.75,7.26a14.58,14.58,0,0,0,2.06,6.54c3.15,6.21,5.73,12.62,8.31,19.08,3.17,8,5.24,16.24,7.4,24.49,2.55,9.81,4.14,19.84,6.43,29.74,1.31,5.5.88,11,.85,16.55,0,3.43-2.07,5.42-5.1,6.72-2.55,1.11-5.36.74-7.57,2.3Z"/><path class="cls-6" d="M39,365.7c4.25-3.12,8.28-6.52,13.18-8.65,1-.45,2.07-1.08,3.26-.79a4.11,4.11,0,0,1,1.73,1,1.37,1.37,0,0,1,0,1.87c-4.14,5.19-8.28,10.35-12.5,15.48a16.72,16.72,0,0,1-3,2.78c-1.87,1.39-3.37,1.22-5.5-.48-.51-.43-1-.94-1.47-1.42a45.2,45.2,0,0,1,2.75-4.68A8.91,8.91,0,0,0,39,365.7Z"/><path class="cls-1" d="M264.38,212.91c0,11.74-2.35,22.93-8.25,33.22a19,19,0,0,1-4.11,5.53c-11.08,9.1-22.87,16.19-38.15,15.76-7.91-.23-15.25-1.76-21.91-5.47-5.76-3.23-11.12-7.14-14.72-13.24-4.39-7.45-7.51-15.33-10.48-23.36-1.56-4.28-1.37-8.67-1.22-13,.48-14.93,6.52-27,18.08-36.7C194,167,206,162.85,219.14,161.49a17.26,17.26,0,0,1,7.48.82c3.94,1.33,8,2.18,12,3.26a10,10,0,0,1,2.58.94c8.67,5,15.7,11.36,19,21.17a79.44,79.44,0,0,1,4.17,25.23Z"/><path class="cls-1" d="M391.34,210.05c.57,13.21-3.68,25.14-11.67,35.94a20.8,20.8,0,0,1-7.06,6.52c-2,1.05-4,2.24-6,3.49a25,25,0,0,1-9.05,3.37,60,60,0,0,1-18,.34,25.78,25.78,0,0,1-12.13-4.79A139.22,139.22,0,0,1,313,243c-5.39-5.13-8-11.88-9.44-19a72.45,72.45,0,0,1-.4-28.26A34.66,34.66,0,0,1,312.88,177a63.32,63.32,0,0,1,13.69-10.61,41.71,41.71,0,0,1,28.24-4.19c14,2.61,23.38,11.73,31,22.85,4,5.78,5.21,12.78,5.53,19.81.08,1.62,0,3.26,0,5.19Z"/><path class="cls-7" d="M360.82,418.71c-5.79,1.38-10.78,2.6-15.79,2.18-9-.74-18.06-.57-27-2.24-6-1.14-11.57-3-16.21-7.26a16.15,16.15,0,0,1-5.3-15.67A23.51,23.51,0,0,1,301.09,385c2.3-2.89,4.59-5.81,7.14-8.5a262.25,262.25,0,0,1,26.17-23.9,53.1,53.1,0,0,1,10.54-6.6,31.85,31.85,0,0,1,6.49-2.33c2.92-.68,5-.11,4.91,1-.17,2-2.19,2.12-3.41,3a273.81,273.81,0,0,0-41,35.32,74.14,74.14,0,0,0-4.85,5.9,19.07,19.07,0,0,0-2,2.83c-3.91,7-2.21,12.39,5,16a23.65,23.65,0,0,0,7.94,2.47c5.76.65,11.45,1.58,17.26,1.73a101.61,101.61,0,0,1,13.81,1.3,23,23,0,0,1,11.71,5.56Z"/><path class="cls-8" d="M288.59,286.07a52.3,52.3,0,0,1-4.4,4.65c-4.45,3.74-9.41,5.7-15.39,4.37-3.57-.8-5.72-2.81-6.29-6.44a31.36,31.36,0,0,1-.6-4.79c0-3.06,1.73-6.32,2.78-5.67,2,1.25,1.76,3.49,2,5.47.05.46,0,.91,0,1.39.4,4.28,1.76,5.5,6.1,5.67,6.83.26,14.57-5.7,14.51-12.19,0-1.39.43-2.75.48-4.14.17-3-.19-4.16-3.65-4.59a16,16,0,0,1-9.41-4,5.79,5.79,0,0,1-2.07-4.93c.36-4.51,1.7-8.19,5.67-11.22,4.28-3.24,8.5-4.28,13.55-2.92,1.78.48,3.65.68,5.41,1.19a14.57,14.57,0,0,1,6.6,3.68,8,8,0,0,1,1.53,9.55c-2.52,4.85-6.86,7.35-11.87,8.82-3.21,1-3.23.94-3.21,4.17,0,1.87-.11,3.71,0,5.55.34,4.88,3.18,7.71,8.39,8.56,4.65.77,8.37-1.1,10.21-5.21.56-1.25.71-2.72,1.33-3.94a3.58,3.58,0,0,1,2-1.79c1.25-.25,2.05.85,2.67,1.82a7.52,7.52,0,0,1,.45,6.69c-1.81,5.35-8.56,10.26-14.88,8.36-4.85-1.45-9-3.46-12-8.14Z"/><path class="cls-7" d="M201.91,350.31a92.6,92.6,0,0,1,29.36,15.25c5.5,4.25,11.17,8.27,16.61,12.58,2.72,2.13,5.19,4.59,7.71,7,3.41,3.17,4.51,7.45,5.39,11.79.45,2.15-.57,4.11-1.56,5.92a13.32,13.32,0,0,1-4.76,5c-6.92,4.34-14.09,8-22.45,8.48-3,.17-6,.62-9,.71-5.1.17-10.2.14-15.11,1.73-5.18,1.7-10,.39-14.79-1.62-.49-.26-.66-.51-.49-.77s.32-.39.49-.39c5.27-3.57,11-5.05,17.4-5.81,8.22-1,16.5-1.62,24.69-2.72,5.78-.77,11.06-3.21,16-6.3,2.83-1.76,3.14-3.4,1.76-6.43a19.58,19.58,0,0,0-5.53-7c-2.16-1.76-4.37-3.43-6.52-5.16-4.88-3.92-9.84-7.68-14.54-11.77a126.92,126.92,0,0,0-21.4-15.19c-1.79-1-3.78-1.79-5-3.54-.23-1.45.08-2.3,1.79-1.7Z"/><path class="cls-9" d="M383.52,153.16c-2.63.34-3.54,0-3.77-1.42A22.68,22.68,0,0,1,396.84,126c4.31-1,8.28.09,12.22,1.39a34.73,34.73,0,0,1,10.23,5.75,15.48,15.48,0,0,1,6.44,13.18c0,1.62-.11,3.24-.23,4.88-.48,8-4,14.06-11.25,17.89A91,91,0,0,1,401,175c-1.7.57-3.2.06-3.43-2.15-.56-1.36-.7-2.64.74-3.6a33,33,0,0,0,13.27-5.7c7.51-5.3,10.2-15.51,5.52-21.69-5.86-7.73-18.42-9.75-25.56-4.25-4.88,3.74-4.43,9.36-5.56,14.46-.57.93-1.22,1.64-2.41,1.08Z"/><path class="cls-10" d="M145.92,146.07c.28,1.59.6,3.15.85,4.73a3.71,3.71,0,0,1-1.5,3.69c-6.18,4.53-8.73,11.14-10.49,18.22-.06.23-.08.46-.14.69a3.55,3.55,0,0,1-4.22,2.66c-13.3-2.3-20.61-10.29-23.48-22.42-2.6-11,1.28-20.16,10.63-26.36a11.84,11.84,0,0,1,8.51-2.24c5.87.85,11.28,2.63,14.54,8.13.54,1.25-.17,1.87-1.16,2.33-1.76.31-3.06-.71-4.45-1.51-9.44-5.41-17.78-2.75-22.08,7s2.77,24.3,13,26.68c1.27.28,3.34,1.22,3.71-.34,2-8.14,10-11.94,13.29-19.11.66-1.16,1.14-2.58,2.95-2.18Z"/><path class="cls-11" d="M124.24,292.59a3.61,3.61,0,0,1-2.53-2.15c-1.36-2.95-2.46-6-2.07-9.33a133.57,133.57,0,0,1,5.81-26.81,2.63,2.63,0,0,1,.8-1.11,1.69,1.69,0,0,1,1.19-.48,2,2,0,0,1,1.08.79c1.07,1.39.82,3.06.82,4.65,0,7.14.08,14.29,0,21.43-.09,5.7-1.05,8-5.1,13Z"/><path class="cls-12" d="M335.1,476.82c0-2,0-3.58,0-5.19a2.58,2.58,0,0,1,1.76-2.67,3,3,0,0,1,3.06,1.08,9.8,9.8,0,0,1,2.07,2.75c2.81,6.58,4.82,13.35,4.26,20.67a5.63,5.63,0,0,1-.17,1.36c-.54,1.84-1.56,3.54-3.46,4-2.16.51-3.26-1.36-4.23-2.89a8.68,8.68,0,0,1-1.61-3.77c-.17-5.27-2.41-10.32-1.68-15.33Z"/><path class="cls-13" d="M365.61,484.89c0,.68,0,1.14-.09,1.59-.48,2.86-2.49,5.53-4.31,5.73-2,.22-4.14-1.62-5.21-4.71a16.83,16.83,0,0,1-1.22-4.65c-.14-4.36-.06-8.73-.06-13.12a2.12,2.12,0,0,1,1.47-2.1,2.46,2.46,0,0,1,2.56.57,12.31,12.31,0,0,1,2.29,2.55c2.64,4.42,3.21,9.52,4.57,14.14Z"/><path class="cls-14" d="M248.9,328.17c-.34-4.94,1.62-9.56,1.87-14.4a6.48,6.48,0,0,1,1.2-2.47c.42-.74,1.78-.62,2.32.11,1.44,2,1.5,4.37,2,6.58.77,3.15,1.53,6.26,2.1,9.44a11.23,11.23,0,0,1-1.39,8c-2.84,4.76-3.86,3.57-6.55.65-2.15-2.35-1.44-5.21-1.59-7.93Z"/><path class="cls-15" d="M113.58,490.68c-3.12-4.68-4.37-9.22-3.55-14.06a121.38,121.38,0,0,1,3.26-11.94,9.78,9.78,0,0,1,.66-1.22,2.42,2.42,0,0,1,2.12-1.5c1.39,0,1.82,1.08,2.24,2.21a27.73,27.73,0,0,1,.68,15,28.92,28.92,0,0,1-5.41,11.54Z"/><path class="cls-13" d="M371.3,476.53c0-2.07-.05-4.16.06-6.23a7.16,7.16,0,0,1,.71-2.61,2.2,2.2,0,0,1,3.49-.65,20.15,20.15,0,0,1,1.58,2.24c2.27,3.6,2.92,7.76,3.8,11.79a9.84,9.84,0,0,1-1.78,7.91c-1.59,2.26-4.2,2.46-5.76.28a10.12,10.12,0,0,1-2.07-5.78c0-.46,0-.94,0-1.39v-5.56Z"/><path class="cls-13" d="M150.91,500.09a9.26,9.26,0,0,1-5.07-8.76,48.09,48.09,0,0,1,3.23-16.9,2.4,2.4,0,0,1,1.53-1.19,1.72,1.72,0,0,1,2.07,1.34A36.93,36.93,0,0,1,154.14,491c-.37,3.06-2.07,5.92-3.23,9.07Z"/><path class="cls-13" d="M276.94,326a12.57,12.57,0,0,1-1.42,6c-1.13,1.9-1.53,5.13-4,5.13-2.94,0-3.14-3.49-4.08-5.7a8.47,8.47,0,0,1-.37-4.05,58.77,58.77,0,0,1,3.26-12.56,2.29,2.29,0,0,1,2.07-1.56,2.34,2.34,0,0,1,2.44,2c.79,3.54,1.42,7.14,2.1,10.71Z"/><path class="cls-14" d="M372.72,289.16c0-2.29,0-4.56,0-6.86,0-1.22.51-2.27,1.9-2.44a2.1,2.1,0,0,1,2.21,1.28c1,2.07,2,4.14,2.81,6.26.9,2.33,1.75,4.71,2.43,7.15a8.24,8.24,0,0,1-.79,6.63,3.64,3.64,0,0,1-5.78,1,9,9,0,0,1-2.78-6.09c0-.45-.06-.93-.06-1.39v-5.5Z"/><path class="cls-15" d="M131.24,494.7c-3.49-7-4.42-13.09-2-19.61.93-2.58,1.5-5.33,2.35-7.94.25-.77.62-2,1.84-1.45a2.69,2.69,0,0,1,1.22,1.53c2.35,8,2.55,15.91-1.7,23.48a41,41,0,0,0-1.67,4Z"/><path class="cls-13" d="M142.69,299.88a9.14,9.14,0,0,1-5.05-8c-.17-4.79.09-9.6.23-14.42a4.88,4.88,0,0,1,.71-1.87,1.85,1.85,0,0,1,2.89-.43l.4.57c3,4.31,3.31,9.44,3.94,14.37.45,3.4-1.45,6.58-3.12,9.81Z"/><path class="cls-13" d="M261.52,129.8c.39-1.36-1.62-4.57,1.47-5.27,2.18-.49,2.86,2.6,4,4.22a22.39,22.39,0,0,1,4.28,12.16,6.12,6.12,0,0,1-2.5,5.39,2.65,2.65,0,0,1-3.71-.17,7.45,7.45,0,0,1-2.32-4.09,36.59,36.59,0,0,1-1.22-12.24Z"/><path class="cls-11" d="M159.78,378.28c.06-5.07-.25-8.59,1.79-11.7a2.89,2.89,0,0,1,1.5-1.31,1.82,1.82,0,0,1,2.1,1.33c1.44,3.89,3,7.77,4.14,11.74.85,3-1.9,7-5.08,8.11-1.53.48-3.85-1-4.11-2.87a42.6,42.6,0,0,1-.34-5.3Z"/><path class="cls-15" d="M388.17,283.75c0-1.62-.11-3.23,0-4.82a2.34,2.34,0,0,1,3.65-1.59c4.65,2.69,8.23,12.84,4,18.34-1.36,1.79-2.92,2-4.56.31-2.24-2.24-2.7-5.21-3.18-8.13a25.61,25.61,0,0,1,0-4.11Z"/><path class="cls-15" d="M376.77,376.47a22.41,22.41,0,0,1,1.2-2.55c.73-1.16,2.77-1.5,3.62-.51,3,3.48,6.1,6.94,7,11.71.48,2.46-2.12,6.37-4.62,6.57a3.25,3.25,0,0,1-1.87-.71,6.69,6.69,0,0,1-2.86-3.8c-.91-3.54-1.67-7.11-2.5-10.71Z"/><path class="cls-14" d="M287,327.8c1.42-2.5.54-6.3,1-9.92.08-.66.31-1.48,1.16-1.48a3.26,3.26,0,0,1,1.84.46c2,1.39,2.84,3.6,3.6,5.75.46,1.3.43,2.75.94,4a7.47,7.47,0,0,1-.71,7.22c-.74,1.11-.94,3-2.41,3.07-2,.14-3.43-1.19-4.37-2.9a7.67,7.67,0,0,1-1-6.23Z"/><path class="cls-15" d="M182.18,390.3c-6.52-5.33-5.87-12-5.36-18.65.08-1,1.13-1.39,2.1-1,4.28,1.75,6,5.41,6.86,9.58a4.75,4.75,0,0,1-.4,2.61c-.91,2.29-2,4.56-3.2,7.42Z"/><path class="cls-15" d="M155.73,294.77c.48-3,1.1-7,1.81-11,.06-.31.65-.65,1-.71a1.49,1.49,0,0,1,1.22.28,6.29,6.29,0,0,1,1.36,2.33c.91,3.74,1.7,7.54,2.55,11.31,0,.23.09.45.12.68.28,2.78-2,6.49-3.89,6.46s-3.94-2.52-4.19-5.47c-.09-.93,0-1.84,0-3.83Z"/><path class="cls-13" d="M429.24,374.43c-.28.93-.59,2-1,3.12-.62,1.75-1.33,2-3.12,1.19A8.48,8.48,0,0,1,419.8,373c-.68-2.63-1.7-5.18-2.43-7.82-.29-1,1.19-2.18,2.21-2,5,1,9.78,6.47,9.66,11.26Z"/><path class="cls-13" d="M399.14,369.81c.2-.88.28-1.33.4-1.76.31-1.13,1.95-1.79,2.72-1,3.29,3.54,6,7.4,7.08,12.27.43,2-.56,3.55-1.81,4.91a2.94,2.94,0,0,1-4.28,0,9.47,9.47,0,0,1-2.13-3.43c-1-3.74-.73-7.68-2-11Z"/><path class="cls-15" d="M276.82,132.55c0-.2-.7-2.5,1.28-3.38,2.44-1.07,3.52,1.51,4.79,2.87,3.66,3.88,4.2,7.91,1.87,11.79-.85,1.42-1.95,1.64-3.48.94-2.81-1.31-3.94-3.75-4.4-6.52a42,42,0,0,1-.06-5.7Z"/><path class="cls-11" d="M412.83,286.92a5.64,5.64,0,0,1-3.49,4.76c-1.61.46-4.39-1.38-4.53-3.31-.28-3.69-.31-7.34-1.19-11-.26-1,1.33-2.18,2.38-1.82a5.92,5.92,0,0,1,1.81.91c2.24,2,4.82,7.48,5,10.43Z"/><path class="cls-16" d="M299.13,128.38c.68.4,1.45.57,1.79,1.05,2,2.66,2.66,5.81,3.43,8.9.48,1.93-.48,3.54-1.93,4.88a1.9,1.9,0,0,1-2.95-.12,5.19,5.19,0,0,1-1.78-3.6c0-3.2,0-6.4.17-9.61,0-.48.79-1,1.27-1.5Z"/><path class="cls-15" d="M203,384.21c.17-1.22-.48-3.55.82-5.64.43-.71,1.85-1,2.3-.34,1.81,2.6,3.49,5.33,3.8,8.56a7.85,7.85,0,0,1-.51,3.31,3.53,3.53,0,0,1-3.94,2,2.66,2.66,0,0,1-2.44-2.78c-.09-1.36,0-2.72,0-5.1Z"/><path class="cls-17" d="M383.52,153.16c.54-.49,1.08-.94,1.65-1.42,6.8,1.47,13.72,10.54,13.66,18-1.08.79-1.08,2-1.31,3.15-3.43-7.43-8.73-13.55-14-19.7Z"/><path class="cls-18" d="M145.92,146.07c-1.19.65-1.22,1.9-1.5,3-4.71-3.6-5.13-8.84-5.42-14.14.54-.6,1.08-1.16,1.62-1.76a23.26,23.26,0,0,1,5.3,12.9Z"/><path class="cls-19" d="M201.91,350.31l-1.79,1.7a8.72,8.72,0,0,1-4.68-4.28,1.54,1.54,0,0,1,2.16-.15c1.44.91,2.89,1.82,4.31,2.73Z"/><path class="cls-20" d="M197.6,347.58c-.71.06-1.45.09-2.16.15-1.05-1.25,0-1.36.8-1.25.51.08.9.74,1.36,1.1Z"/><path class="cls-21" d="M193.32,415.93v1.16c-.88.2-2.22.17-2.24-.54s1.36-.74,2.24-.62Z"/><path class="cls-6" d="M200.2,84.81c-.11,2.78,2.7,4.23,3,6.86.14,1.5,1.56,3,.06,4.48-1.65,1.64-3.29.79-5.1.26a21.33,21.33,0,0,1-8.82-5.16c-4.68-4.42-9.13-9.07-13.66-13.64A8.92,8.92,0,0,1,174.38,76a2.86,2.86,0,0,1,.09-3.23,2.06,2.06,0,0,1,3-.6c6.21,3.4,13.15,5.5,18.57,10.38a19.56,19.56,0,0,0,4.19,2.32Z"/><path class="cls-6" d="M184.5,97.31c0,2.19-3.37,4.62-5.56,3.86A13.18,13.18,0,0,1,173.7,98c-5.67-5.72-11.37-11.45-17.09-17.12a20.91,20.91,0,0,1-4.2-7A1.47,1.47,0,0,1,153,72a1.4,1.4,0,0,1,1.84.26c6.15,5.64,13.27,9.83,20.38,14.06a59,59,0,0,1,5.76,3.8,10.73,10.73,0,0,1,3.54,7.22Z"/><path class="cls-6" d="M67.8,384.46c.37,3-.09,4.25-.71,5.53a73.68,73.68,0,0,1-9.75,15c-3.52,4.28-8.51,6.12-13.66,7.54a1.51,1.51,0,0,1-1.2-.43,1.37,1.37,0,0,1-.17-1.22c4.37-7.54,8.14-15.5,15.08-21.26,2.1-1.73,3.72-4,5.7-5.92a2.6,2.6,0,0,1,3.18-.54c1.07.62,1.56,1.64,1.53,1.3Z"/><path class="cls-6" d="M61.65,241.94c-3.26.05-5.08-2.21-4.28-4.6a12.8,12.8,0,0,1,3.23-5.24c1.81-1.76,3.46-3.74,5.41-5.33,4.45-3.6,9-7.06,13.58-10.54a2.31,2.31,0,0,1,2.61-.17,2.56,2.56,0,0,1,1,3,10.36,10.36,0,0,1-1.51,3c-2.72,4-5.21,8.17-8.36,11.79a29.68,29.68,0,0,1-9.72,7.49,11.22,11.22,0,0,1-2,.54Z"/><path class="cls-6" d="M51.92,276.21c3.89-4.59,7.4-8.82,11-13a11.28,11.28,0,0,1,2.53-2.35q7-4.38,14.2-8.56a2.4,2.4,0,0,1,1.95.14,1.94,1.94,0,0,1,.91,2.33c-.57,3.34-2.5,6-4.54,8.42-4.5,5.41-9.8,9.8-17.15,10.8-2.86.39-5.35,2.35-8.9,2.21Z"/><path class="cls-6" d="M59.58,254.24c-.14-4.79,3.4-8.16,7.06-11.4a40.76,40.76,0,0,1,12.3-7.48,2.33,2.33,0,0,1,3,2.67,5.43,5.43,0,0,1-.48,1.95c-4.45,6.8-9.38,13.1-17.15,16.41a16.64,16.64,0,0,1-2.6.8c-1.59.37-2.41-.54-2.1-2.95Z"/><path class="cls-6" d="M63.89,371.42a5.65,5.65,0,0,1-1.39,4.74c-4.23,4.22-8,8.87-13.27,12a7.93,7.93,0,0,1-4.53,1.25c-2.36-.06-3.38-1.45-2.47-3.63,1.76-4.31,4-8.17,8.31-10.63a31.86,31.86,0,0,0,8.22-6.21c.76-.88,1.78-1.64,3-1.19a3.47,3.47,0,0,1,2.1,3.29,1.81,1.81,0,0,1,0,.39Z"/><path class="cls-6" d="M200.23,84.84a5,5,0,0,0-1.16-3.15,20.34,20.34,0,0,1-2.61-3.17c-.88-1.56-2.49-3.37-1.22-5,1.76-2.29,3.75-.19,5.53.51s3.29,1.62,4.91,2.5a13.06,13.06,0,0,1,6.29,7,23.15,23.15,0,0,0,3.57,6.89c-7.23-.8-9.67-1.7-15.34-5.56l0,0Z"/><path class="cls-6" d="M335.16,82.29c0-1.84-.08-3.71,0-5.53a6.3,6.3,0,0,1,.74-2.61,3,3,0,0,1,1.56-1.21,1.85,1.85,0,0,1,2.32,1,55.63,55.63,0,0,1,4.85,14.28c.56,3.15-1.39,5.7-3.12,8.14-.65.91-1.7.54-2.44-.09a10.38,10.38,0,0,1-3.94-7.76c-.08-2.07,0-4.14,0-6.21Z"/><path class="cls-6" d="M349,98.14c-.43-3.52,1.81-6.64,1.47-10.18-.14-1.45-.63-3.63,1.64-3.86,1.48-.17,2.21,1.45,2.75,2.75a39,39,0,0,1,2.5,9.92,8.56,8.56,0,0,1-1,5.36c-.77,1.39-1.34,3.18-3.29,3s-3.15-1.82-3.72-3.6a13.64,13.64,0,0,1-.36-3.4Z"/><path class="cls-6" d="M454.81,239.05a15.36,15.36,0,0,1-.93,3.17c-1.65,3-3.41,5.92-5.16,8.87-.85,1.48-2.38,2.1-3.83,2.72-2.18.94-5.55-1.67-4.93-4,.51-1.93.62-4.23,2.27-5.65,2.94-2.52,6-4.9,9-7.25a2,2,0,0,1,2.55.2,6.18,6.18,0,0,1,1,1.9Z"/><path class="cls-22" d="M447.13,230.29c-1,3.23-1.39,7.56-5.95,9.44-1.31.53-2.64,1.21-3.83.05-1.33-1.33-2.32-3-1.76-5,1.08-3.68,6.64-7.17,10.24-6.55.68.12,1.33.46,1.3,2Z"/><path class="cls-23" d="M230,172.35c6.5-1,11.37,1.87,14.89,6.86,1.78,2.55,2.66,5.81,3.82,8.78a35.82,35.82,0,0,1,1.28,4.62,10,10,0,0,1-.74,6.72c-2.78,6.1-7.93,9.44-13.8,11.82A10.23,10.23,0,0,1,228,211c-8.73-3.29-14.14-9.3-15.16-18.79a44.31,44.31,0,0,1-.06-5.53c0-6.15,3.46-10.17,8.45-13.15,2.75-1.65,5.86-.8,8.78-1.16Z"/><path class="cls-23" d="M342.11,189.92a25.69,25.69,0,0,1,1.78-9c1.84-4.48,10.12-9.08,14.94-8.34a25.45,25.45,0,0,1,13.07,5.87c4,3.43,5.61,7.88,6.26,12.7.68,5.13-2.49,8.76-6,11.9-5.58,5-11.82,5.9-18.54,2.36-1.81-1-3.51-2.19-5.27-3.26-4.7-2.84-5.95-7.43-6.26-12.25Z"/><path class="cls-24" d="M398.83,169.71c-2.53-7.54-7.66-13.1-13.66-18a15.35,15.35,0,0,1,.76-9.53c2.44-6.63,7.77-10.09,16.7-9.61,5.44.29,10.2,2.87,14.37,6.38a11.42,11.42,0,0,1,2.61,3.18c3.11,5.89.42,17.52-4.94,21.46a53.27,53.27,0,0,1-12.78,6.94,2.47,2.47,0,0,1-3.06-.85Z"/><path class="cls-24" d="M139,134.93c2.36,4.51,3.8,9.35,5.42,14.14a4.17,4.17,0,0,1-1.22,3.12c-1.25,1.05-2.44,2.13-3.66,3.23a26.39,26.39,0,0,0-7.74,11.31c-.36,1.08-.9,2.1-1.3,3-14.63,1.27-22.36-16-20.41-25.83a19,19,0,0,1,10.66-13.8c4.65-2.21,9.55-1.16,13.95,1.33a29.23,29.23,0,0,1,4.3,3.46Z"/></g></g></svg>