<svg xmlns="http://www.w3.org/2000/svg" viewBox="0 0 499.88 560.9"><defs><style>.cls-1{fill:#543828;}.cls-1,.cls-10,.cls-11,.cls-12,.cls-13,.cls-14,.cls-15,.cls-16,.cls-17,.cls-18,.cls-19,.cls-2,.cls-20,.cls-21,.cls-22,.cls-3,.cls-4,.cls-5,.cls-6,.cls-7,.cls-8,.cls-9{fill-rule:evenodd;}.cls-2{fill:#e8cba9;}.cls-3{fill:#9f6b49;}.cls-4{fill:#fec773;}.cls-5{fill:#fac572;}.cls-6{fill:#634533;}.cls-7{fill:#6f4e3b;}.cls-8{fill:#6a4c3b;}.cls-9{fill:#705341;}.cls-10{fill:#84593e;}.cls-11{fill:#563a29;}.cls-12{fill:#d3a979;}.cls-13{fill:#d3aa7a;}.cls-14{fill:#d5aa7a;}.cls-15{fill:#d5ab7b;}.cls-16{fill:#d5aa7b;}.cls-17{fill:#d4ac7c;}.cls-18{fill:#d5ab7c;}.cls-19{fill:#90705a;}.cls-20{fill:#dcb68b;}.cls-21{fill:#9d7d66;}.cls-22{fill:#fff;}</style></defs><title>Asset 1</title><g id="Layer_2" data-name="Layer 2"><g id="Layer_1-2" data-name="Layer 1"><path class="cls-1" d="M317.93,531.31c-.2-.12-.4-.32-.6-.32-13.21,0-26.42,0-39.6.09a26.21,26.21,0,0,0-5.5.76c-13.38,3.15-27,4.28-40.65,4.48a362.66,362.66,0,0,1-38.86-1.07,149.38,149.38,0,0,1-21.85-3.75l-7.57-1.87a45.63,45.63,0,0,1-3.38,13c-2.35,5.44-5.72,10-11,13a12,12,0,0,1-12.53,0c-3.46-2-6.55-4.42-8.22-8.19a4.46,4.46,0,0,0-2.15-2.61c-3.41,2.35-6.75,4.85-10.27,7.09a58.2,58.2,0,0,1-7.31,3.91c-9.58,4.31-19.56-1.11-17.77-13.69,1.7-12.11,6.46-22.65,15.79-30.84.68-.63,1.44-1.14,2.15-1.76.51-.45.94-1,1.42-1.47-.77-2-2.58-2.61-4.08-3.58a60.31,60.31,0,0,1-19.53-21.31c-3-5.22-6.13-10.38-8.31-16-.68-1.76-1.7-2.07-3.15-1.16a3.32,3.32,0,0,1-3.88-.06c-.76-.51-1.56-1-2.27-1.59C45.63,446.66,26.27,425.72,13,399.58,4.42,382.57.56,364.35.08,345.35a233.49,233.49,0,0,1,1.44-32.6c1.37-11.82,4.71-23.1,9-34.12C18.59,258.05,29.05,238.74,41,220.2c5.5-8.5,12.28-15.67,21.52-20.12a4.06,4.06,0,0,0,2.47-3q3.44-15.21,6.91-30.41a24.8,24.8,0,0,1,1.16-4c6.27-15.19,11.54-30.75,18.46-45.66A180.47,180.47,0,0,1,115.9,77.51c.6-.71,1.08-1.48,1.7-2.33-2.12-4.42-4.19-8.78-6.35-13.12-2.55-5.13-3.14-10.52-2.94-16.19.25-7.25,3.85-12.19,10.09-15.3,8.56-4.31,17.2-5,25.82.05,3.6,2.1,7.29,4.06,11.08,6.18,1.82-.79,2.55-2.89,3.8-4.48,5.7-7.31,12.53-13,21.74-15.25a67.56,67.56,0,0,0,14.26-5.35C203.92,7.18,213.33,5.11,223,4,234.31,2.7,245.59,1.65,256.87.35A48,48,0,0,1,267.92.29c5.31.6,10.66.48,15.94,1.25,18.85,2.72,35.91,10.09,52,20.12,8.25,5.16,15.51,11.66,23.59,17.18,2.43-2.09,4.84-4.22,7.34-6.29,4.73-3.94,10.2-5,16.21-4.34a46,46,0,0,1,13.92,4.06c7.6,3.43,12.16,9.24,13.1,17.46,1.39,12.22-2.1,22.87-11.09,31.52-2,2-2.18,1.93-1,4.59,2.7,6.12,5.22,12.36,8.22,18.34a262.75,262.75,0,0,1,21.07,56.44c1.64,6.75,3.68,13.38,5.52,20.07a9.52,9.52,0,0,0,3.77,5.58,32,32,0,0,1,5.1,4.71q12.85,14.11,25.57,28.4c14.6,16.47,23.59,35.83,29.26,56.92,3.34,12.42,3.91,25.06,3.23,37.87a309.11,309.11,0,0,1-5.36,42,133.06,133.06,0,0,1-9.75,29.6c-4.14,9-8.22,18.11-13.15,26.78a58,58,0,0,1-15.08,18c-5,3.79-10.07,7.37-16.53,7.34-.23.82-.54,1.27-.45,1.64,1.22,5.53-.2,10.58-3,15.28-4.14,7-8.36,13.89-12.7,20.72a37.27,37.27,0,0,1-9.52,10q-15.69,11.52-31.44,22.9c-3,2.15-6.26,4-9.38,5.95-1.39.88-1.53,1.85-.88,3.43a86.26,86.26,0,0,1,4.23,11.74c2.26,8.87-.8,14.82-9.76,19-3.68,1.7-7.59.77-11.48-.56-2.29-.8-4.11-4-6.6-2.53-1.76,1.08-2.67,3.69-3.77,5.7-2.13,3.83-5.59,6.15-9.24,8.19a11.87,11.87,0,0,1-16.56-5,17.41,17.41,0,0,1-2.09-7.28,45.57,45.57,0,0,1,.56-12.45c.23-1.07.85-2.12.26-3.28Z"/><path class="cls-2" d="M134.92,344.47q-4.24,12.81-8.56,25.66a142.25,142.25,0,0,1-8.62,21.2,23,23,0,0,1-4.28,6.29,3.59,3.59,0,0,1-5.49-.25c-1.08-1.47-1.82-3.23-2.84-4.76a2.55,2.55,0,0,0-2.35-1.14,2.57,2.57,0,0,0-2.16,1.56,16.86,16.86,0,0,0-.79,3.35q-2.64,15.76-5.19,31.52A74.94,74.94,0,0,1,90.53,444a30,30,0,0,1-5.64,9.49,19.12,19.12,0,0,1-3.71,3.07,3.06,3.06,0,0,1-3.83-.23c-11-8.16-21.51-16.84-30.56-27.18-9.92-11.37-18.9-23.42-25.56-37a106.87,106.87,0,0,1-10.38-37.93,199.89,199.89,0,0,1,1.59-45.67,98.61,98.61,0,0,1,5.81-20.69,322.88,322.88,0,0,1,39.34-73.22c1.73-2.44,3.63-4.79,5.5-7.14A5.51,5.51,0,0,1,68.25,205c3.29.17,5.25-2.66,6.35-5.58a40.33,40.33,0,0,0,1.48-6c5.72-26.65,15.67-51.79,27-76.4a18.14,18.14,0,0,1,2.1-3.6c7-8.64,14.31-17,23.38-23.64,9.58-7,19.53-13.18,31-16.83a92.4,92.4,0,0,1,30.7-4.77,65.69,65.69,0,0,1,35.17,11.6c1.73,1.16,3.46,2.29,5.16,3.46,5.08,1.13,7,6,10.77,8.78,7.57-5.78,14.69-12.1,22.91-17.06a35.93,35.93,0,0,1,9.81-4.42,156.88,156.88,0,0,1,28-7.69,47.72,47.72,0,0,1,18.6.15c11.14,2.26,22.05,5.15,32.17,10.48a33.06,33.06,0,0,1,3.06,1.65c15.42,10,30,20.89,41.47,35.52a11.31,11.31,0,0,1,1.9,2.86c5,12.44,11,24.49,14.71,37.45,3,10.65,6,21.37,8.76,32.08,1,3.66,1.9,7.12,5.59,9.05a7.33,7.33,0,0,1,2.43,2.43c5.79,8.45,13.07,15.59,19.88,23.19,4.79,5.36,9.69,10.57,14,16.33a125.19,125.19,0,0,1,24.6,59.61,113.81,113.81,0,0,1,.12,24.27,308,308,0,0,1-4.45,33.7c-2.24,11.65-6.47,22.68-11.6,33.34-3.31,6.88-6.63,13.74-10.12,20.55A47.38,47.38,0,0,1,448,423.25a46.07,46.07,0,0,0-5.3,4.45,6.23,6.23,0,0,1-5.1,1.67,18.65,18.65,0,0,1-10.21-3.88c-4.9-3.69-8.45-8.56-11.91-13.47-5.52-7.85-9.18-16.58-12-25.68-1.22-4-2.27-8-3.4-12-.45-1.56-.88-3.14-1.47-4.65-1-2.52-2.47-3.57-4.79-2.55-5.11,2.24-8.42-.05-11.4-3.77a67.13,67.13,0,0,1-8.59-13.4c-3.77-7.94-7.48-15.91-11.22-23.87-.4-.82-.85-1.65-1.28-2.47a4.25,4.25,0,0,1-.91-1.87.89.89,0,0,0-.28-.91,6.66,6.66,0,0,1-2.07-5.1c-.74-1.53-.51-3.51-2.27-4.85,1.59,1.45,1.51,3.41,2.21,5,.49,2.16.2,4.37.63,6.52.11.88.2,1.73.31,2.61.85,1.39.23,3.12,1,4.56.14,4,1.67,7.66,3,11.34a102,102,0,0,0,12.41,24,49.08,49.08,0,0,0,5.36,6.35c2.89,2.84,6.24,4.82,10.57,4.09,2-.34,2.92.65,3.46,2.46,2,6.41,3.77,12.87,6,19.19a82,82,0,0,0,19.53,30.87,34.52,34.52,0,0,0,8.14,6.44c.65.36,2.29.48,1.61,1.67-1.07,1.87,2.38,2.75.77,4.53a4.56,4.56,0,0,0-.54,1.31c-4.31,11.34-10.69,21.49-18.23,30.95a30.35,30.35,0,0,1-6.18,5.56c-6.4,4.59-12.89,9-19,14a100,100,0,0,1-51,21.89,17.53,17.53,0,0,0-2.75.45c-11.26,3.2-22.71,4-34.36,3.68-8.1-.22-16.21.29-24.32.32-7.62,0-15.28,0-22.93-.26a29,29,0,0,0-10.92,1.36c-12.27,4.4-24.94,4.4-37.67,3.6-5.55-.34-11.08-.79-16.58-1.47a134.35,134.35,0,0,1-29.51-7.6c-12.41-4.45-24.72-9.1-36.57-15-16.32-8.08-28.23-20.7-37.67-35.95-.08-.14,0-.42.09-1.13A30.94,30.94,0,0,0,96,446.27a72.26,72.26,0,0,0,4.19-15.37c1-6.4,2-12.81,3.06-19.19.4-2.49,1-5,1.48-7.37a5.86,5.86,0,0,1,1,0c6.27,1.9,9.38,1.08,13.15-4a51.68,51.68,0,0,0,5-8.31,158.11,158.11,0,0,0,12-35.43,65.64,65.64,0,0,0,.77-7.6c1.59-3-1-6.12.45-9.1.85-2.63.83-5.44,1.28-7.2a22.21,22.21,0,0,0-.62,4.23c-1,2.49-.74,5.41-2.7,7.56Z"/><path class="cls-3" d="M232.21,81.67c-9.92-9-21.83-13.8-34.7-16.32a58.14,58.14,0,0,0-18.71-.14,103,103,0,0,0-28,7.54c-8.14,3.54-15.22,8.64-22.57,13.46-4.67,3.09-8.33,7.34-12.72,10.72-1.31.36-1.93,0-1.48-1.48,2-6,5.76-11,8.39-16.7,1-2.18,2-4.22-.48-6.17-.59-.49-.73-1.65-1-2.53-1.93-7.17-3.21-14.43-2.72-21.91.28-4.31,1.13-5.47,5.41-7,6.21-2.18,12.25-2.07,18,1.44,2.38,1.45,4.82,2.78,7.2,4.17a3.19,3.19,0,0,0,3.88-.17c3.49-2.66,7-5.24,10.55-7.85,5.44-4,11.11-7.37,17.8-9a64.52,64.52,0,0,0,14.26-5.38,66.31,66.31,0,0,1,23.07-6.92c7.8-.91,15.62-1.73,23.33-2.89,6.18-1,12.5-.4,18.57-2.13a6.34,6.34,0,0,1,3.43,0c4.56,1.33,9.21.79,13.8,1.1A84.09,84.09,0,0,1,300.58,18c5.87,2.1,11.65,4.54,17.32,7.09,10,4.45,18.74,11,27.44,17.51a11.22,11.22,0,0,1,1.05.91c4.9,5,10.43,4.65,16.38,2.18,4.68-2,9.19-4.28,14.4-4.76,6.95-.59,13.47.8,19.05,4.74,4.11,2.89,5.1,7.68,3.94,12.5a39,39,0,0,1-3.57,9,84.69,84.69,0,0,0-6.24,15.42c-.25.85-1,2,.06,2.36,3.15,1.13,3.17,3.79,3.12,6.2-.09,3,2.15,5.73,1.19,8.82-1.48.45-2.18-.6-2.92-1.39-10.06-10.71-22.14-18.91-34.24-27-6.75-4.53-14.46-7.31-22.31-9.35a160.46,160.46,0,0,0-16.19-3.71,44.88,44.88,0,0,0-17.91.42c-7.4,1.82-14.88,3.32-22.06,6-2.8,1-5.61,2.1-7.88,4.17-1.73,3.63-5.52,4.73-8.53,6.69-7.82,5.1-14.63,11.48-21.83,17.38-2.49-4.09-6.4-7.15-8.64-11.46Z"/><path class="cls-4" d="M103,544.6c-1.3-.25-2-.76-2-1.84a10.91,10.91,0,0,1,.4-2.72,83.27,83.27,0,0,1,8.73-21.75,29.2,29.2,0,0,1,3.34-4.39c2.5-2.8,3.07-2.95,6.52-1.33,10,4.73,20.39,8.62,30.73,12.56,3.35,1.27,3.29,1.33,2.41,5a44.87,44.87,0,0,1-4.59,11.54c-2.58,4.53-8.7,3.6-11.06.2a18.23,18.23,0,0,1-2.55-6.38,9.9,9.9,0,0,0-2.72-5.47c-1.53-1.39-2.58-1.73-4.25-.51-3.35,2.46-6.6,5-9.86,7.62-3.83,3-7.86,5.67-12.68,6.92-.87.23-1.78.4-2.38.51Z"/><path class="cls-5" d="M325.5,534.4V533c0-3.57.28-4.11,3.54-4.79,3.86-.83,7.71-1.51,11.59-2.24a139.92,139.92,0,0,0,17.49-4.31c3.06-1,3.77-.77,5,1.84a83.24,83.24,0,0,1,3.71,9c.85,2.49-.37,3.88-3.06,4.14a13.17,13.17,0,0,1-9.69-3,31.21,31.21,0,0,1-2.47-2.41c-1.3-1.27-2.58-3.51-4.42-2.72a8.78,8.78,0,0,0-5.07,4.45c-1.62,3.83-3.41,7.6-5.22,11.34a7.35,7.35,0,0,1-6,4.17,3.27,3.27,0,0,1-3.77-2.33c-.85-3.85-1.76-7.68-1.64-11.67Z"/><path class="cls-6" d="M240.65,92.62a4.39,4.39,0,0,0,1.17-.68,94.71,94.71,0,0,1,29.39-22.88c.63,1.16,1.73,1.33,2.87,1.45-6.5,4.36-13,8.67-19.42,13.06A43.77,43.77,0,0,0,243.15,94.4c-.85,1.25-1.79,1.19-2.58-.17a1,1,0,0,1-.31-1.08c.14-.36.28-.53.39-.53Z"/><path class="cls-7" d="M240.65,92.62c0,.53-.05,1.07-.08,1.61-3.32-3.65-6.63-7.34-10-11l1.62-1.54c4.31,2.53,6.8,6.41,8.44,11Z"/><path class="cls-8" d="M134.92,344.47c-.25-2.89,1.42-5.38,1.7-8.16,2.67-.08,1.56,1.56,1.31,2.84-.23,3.31.14,6.71-1.42,9.83-.45-1.53.14-3.43-1.59-4.51Z"/><path class="cls-9" d="M358.72,322.39c-1.82-2.1-1.16-4.73-1.48-7.14a1,1,0,0,1,1.51.06c.39,1.87,1.78,3.48,1.47,5.52-.51.54-1,1.05-1.5,1.56Z"/><path class="cls-10" d="M114,95.45c.48.51,1,1,1.48,1.48-.65.87-1.25,1.81-2,2.63-.39.43-1,.94-1.58.37a1.25,1.25,0,0,1-.06-1.19c.57-1.19.93-2.52,2.15-3.29Z"/><path class="cls-9" d="M360,329.56a5.2,5.2,0,0,1-1-4.56c1.5,1.25,1.33,2.89,1,4.56Z"/><path class="cls-9" d="M360.5,321.74a1.72,1.72,0,0,1,.91,1.87,1.75,1.75,0,0,1-.91-1.87Z"/><path class="cls-1" d="M115.31,148c.39-13.55,4.76-25.34,15.13-34.53a42.37,42.37,0,0,0,6.95-8.64c6.26-9.39,15.73-13.33,26.36-14.63a60.68,60.68,0,0,1,20.69,1.45c11.31,2.55,21.83,7.37,29.34,16.15a53,53,0,0,1,13,40.48,39.8,39.8,0,0,1-6.27,17.46A151.06,151.06,0,0,1,211,179.36a60,60,0,0,1-23.45,18c-14.93,6.63-29.42,4.33-43.17-3.55a64.75,64.75,0,0,1-19.56-17.49C118.28,167.71,115,158,115.31,148Z"/><path class="cls-1" d="M318.32,194.49c-4.33.54-10-1.27-15.73-1.5a6.42,6.42,0,0,1-2.61-.85c-7.17-3.88-13.83-8.33-18.56-15.25-7.26-10.66-11.71-22-10.12-35.21a59.92,59.92,0,0,1,2.07-10.85c4.45-14.06,12.87-25.51,24-35,8.25-7,18.23-8.65,28.63-8.28a44.75,44.75,0,0,1,29,11.79c3.63,3.2,7.34,6.38,10.83,9.75a20.19,20.19,0,0,1,4.19,5.47c7.31,15,9.89,30.31,2.61,46.07-8,17.26-21.15,28.29-39.69,32.82-4.33,1.08-8.73.85-14.6,1Z"/><path class="cls-11" d="M242.41,171.59a16.85,16.85,0,0,1,7.66,2.18c8,4,14.17,10.24,19.73,17.12,2.32,2.89,2.12,6,.28,9a65.88,65.88,0,0,1-5.84,8.59c-5.27,6.12-10.77,12-16.24,18a24.84,24.84,0,0,1-3.23,2.55,5,5,0,0,1-6.38.17,92.24,92.24,0,0,1-24-22.68,12.09,12.09,0,0,1-2-5.1c-.46-2.24-.17-4.25,1.95-5.39s2.78-3,3.88-4.73c2.16-3.29,4.26-6.61,6.55-9.78a28.89,28.89,0,0,1,8.82-7.71,16,16,0,0,1,8.84-2.24Z"/><path class="cls-12" d="M148.13,373.16a4.23,4.23,0,0,1,1.16.6,3.54,3.54,0,0,1,.8,3.26c-2.44,10.54-4.37,21.23-8,31.49a21.17,21.17,0,0,1-3.51,5.92c-1,1.25-3.43.85-4.14-.65a9,9,0,0,1-.85-3.29,36.27,36.27,0,0,1,.93-10.29c1.71-6.71,3.24-13.46,6.64-19.61a23.57,23.57,0,0,1,5.7-6.92,4.2,4.2,0,0,1,1.24-.51Z"/><path class="cls-13" d="M165.51,391.28a41.56,41.56,0,0,1-1.39,13.46,31.85,31.85,0,0,1-3.4,7.51,2.37,2.37,0,0,1-4.37-.2,20.26,20.26,0,0,1-1.73-11.45c1.28-8.13,2.67-16.24,4-24.38a7,7,0,0,1,.28-1.33c.43-1.13,1-2.1,2.38-2.15a2.39,2.39,0,0,1,2.47,2c.94,3.8,2.1,7.54,1.79,11.54-.12,1.36,0,2.75,0,5Z"/><path class="cls-12" d="M394.18,272.9a7.68,7.68,0,0,1-1.87-.79c-3.46-2.36-6.66-5-8.59-8.79-3.88-7.57-7.63-15.22-11.4-22.85a7,7,0,0,1-.82-2.61,3.75,3.75,0,0,1,.65-2.52c.68-.65,1.76-.25,2.44.45a84.54,84.54,0,0,1,6.35,6.35c6.86,8.37,13.33,17,15.11,28.15.26,1.59-.23,2.84-1.87,2.61Z"/><path class="cls-13" d="M62.7,351.25c-.51-5.73,1-10.8,2.75-15.82,1.44-4.36,3.14-8.67,4.79-12.95a13.43,13.43,0,0,1,1.67-3c.85-1.3,2.52-1.05,3.34.29a10,10,0,0,1,1.14,6.71c-.51,3.63-1.14,7.26-1.87,10.83a51,51,0,0,1-5.64,15.54,37.45,37.45,0,0,0-1.82,3.71c-.59,1.39-.31,3.88-2.46,3.43-1.37-.31-1.82-2.52-1.9-4.2s0-3.23,0-4.53Z"/><path class="cls-12" d="M299.08,417.07c-1-5.41,1.5-11.4,1.5-17.6a3.52,3.52,0,0,1,.77-1.87,3.32,3.32,0,0,1,1.64-1c.76-.2,1.28.42,1.62,1a9.55,9.55,0,0,1,1.16,2.49c2.18,9.41,3.63,18.91,3,28.63a11.63,11.63,0,0,1-1.3,4.59c-.63,1.25-1.36,2.53-3,2.5a3.68,3.68,0,0,1-3.14-2.38c-1.17-2.5-2.27-5.05-2.27-7.88v-8.48Z"/><path class="cls-12" d="M264.47,314.63c-4.71-1.08-7.29-3.43-8.34-6.72-2.32-7.23-4.16-14.6-2.15-22.34.57-2.18.54-4.54,1-6.77a2.36,2.36,0,0,1,4.56-.46c2,4,2,8.48,3.12,12.7.65,2.64.79,5.44,1.36,8.14a15.81,15.81,0,0,1-.2,8.22,8.24,8.24,0,0,0,.63,7.23Z"/><path class="cls-13" d="M45.15,345.78c-.79-4.14-1.47-7-1.9-9.92-.68-4.65.48-9.16,1.39-13.64,1.16-5.89,3.54-11.39,5.92-16.89a2.16,2.16,0,0,1,1.71-.91,2.19,2.19,0,0,1,1.61,1c1.25,3,2.44,6,1.25,9.33a15.62,15.62,0,0,0-.8,6.12c.26,4.76-1.13,9.1-3.2,13.27-1.73,3.48-3.54,6.91-6,11.65Z"/><path class="cls-12" d="M61.17,248.72a32.32,32.32,0,0,1,3-11.57c2.27-4.5,4.82-8.9,7.4-13.29a15.25,15.25,0,0,1,2.75-3.06,1.88,1.88,0,0,1,3.23.93,15.15,15.15,0,0,1,.11,6.86c-1.5,7.29-3.68,14.32-8.33,20.3a19.26,19.26,0,0,1-2.21,2.66c-1.31,1.22-2.55,3-4.71,2-1.79-.91-1-2.83-1.27-4.79Z"/><path class="cls-12" d="M331.36,440.23c-3.71-5.59-6.88-10.89-8.64-16.84a29.7,29.7,0,0,1-1.45-8.79c0-3.17.4-6.4-.82-9.55-.45-1.13.26-2.21.79-3.23.77-1.45,2.13-1.59,3.38-.48a11.23,11.23,0,0,1,3.26,5.21,133.26,133.26,0,0,1,3.68,13.24,20.36,20.36,0,0,1,0,8.08c-.73,4-.17,8.22-.17,12.36Z"/><path class="cls-12" d="M242.64,314.77a16.85,16.85,0,0,1-7.43-12.22c-.42-2.92-1-5.9-1.13-8.82-.2-3.82.62-7.68,1-11.53.11-1.17.2-2.36,1.59-2.72a2.22,2.22,0,0,1,2.72,1.53c3.63,9.21,6.8,18.51,5.41,28.68a10,10,0,0,1-2.18,5.08Z"/><path class="cls-13" d="M282.35,412.36c-.62-4.25.71-9.21,1.56-14.2a6.6,6.6,0,0,1,1.14-2.43c.56-.88,2.35-.77,3.09-.06,1.38,1.42,1.7,3.37,2,5.07.85,4.76,1.42,9.55,1.87,14.37.45,5-1.76,9.44-3.52,13.92-.42,1.14-1.95,1.08-2.86.06-2.27-2.52-2.92-5.7-3.23-8.9a76,76,0,0,1-.06-7.83Z"/><path class="cls-13" d="M79.31,249.23a15,15,0,0,1,1.87-8.7c2-3.89,3.94-7.85,5.95-11.77a14.39,14.39,0,0,1,1.39-2.38,2.25,2.25,0,0,1,2.41-1,2.78,2.78,0,0,1,1.84,1.9,15.52,15.52,0,0,1,.09,7.57,101.48,101.48,0,0,1-2.53,10c-1.41,4.54-4.62,7.94-7.82,11.26-.68.71-1.7,0-2.27-.85-1.36-1.84-.68-4-.93-6Z"/><path class="cls-12" d="M221.18,298a28.1,28.1,0,0,1-2.81,8.81c-.62,1.22-1.21,2.61-2.94,2.41a3.6,3.6,0,0,1-3.09-2.49c-.8-3.26-2.81-6.32-1.53-10a14.3,14.3,0,0,0,.51-5.47c-.34-4.45,1.19-8.65,1.73-13a1.88,1.88,0,0,1,1.89-1.68A2.49,2.49,0,0,1,217.1,278c1.59,2.41,1.59,5.3,2.3,7.94,1.07,4-.2,8.33,1.78,12Z"/><path class="cls-12" d="M185,472.54c0,3.46-.17,6.92,0,10.35.28,4.79-1.76,9-3.21,13.3-.34,1-1.47,1-2.32.42-2.1-1.39-2.72-3.46-2.95-5.9-.48-5.58.51-11,1.7-16.38,1.11-5.16,2.84-10.18,2.78-15.53A2.94,2.94,0,0,1,182,457a1.26,1.26,0,0,1,1.81,0A3.88,3.88,0,0,1,185,460.1c0,4.14,0,8.3,0,12.44Z"/><path class="cls-13" d="M179.88,416.19c-2.27-5.5-4.7-10.2-4.79-16-.09-7.42,1.3-14.65,1.7-22a3.77,3.77,0,0,1,.51-1.28,1.47,1.47,0,0,1,1.62-.93,2.35,2.35,0,0,1,1.1.73,2.55,2.55,0,0,1,.63,1.19c1,5.67,2.12,11.28,2.89,16.95,1,7.2-.85,14-3.66,21.32Z"/><path class="cls-14" d="M208.65,484.45c.06,3.46.29,6.89-1.08,10.23a7.42,7.42,0,0,0,0,4.77c.19.7.28,1.47-.6,1.5a2.47,2.47,0,0,1-1.67-1c-4.48-5.78-6.21-12.16-4.22-19.41,1.07-4,.48-8.25,1.95-12.22.4-1.14.62-2.44,2-2.16a2.83,2.83,0,0,1,1.79,1.88c.71,4.3,1.27,8.61,1.81,12.92a28.53,28.53,0,0,1,0,3.46Z"/><path class="cls-13" d="M158.28,487.91a1.65,1.65,0,0,1-2-.85c-3.35-6.15-4.42-12.48-2-19.31,1.25-3.48,2.47-6.94,4.68-9.92a4.83,4.83,0,0,1,1.48-1.44,3.16,3.16,0,0,1,1.92-.32c.74.15.91.8.8,1.59-.2,1.82-.17,3.69-.49,5.5a62.39,62.39,0,0,0-1.41,12.33,3.89,3.89,0,0,1-.46,2c-1.9,3.24-2.26,6.89-2.52,10.41Z"/><path class="cls-14" d="M388.37,236.53a6.1,6.1,0,0,1,3.2,2.44,75,75,0,0,0,8.59,9.81c1.79,1.7,2.13,4.05,2.78,6.18.93,3-1.84,5.38-4.88,4.53a5.93,5.93,0,0,1-3.68-2.89c-3-5.39-6-10.86-7.57-16.89a4.76,4.76,0,0,1,.06-2,1.5,1.5,0,0,1,1.5-1.16Z"/><path class="cls-14" d="M417.28,248.47c-2.1-1.39-4.11-2.95-6.35-4.14-6.32-3.38-9.52-9.22-12.38-15.34a2.44,2.44,0,0,1,.53-3.12,2.47,2.47,0,0,1,3.18-.11c5.3,3.4,10.37,6.94,12.19,13.49.88,3.12,1.87,6.18,2.8,9.27Z"/><path class="cls-14" d="M329.58,471.21c.08-.62.17-1.76.37-2.86a1.56,1.56,0,0,1,2.24-.74A9.85,9.85,0,0,1,334.6,470a60.08,60.08,0,0,1,5.64,12.53,18.39,18.39,0,0,1,.39,6.8,2.85,2.85,0,0,1-4.11,2.24,7.32,7.32,0,0,1-4.28-5c-1.3-4.88-2.6-9.73-2.66-15.34Z"/><path class="cls-15" d="M449.26,329.2c.51-3.12,1.07-6.75,1.75-10.32.26-1.42,2.27-1.76,3.29-.6a9.83,9.83,0,0,1,1.68,2.16,29.4,29.4,0,0,1,3,11.22c.37,3.91-1.81,7.06-3.88,10.09-.63.85-1.7.6-2.27-.31a22.43,22.43,0,0,1-3.57-12.24Z"/><path class="cls-16" d="M97.34,263.77c0-4.16,0-8.33,0-12.47a30.36,30.36,0,0,1,2.73-12,2.65,2.65,0,0,1,1.47-1.25c1.08-.34,1.79.51,2.18,1.31,3.15,6.12,2.3,12.16-1.08,17.77-1.55,2.61-2.52,5.42-3.91,8-1.27.37-1.92.09-1.41-1.36Z"/><path class="cls-14" d="M144.7,220.63v6.21a10.79,10.79,0,0,1-2.38,6.37,1.87,1.87,0,0,1-2.95.17c-2-3.17-3.8-6.26-2.29-10.34,1-2.75,1.39-5.78,2.07-8.68a6.32,6.32,0,0,1,2.21-3.43,1.73,1.73,0,0,1,2.78.77,13.1,13.1,0,0,1,.48,2.69c.08,2.07,0,4.14,0,6.24Z"/><path class="cls-13" d="M435.37,325.4c0-2-.06-4.14,0-6.18a2.32,2.32,0,0,1,.93-1.65c1.11-.59,1.65.4,2.07,1.17a41.75,41.75,0,0,1,4.65,10.68,20.88,20.88,0,0,1,.65,4.74c.09,3.82-1.5,7.37-3,7-3-.82-4.4-3.46-4.91-6.12-.62-3.12-.45-6.38-.62-9.58a.61.61,0,0,0,.23,0Z"/><path class="cls-13" d="M92.2,357.6c-3-2.47-3.54-5.87-3-9.36.65-4.28,1.79-8.53,2.72-12.78A1.68,1.68,0,0,1,93.17,334a1.86,1.86,0,0,1,2.21,1.22c2.86,7.46,3.8,14.77-2,21.41a10.58,10.58,0,0,1-1.17,1Z"/><path class="cls-15" d="M462.21,337.9c-2.95-6.83-1.95-13.5-1.39-20.07.14-1.64.77-3.66,2.75-4.48,1.08-.45,3.12,1.7,3.37,4.51.69,7,2,14.26-4.73,20Z"/><path class="cls-15" d="M389.25,177a12.77,12.77,0,0,1,1.81,1.59c1.73,2.13,3.29,4.42,5.13,6.43,1.5,1.65,1.67,3.72,2.44,5.62a2.65,2.65,0,0,1-.65,2.55c-2.58,3.34-6.52,2.92-8-1.19-1.13-3.21-1.61-6.66-2.49-10-.31-1.11-.82-2.13-.48-3.32a2.21,2.21,0,0,1,2.24-1.7Z"/><path class="cls-15" d="M153.63,236.76c-2.12-8.59,1.56-14.63,6.1-20.38a1.6,1.6,0,0,1,1.84-.51,1.65,1.65,0,0,1,1.1,1.58c1,8.08-2,14.29-9,19.31Z"/><path class="cls-15" d="M361.64,477.62a8.91,8.91,0,0,1-.28,1.73c-.71,2-4.14,2.89-5.76,1.47-2.61-2.32-4.48-10.15-3.17-13.44a2.6,2.6,0,0,1,3.48-1.19,13.27,13.27,0,0,1,5.73,11.43Z"/><path class="cls-17" d="M378.36,471.21v.68c-.11,2.41-1.27,4.17-2.75,4.17a4.62,4.62,0,0,1-3.91-3.35c-.68-2.86-1.13-5.78-1.56-8.73a4.66,4.66,0,0,1,.43-2c.56-1.64,2.89-2.18,3.85-.8,2.13,3,4.11,6.1,3.94,10Z"/><path class="cls-18" d="M402.6,182.25c-5.33-4-6.83-8.62-5.61-17.8,3.68,1.61,4.59,5.13,5.72,8.1s2.33,6.49-.11,9.7Z"/><path class="cls-19" d="M137.93,339.15l-1.31-2.84c-.45-1.64.51-3,.8-4.53.14-.63.25-1.37,1.47-1.48.46,3,.63,6-1,8.85Z"/><path class="cls-20" d="M97.34,263.77c.45.46.93.91,1.41,1.36C97.39,267,98,270,95.44,271.34a4,4,0,0,1-.32-1.44c.51-1.9,1.14-3.8,1.73-5.67.06-.2.32-.32.49-.46Z"/><path class="cls-21" d="M358.75,315.31c-.48,0-1,0-1.51-.06-1.22-.94-1.27-2.32-1.24-3.69a4.07,4.07,0,0,1,.48-1.19c.34.15.88.2,1,.46a7,7,0,0,1,1.25,4.48Z"/><path class="cls-14" d="M417.25,248.52a4.53,4.53,0,0,1,1,.82c.31.49.11.88-.46.94-.11,0-.31-.31-.34-.51-.08-.43-.08-.85-.14-1.3l0,.05Z"/><path class="cls-22" d="M169.65,115c-.14-4.16,1.75-8.25,6.4-11.08a12.24,12.24,0,0,1,7.86-2A31.78,31.78,0,0,1,204,111.52a17.83,17.83,0,0,1,4.71,9.81,10.39,10.39,0,0,1-1.7,7.91c-3.69,5.39-8.59,9-15.17,9.58s-11.45-2.75-15.59-7.43a54.1,54.1,0,0,1-3.34-4.36c-2.47-3.26-3.55-6.92-3.29-12.08Z"/><path class="cls-22" d="M343.58,137.49c-14.4-.23-23.64-11.14-22.68-23.61.49-6.3,3.63-10.21,8.54-13.35a10.91,10.91,0,0,1,6.66-1.42,16.22,16.22,0,0,1,7.34,1.84c3.77,2.24,7.68,4.31,11.17,6.89,7.2,5.36,9,14.48,2.55,21.77-4.05,4.53-9.07,7.91-13.58,7.88Z"/><path class="cls-4" d="M242.33,177a17.61,17.61,0,0,1,5.13,1.45A51.37,51.37,0,0,1,263.08,191c1.3,1.47,1.07,2.78.11,4.37a65.86,65.86,0,0,1-8.11,10.34c-2.83,3.06-5.92,5.9-8.64,9-5,5.72-3.77,4.9-9.7.7-6.69-4.73-11.84-11-17.17-17.06a2.26,2.26,0,0,1,0-3.15c2.87-3.88,5.53-8,8.65-11.68,3.4-4,7.65-6.71,14.09-6.46Z"/></g></g></svg>