<svg xmlns="http://www.w3.org/2000/svg" viewBox="0 0 599.48 553.97"><defs><style>.cls-1{fill:#543828;}.cls-1,.cls-10,.cls-11,.cls-12,.cls-13,.cls-14,.cls-2,.cls-3,.cls-4,.cls-5,.cls-6,.cls-7,.cls-8,.cls-9{fill-rule:evenodd;}.cls-2{fill:#b7a398;}.cls-3{fill:#a3948b;}.cls-4{fill:#7b7b7b;}.cls-5{fill:#fff;}.cls-6{fill:#f99f3f;}.cls-7{fill:#563929;}.cls-8{fill:#5f6060;}.cls-9{fill:#5f5f60;}.cls-10{fill:#606060;}.cls-11{fill:#5f6161;}.cls-12{fill:#6b4f3c;}.cls-13{fill:#dfdfde;}.cls-14{fill:#e0e0df;}</style></defs><title>Asset 6</title><g id="Layer_2" data-name="Layer 2"><g id="Layer_1-2" data-name="Layer 1"><path class="cls-1" d="M598.27,335.83c-.74,3.11-2.92,5.15-5.36,7a51.51,51.51,0,0,1-30.13,10.88,97.82,97.82,0,0,1-28.86-3.4A154.2,154.2,0,0,0,513,346.4c-1.56,1.56-.2,2.78.11,3.94A210.78,210.78,0,0,1,520,420.5c-1,15.93-5.1,31-14.23,44.44-3,4.4-5.87,8.9-9.15,13.07-5.84,7.34-13.19,13-21.24,17.69L462.85,503c-.11,1.93,1.37,2.92,2.22,4.2a50.9,50.9,0,0,1,7.31,17.15c1.87,8.33-.94,15.11-8.05,19.76a46.41,46.41,0,0,1-22.17,7.25c-9.07.71-18-.45-26.9-2.07a151,151,0,0,1-17-3.54,34,34,0,0,1-12.7-6.92c-3-2.66-5.3-5.72-6-9.86-.45-2.75-1.19-3.29-3.54-2.61-8.53,2.47-17.29,3-26.08,3.43-3.23.17-6.49.17-9.72.4-9.7.65-19.39,1.41-29.09,2-11.53.76-23.16,1.47-34.69.76-9.9-.59-19.85-1.21-29.63-3.17a25.22,25.22,0,0,0-4.81-.6c-15.28-.05-30.59,0-45.87-.05A5.26,5.26,0,0,0,192,531c-5.39,5.7-12.14,9.3-19.39,11.79-13.35,4.6-26.87,8.56-40.88,10.63a42.91,42.91,0,0,1-17.91-.76,32.16,32.16,0,0,1-3.94-1.36c-7.74-3.52-10.6-9-9.21-17.38,1.67-10,8.07-16.33,16.44-21.12,1.39-.79,3.11-.93,4.42-2.32-1.25-2-3.52-2.5-5.33-3.6-21-12.53-35.15-30.59-42.8-53.6a89.73,89.73,0,0,1-4.43-38.36c.88-8.05,1.39-16.13,1.85-24.21a74,74,0,0,1,4.84-22.3c1-2.81,2.16-5.62,3.21-8.42.31-.85.71-1.73-.23-2.78-5.36.34-10.52,2.47-15.76,3.88a157.28,157.28,0,0,1-28,4.77,56.61,56.61,0,0,1-26.5-4.34C.47,358.16-1,356.06.58,346.09a25.26,25.26,0,0,1,2.55-7.15A105.31,105.31,0,0,1,15,320.21c6.92-8.45,13.78-16.87,20.75-25.23,10.91-13.07,23.81-24,36.93-34.67,5.56-4.54,10.8-9.47,16.22-14.17a6.72,6.72,0,0,0,2.41-4.77c2-26,8.56-51.05,17.18-75.57,7.73-22,16-43.88,25.31-65.31a175.27,175.27,0,0,1,14.46-26.84,110.3,110.3,0,0,1,11-14.32,268,268,0,0,1,39.89-35.51c13.52-9.73,28.94-15.25,45-19.2a96.22,96.22,0,0,1,16.47-2.26c11.08-.8,22.14-2,33.28-2,6,0,12-.51,18.05-.23,7.2.34,14.21,1.84,21.18,3.46,9.92,2.29,19.73,4.93,29.42,8,6.24,2,12.25,4.42,17.35,8.5,11,8.82,22.14,17.55,32.4,27.3C423.82,58.28,433.15,70.93,442.05,84c12.39,18.11,20.69,38.09,27.95,58.7a457,457,0,0,1,18.37,71.09c.76,4.34,2,8.57,3,12.85.48,2,1.31,4,1.33,6.06,0,3.4,1.82,4.71,4.65,5.93C512,245,525.81,253,539.53,261.16c1.39.82,2.75,1.73,4.17,2.49,16.89,9.27,30.78,22.11,43.28,36.57a47.91,47.91,0,0,1,11.4,24.15c.59.91.17,2.19,1.1,2.95v5.56c-.93.76-.48,2.09-1.21,2.95Z"/><path class="cls-2" d="M599.48,327.32c-1.55-.54-1.44-1.7-1.1-2.95a.77.77,0,0,1,1.1.17v2.78Z"/><path class="cls-3" d="M598.27,335.83a2.32,2.32,0,0,1,1.21-2.95v2.77a2.92,2.92,0,0,1-1.21.18Z"/><path class="cls-4" d="M122.56,496.8a83.62,83.62,0,0,1-12.76-8.27,36.48,36.48,0,0,1-3.69-3.18c-9.92-10.26-18.22-21.6-23-35.2a62.67,62.67,0,0,1-3.88-18.26c-.09-2.07-.48-4.11-.65-6.18a12,12,0,0,1-.17-4.11c1.08-4.11.62-8.3.91-12.44.56-8.76,1.19-17.52,2.43-26.22,1.19-8.45,2.3-16.93,3.09-25.43.31-3.2,1.82-5.67,3.26-8.19a8.15,8.15,0,0,0-.73-1.28C84,344.13,80,343.48,75,345a234.63,234.63,0,0,1-27.61,6.66c-10.83,1.9-21.54,2.16-32.23-.74a8.92,8.92,0,0,1-4.48-2.18c1.11-4.19,3.38-8,5.59-11.73a79.14,79.14,0,0,1,8.84-12.42c9.9-11.31,18.6-23.67,29.37-34.27,8.59-8.45,17.09-17,25.4-25.71,4.14-4.34,7.74-9.19,11.62-13.81a14.74,14.74,0,0,0,3.2-7.51,289.63,289.63,0,0,1,11.68-45.64c4.34-12.7,9.58-25,14.71-37.41,4.85-11.77,9.27-23.7,14-35.52,5.64-14.23,11.62-28.26,19.56-41.42a98.12,98.12,0,0,1,12-16.15C173.15,60,179.9,53,187.58,47c3.26-2.56,6.35-5.39,9.44-8.17,8.45-7.57,18.54-12.16,29-16a140.35,140.35,0,0,1,22-6.41c4.34-.82,8.73-1.13,13.07-1.53,18.42-1.73,36.93-2.69,55.47-1.7,4.56.23,9.1,1.56,13.61,2.55,10.37,2.27,20.66,5,30.78,8.28A54.63,54.63,0,0,1,380.17,34.7c6.12,5.3,12.7,10.06,18.79,15.39A153,153,0,0,1,420,72.2c10.89,14.15,21.06,28.8,28.6,45.07,2.73,5.87,5.33,11.82,7.52,17.92,4,11.34,8.44,22.53,11.67,34.13,4.14,14.94,7.77,30,10.46,45.24,1.48,8.45,4.17,16.58,6,24.92a13.64,13.64,0,0,0,2.07,4.36c.88,1.39,2.16,2.47,4.08,1.7a3,3,0,0,1,3.21.65c10.14,9,22.31,14.89,33.93,21.6,5,2.89,10,5.87,15,8.82,8.79,5.22,17.07,11.11,24.18,18.51,3.38,3.51,6.84,6.94,10.27,10.4,6.23,6.24,9.52,14.12,12.3,22.28a4.39,4.39,0,0,1-1.42,5c-4.19,3.94-9.41,5.78-14.88,7-11.06,2.41-22,1.62-33-.93-9-2.07-18-3.86-27.12-5.7-4.82-1-9.22,2.33-8.76,7.12,1,10.09.25,20.29,3.09,30.27,1.56,5.47,1.47,11.45,2.18,17.15a177.57,177.57,0,0,1,.93,26.36c-.39,15.51-4,30.16-12.38,43.49-4.48,7.11-9.24,13.86-15.37,19.64a51.88,51.88,0,0,1-8.78,6.77,197.33,197.33,0,0,1-35,16.73,16.77,16.77,0,0,1-3.43.42c-1.73-2.29-.43-4.47.42-6.54,8.31-20.24,6.44-41.45,5.47-62.45-.45-9.67-.9-19.5-3.23-29-7.82-31.69-23.41-59.44-44.81-83.76a158.25,158.25,0,0,0-62.53-43.94c-19.34-7.43-39.26-8.62-59.5-6.75-6.47.63-12.93.63-19.39,1.36a109.19,109.19,0,0,0-43.63,15.2c-16.72,9.92-33.82,19.24-47.48,33.59-26.33,27.64-39.54,60.66-40.42,98.56-.57,24.74-.57,49.55,3.12,74.15.28,1.82.65,3.72-.82,5.27Z"/><path class="cls-5" d="M122.56,496.8c-2.24-10.23-2.73-20.6-3.35-31-.85-14.34-1-28.68-1.25-43-.34-23.35,5.22-45.44,14.46-66.67,7.34-16.86,19-30.61,32-43.34a126.24,126.24,0,0,1,27.36-20.07c6.89-3.83,13.69-7.79,20.46-11.76a93.05,93.05,0,0,1,36.6-12.25,377.71,377.71,0,0,1,45.75-2.35c15.76.14,30.59,4.31,44.9,10.74,17.55,7.85,32.8,18.88,46.63,32.15A180,180,0,0,1,421.5,357c3.51,6.77,7,13.58,10.31,20.46,6.18,12.9,9.1,26.68,10.27,40.85.88,10.83,1.64,21.69,2,32.57.65,17.38-1.84,34.13-8.73,50.17a19,19,0,0,1-3.15,1.37c-13.92,3.37-27.83,6.68-42.06,8.44a62.09,62.09,0,0,0-8.85,1.59,128.85,128.85,0,0,1-32.14,4.71c-12.48.25-24.89,1.55-37.36,2.26-7.37.4-14.74.8-22.14,1-3.4.09-6.86.43-10.26-.85a14.38,14.38,0,0,0-5.5-.34,94,94,0,0,1-23.45-1.7A63.17,63.17,0,0,0,238,516.53c-15.48,0-31,0-46.46,0-10,.06-19.84-.88-29.4-4-3.29-1.05-6.63-2-10-2.77-10.72-2.47-20.38-7.23-29.62-13Z"/><path class="cls-6" d="M436,539.07a183.55,183.55,0,0,1-36.91-5.93,31.17,31.17,0,0,1-10-4.76c-1.1-.76-2.63-1.59-2.35-3.12s2-1.61,3.37-1.75a206.53,206.53,0,0,0,24.58-4.2c11.88-2.78,23.93-5.1,35.15-10.18,1.22-.53,2.21-.53,3.06.54,4.06,5.08,7.83,10.29,9.27,16.81.94,4.26,0,6.44-4,8.28a47.52,47.52,0,0,1-14.66,3.91c-2.52.31-5.07.29-7.54.4Z"/><path class="cls-6" d="M124.48,541.56a37.6,37.6,0,0,1-9.58-1.47c-4.31-1.11-5.24-2.89-3.29-7.12a28,28,0,0,1,13.1-13.77c1.22-.63,2.61-1,3.83-1.56,2.69-1.33,5.13-1,8,0a238.89,238.89,0,0,0,34.5,10,4.84,4.84,0,0,1,1.33.28c.37.17.8.54.85.85a1.3,1.3,0,0,1-.48,1.1,21.47,21.47,0,0,1-3.83,1.59c-12.55,3.83-25.08,7.77-38.21,9.38-2.07.26-4.11.49-6.18.71Z"/><path class="cls-1" d="M413.39,168.61c-.4,4.22.11,8.39-.91,12.5-5.69,23.3-20.46,38-43.37,44-7.45,2-15.36,2.89-23.33,1.11-4-.88-8.27-.68-12.27-1.93a33.56,33.56,0,0,1-17.43-12,84.14,84.14,0,0,1-8.79-14.94,45.53,45.53,0,0,1-3.18-29.11c.91-4.51.71-9.16,1.79-13.72A48.85,48.85,0,0,1,311,141.76c6.44-11.36,15.59-20,26.28-27.18a33.48,33.48,0,0,1,18.88-5.92c15.19-.17,28,5.1,38.55,16a66.57,66.57,0,0,1,17.77,31.63c1,4.14.66,8.28.94,12.36Z"/><path class="cls-1" d="M224.21,169.6c.68,9.13-2.19,18.77-5.33,28.15a43.9,43.9,0,0,1-18.15,23c-2.12,1.39-4.36,2.61-6.49,4-8.33,5.67-17.46,5.87-26.56,3-5.44-1.67-10.94-3.8-15.62-7.37a15.26,15.26,0,0,1-3.2-2.61c-4.79-6.54-9.52-13.15-11.2-21.34a45.87,45.87,0,0,0-1.78-7.4c-3.32-8.79-3-17.66-1.08-26.64.71-3.38,1-6.86,1.9-10.21,2.92-11.37,8.9-20.75,18.57-27.64.37-.28.79-.48,1.16-.73,10.49-7,11.48-7.2,23.92-6.83a28.07,28.07,0,0,1,9.44,2.06c4.09,1.59,8.17,3.29,12.19,5,8.53,3.71,14.2,10.32,17.69,18.65,3.77,9.1,4.59,15.59,4.54,26.79Z"/><path class="cls-7" d="M244.84,200.78c.77-.51,1.56-1,2.3-1.56,1.64-1.22,3.37-1.64,5-.2s3.35,1.39,5.19,1.56c7.91.74,14.74,3.72,20.18,9.61l3.32,3.57c5.47,5.76,5.64,12.31,2.89,19.34s-7.85,10.68-15.28,12.61c-9.21,2.38-18.56,3.63-28,4.85-4.79.65-9.72.57-14.37-1.39-3.09-1.28-5.81-2.95-6.38-6.66-1-1.56-.76-2.69,1.14-3.23,5.35,3.63,11.17,3.43,17.2,2.32a158.09,158.09,0,0,0,28.12-7.45c8.62-3.32,10.69-10,5.39-17.64-4.25-6.18-10.91-8.22-17.77-9.63-3.41-.71-7-.94-9.22-4.14a1.73,1.73,0,0,1,.2-2Z"/><path class="cls-8" d="M467.11,432.6A32.38,32.38,0,0,1,461,420c-1.41-5.55-2.26-11.25-3.4-16.86-.25-1.36-.62-2.69-.85-4.06a24.78,24.78,0,0,1-.34-4.11,3.09,3.09,0,0,1,2.16-3.17c1.3-.4,2.18.51,3,1.33a19.12,19.12,0,0,1,3.69,6.63c1.64,4.28,3.48,8.62,4.33,13.1,1.25,6.52,1.56,13.18-2.43,19.73Z"/><path class="cls-9" d="M358,57.8a8.43,8.43,0,0,0,.94-1.39c.59-1.67,1.55-2.94,3.42-2.89s2.73,1.39,3.38,3A21.85,21.85,0,0,1,367,68.12a44.28,44.28,0,0,1-1.16,5.39c-.45,1.78,1.36,3.37.26,5.84-1.87-3.32-3.26-6.44-5.62-8.93-1.13-1.22-2-1.79-3.43-.63-.87.77-1.92,1.59-3.09,1a5.12,5.12,0,0,1-3.31-4.17,47,47,0,0,1,0-8.3,42.91,42.91,0,0,1,1.58-6.75,2.5,2.5,0,0,1,1.85-1.87c1.07-.2,1.64.57,1.92,1.53.6,2,1.19,4,2,6.52Z"/><path class="cls-9" d="M485.59,414.63c-.14,2.29-.17,4.59-.45,6.89a2.13,2.13,0,0,1-1.34,1.36,2.2,2.2,0,0,1-1.87-.46,23,23,0,0,1-6.12-12.89c-.65-4.28-1.93-8.51-1.59-13,.11-1.53-.68-3.12-.85-4.7a38.7,38.7,0,0,1-.28-5.48,1.58,1.58,0,0,1,2.52-1.13,11.21,11.21,0,0,1,2.72,3.06c3.8,8.36,7.77,16.73,7.26,26.31Z"/><path class="cls-8" d="M117,287.38c-1.53,4.54-1.22,9.64-1.85,14.6-.68,5.44-2,10.77-3.14,16.13a2.55,2.55,0,0,1-2.41,2.07,2.18,2.18,0,0,1-2.3-1.16c-1.73-3.75-3.2-7.23-2.24-11.8a132.84,132.84,0,0,1,6.44-21.71,21,21,0,0,1,1.19-2.49,1.71,1.71,0,0,1,1.61-1,2.16,2.16,0,0,1,2,1.61,30.65,30.65,0,0,1,.68,3.77Z"/><path class="cls-8" d="M94.69,302.49c-1.13-10.74,3.2-20.33,6.61-30.1a6.07,6.07,0,0,1,.62-1.25c.48-.82,1.19-1.53,2.18-1.22a2.29,2.29,0,0,1,1.5,2.15,24.11,24.11,0,0,1,.09,5.56c-1,5.87-1,11.88-2.41,17.74a35.62,35.62,0,0,1-2.49,7.15c-1.39,2.92-2.61,5.92-3.94,8.84a1.54,1.54,0,0,1-1,.8c-.93.14-1.1-.66-1.1-1.31-.06-2.78,0-5.55,0-8.36Z"/><path class="cls-8" d="M454.8,306.09a9.74,9.74,0,0,1-.31,2,3.12,3.12,0,0,1-2.35,2.27,2.82,2.82,0,0,1-3.12-1c-1.44-2-3.14-3.94-4-6.43a226.73,226.73,0,0,0-9.1-24.67,2.43,2.43,0,0,1,.17-1.92,2.55,2.55,0,0,1,1.65-.88c.34-.09.85.31,1.19.59a18.09,18.09,0,0,1,2,1.93c5.42,6.95,10.21,14.23,13.07,22.65a14.48,14.48,0,0,1,.79,5.5Z"/><path class="cls-8" d="M249,131c-.54-6.66,1.67-12.92,1.7-19.36,0-.51.71-1.24,1.24-1.47s1.11.37,1.54.93c1.21,1.82,1.21,4,1.58,6,.85,5,2.07,9.86,2.3,14.93a25.42,25.42,0,0,1-2.67,13.36c-1.21,2.26-1.64,2.32-3.23.59-3-3.2-2.75-7.14-2.89-11A24.5,24.5,0,0,1,249,131Z"/><path class="cls-8" d="M274.18,132.27a24.86,24.86,0,0,1-.76,4.19,11.1,11.1,0,0,0-.49,5.45c.2,1.24-.87,2-2.12,1.78a5.66,5.66,0,0,1-3-1.5c-1.72-1.62-3.17-3.66-3.26-5.92-.19-6.41-1.13-12.9,1.05-19.17.15-.42.23-.9.37-1.33a2.1,2.1,0,0,1,1.9-1.7c1,0,1.59.88,2,1.73,2.21,5.33,3.09,11,4.39,16.47Z"/><path class="cls-8" d="M130.83,299.09a23.48,23.48,0,0,0,0,3.46c.82,5.72-1.56,10.37-4.88,14.68a2.12,2.12,0,0,1-1.7.82,2.1,2.1,0,0,1-1.36-1.39c-.51-4.25-2-8.27-.7-12.84,1.53-5.55,3-11.11,4.7-16.61a1.26,1.26,0,0,1,1.59-1,2.63,2.63,0,0,1,1.53,1.19,9.71,9.71,0,0,1,.74,3.31c.11,2.78.05,5.56.05,8.34Z"/><path class="cls-8" d="M175.19,253.31c1,5.5-1.21,10.46-2.89,15.48a1.28,1.28,0,0,1-2.21.31,18.26,18.26,0,0,1-3.26-9c-.31-5.19,1.22-10.06,1.82-15.08.25-2,.88-4.05,1.3-6.07a1.91,1.91,0,0,1,1.84-1.72,1.83,1.83,0,0,1,1.9,1.67c.65,4.76,2.27,9.47,1.5,14.4Z"/><path class="cls-10" d="M290.11,137.8c-.68-1.79-1.05-2.87-1.5-3.94-1.87-4.37-2.52-8.71-.8-13.41a20.77,20.77,0,0,0,1.62-8.82,3.94,3.94,0,0,1,1.22-3.12,4.19,4.19,0,0,1,2.27-1.38c.85,0,1.56.9,1.73,1.87.53,2.72,1.19,5.41,1.53,8.13a25.32,25.32,0,0,1-6.07,20.67Z"/><path class="cls-8" d="M228.12,53.58c.59,6.32-2,11.51-6,16.16-1.56,1.81-3.09,1.39-4.17-.85a11.91,11.91,0,0,1-.62-8,121.63,121.63,0,0,1,4-11.68A3,3,0,0,1,222,48c1-1.2,1.95-2.78,3.82-2.36s2.24,2.1,2.33,3.77c0,1.36,0,2.75,0,4.17Z"/><path class="cls-8" d="M489.7,302c-4-2.21-7.4-4.65-8.9-9-2-5.64-4-11.26-3.72-17.35a8.19,8.19,0,0,1,.23-2,1.62,1.62,0,0,1,.82-.94,1.52,1.52,0,0,1,1.22.17c1.25,1.65,2.44,3.32,3.54,5.05.86,1.39,1.39,2.92,2.25,4.28A30,30,0,0,1,489.7,302Z"/><path class="cls-10" d="M468.72,297.44a6,6,0,0,1-.2,1.76,1.58,1.58,0,0,1-2.18,1.05,9.85,9.85,0,0,1-5.81-4.65,34,34,0,0,1-4-19.27,2.08,2.08,0,0,1,1.27-1.42,2.16,2.16,0,0,1,1.87.31c4.23,4,9,15.76,9.07,22.22Z"/><path class="cls-11" d="M189.14,268.73c-3.66-1.93-5.9-5.05-5.19-8.82A88.06,88.06,0,0,1,188.8,242a3.28,3.28,0,0,1,.77-1.14,1.57,1.57,0,0,1,1.19-.36,1.41,1.41,0,0,1,1,.76c.71,2.15,1.7,4.25,1.61,6.66s-.14,5.08,0,7.6a15.12,15.12,0,0,1-2.07,7.91c-.82,1.59-1.36,3.29-2.18,5.3Z"/><path class="cls-10" d="M104.22,434c.93,5.13-.88,9.18-4.06,12.81-1.08,1.25-2.21,1.25-3.43,0a5.17,5.17,0,0,1-2-3.52c-.06-2-.37-4.22.17-6.15,1.38-4.82,3.14-9.52,4.84-14.26.2-.56.88-1.3,1.34-1.33a2.17,2.17,0,0,1,1.47,1.19A21,21,0,0,1,104.22,434Z"/><path class="cls-11" d="M494.38,419.45c-1.62-4.65-4.94-8.34-5.67-13.3a73,73,0,0,1-.2-14.48c0-.51.82-1.19,1.36-1.36a2,2,0,0,1,1.84.45,15.45,15.45,0,0,1,2.41,4.14c1.28,3.71,2.35,7.45,3.43,11.22a3.18,3.18,0,0,1,.06,2c-1.48,3.55-.57,7.77-3.23,11.29Z"/><path class="cls-8" d="M244.87,55.22a12.71,12.71,0,0,1-1.73,7.26c-1,1.81-1.7,3.8-2.55,5.67-.48,1-1.3,1.1-2.13.25a10.92,10.92,0,0,1-3.31-6.69,22.67,22.67,0,0,1,3.63-15.19c1.36-2,3.77-1.64,5,.54,1.3,2.38,1,4.9,1.13,8.16Z"/><path class="cls-8" d="M399.44,248.35a14.16,14.16,0,0,1-.76,3.17c-.74,1.42-1.67,2.87-3.49,3-1.59.11-2.52-1.11-3.31-2.19a10.41,10.41,0,0,1-2.36-6.37c0-4.4,0-8.79,0-13.18a4.3,4.3,0,0,1,.43-2,2.5,2.5,0,0,1,1.47-1.25,2.09,2.09,0,0,1,1.62,1c1.41,3.4,2.72,6.86,4,10.31.93,2.58,1.7,5.25,2.43,7.49Z"/><path class="cls-11" d="M91.83,425.71c.23,3.74.31,8.33-2.61,12.39-1,1.42-2.15,1.67-3.4.57a5.59,5.59,0,0,1-2.27-4.11,21.82,21.82,0,0,1,.23-5.5c1.24-4.91,2.8-9.73,4.31-14.57.19-.63.71-1.36,1.47-1.17a2.71,2.71,0,0,1,1.33,1.25,7,7,0,0,1,.94,4v7.14Z"/><path class="cls-10" d="M265.28,68.83c-2.69-5.25-5.61-9.3-5.24-14.77a32,32,0,0,1,1.84-8A3.17,3.17,0,0,1,265,43.8a2.81,2.81,0,0,1,2.49,2c2,4.73,3.63,9.33.51,14.4-1.36,2.18-1.64,5.05-2.69,8.59Z"/><path class="cls-8" d="M413.81,244.72c-4.42-3-6.54-6.58-6.23-11.34.2-3-.77-5.87-1.25-8.79a2.27,2.27,0,0,1,.94-2.41,2.59,2.59,0,0,1,3.14.4,8.51,8.51,0,0,1,2.92,3.74c.68,1.7,1.17,3.49,2,5.13,2.18,4.57,1.53,8.79-1.48,13.27Z"/><path class="cls-12" d="M221,239.73c-1,.65-1.13,1.7-1.22,2.78-2.21-2.35-1.61-5.27-1.1-7.85a51.55,51.55,0,0,1,4.25-13.78c2.21-4.31,4.82-8.19,8.9-11.17,4.25-3.09,8.11-6.77,13-8.93,0,.65.06,1.28.12,1.93,0,2.15-1.54,3.32-3.07,4.31-10.91,7.06-18,16.52-19.21,29.79a3.73,3.73,0,0,1-1.68,2.92Z"/><path class="cls-10" d="M336.46,68.15a12.29,12.29,0,0,1,2-7.29,2,2,0,0,1,3.43-.11c2.27,3.54,4.28,7.26,1.9,11.57-.74,1.33-.82,3.62-2.72,3.51s-3.09-2-3.89-3.66c-.59-1.16-.51-2.66-.73-4Z"/><path class="cls-13" d="M186.39,479.6c.48,3.37-1.13,6.21-2.83,9-1.08,1.73-3.38,1.68-4.65-.08a10.3,10.3,0,0,1-2.16-5.05c-.45-5.95-1.95-11.82-1.5-17.86a20,20,0,0,0-.82-8.24c-.57-1.68-.37-3.63-.37-5.48,0-.65.28-1.47,1.13-1.47a2.82,2.82,0,0,1,1.85.6,11.08,11.08,0,0,1,2.52,3.26,99.29,99.29,0,0,1,6.83,23.84,12.47,12.47,0,0,1,0,1.5Z"/><path class="cls-13" d="M329.57,408.28c-.68,2.35-1,5.64-3,8.3a1.55,1.55,0,0,1-2.44.09,20.25,20.25,0,0,1-4.05-7.94,29.66,29.66,0,0,1-.71-3.37c-1.45-8.39-2.81-16.81-2.07-25.4a2.49,2.49,0,0,1,.9-1.67c.94-.74,1.73,0,2.44.56a10.48,10.48,0,0,1,3,4.63,111.45,111.45,0,0,1,6,22.64,18.1,18.1,0,0,1,0,2.16Z"/><path class="cls-13" d="M291.64,503.41c-3.54-4.39-4.56-9.24-4.93-14-.48-6.43-.11-12.95-.11-19.41a8.8,8.8,0,0,1,1.24-4.62,2.59,2.59,0,0,1,2.16-1.51,2,2,0,0,1,2,1.59c.77,2.67,1.56,5.3,2.24,8A69.66,69.66,0,0,1,296.35,494a11.73,11.73,0,0,1-4.71,9.41Z"/><path class="cls-13" d="M208.84,347.53c.17,3.29-1.87,6.24-1.33,9.5a2.11,2.11,0,0,1-1.13.22c-1.59-.76-2-2.49-2.92-3.79a37.27,37.27,0,0,1-6.13-15.93c-.79-5-.76-10.07-2.35-15-.82-2.52.4-5.59,1.62-5.47,2.12.2,2.92,2,3.88,3.57,4.9,8.3,6.43,17.66,8.36,26.87Z"/><path class="cls-13" d="M194.84,467.3c0-2.81-.06-4.88,0-7a3.14,3.14,0,0,1,2.24-3.12c1.33-.39,2.24.49,2.95,1.37a16.26,16.26,0,0,1,2.21,3.48,50.42,50.42,0,0,1,3.51,24.35,6.46,6.46,0,0,1-.68,1.93,2.31,2.31,0,0,1-3.51.71,13.89,13.89,0,0,1-5.05-8.85c-.71-4.5-2.83-8.9-1.7-12.89Z"/><path class="cls-13" d="M236.37,351a14.83,14.83,0,0,1-6.66-11.2,97.27,97.27,0,0,1,1.53-27.49,1.5,1.5,0,0,1,1-.8,1.55,1.55,0,0,1,1.16.37,4.27,4.27,0,0,1,1.08,1.76c2.38,9.78,5.07,19.53,3.46,29.79-.12.68-.12,1.36-.26,2-.37,1.67-.76,3.35-1.27,5.53Z"/><path class="cls-13" d="M318.43,494.05c.28,4.26-.68,6.55-2.33,8.59a3.13,3.13,0,0,1-4.84,0,11.51,11.51,0,0,1-2.47-6.35c-.54-7.09-1.22-14.21-1.9-21.29a2.17,2.17,0,0,1,1.05-2.33,2.14,2.14,0,0,1,2.95,1c1.59,2.53,3.34,4.91,4.19,7.88,1.39,4.65,2.9,9.24,3.35,12.5Z"/><path class="cls-13" d="M259,346.88c-1.85-2.64-3.8-5.22-5.5-7.94a17.7,17.7,0,0,1-3.15-11.14c.26-3.2,0-6.46.11-9.69s1.73-5.9,3.12-5.53c2.1.57,2.7,2.52,3.26,4.22,1.9,5.67,3.72,11.37,3.38,17.52-.23,4.11,0,8.25,0,12.36l-1.19.2Z"/><path class="cls-13" d="M335.24,387.47c.42-1.67-1.16-4.53,1.56-5.16,2.07-.45,2.49,2.27,3.48,3.72a56.49,56.49,0,0,1,8.05,17.37c.49,1.82,1.17,3.57.32,5.33-.68,1.39-.29,3.52-2,4.11s-2.75-1.25-3.89-2.27a14.73,14.73,0,0,1-4.87-8.81c-.83-4.71-2.87-9.19-2.61-14.29Z"/><path class="cls-13" d="M226.67,479.77c0,.71.06,2.1,0,3.48a2.12,2.12,0,0,1-1.33,2.19,2.49,2.49,0,0,1-2.58-.43A13.78,13.78,0,0,1,217.26,475c-.28-5.56-1.64-10.91-2.1-16.41a4.51,4.51,0,0,1,.34-2.67c.31-.54.85-1.22,1.39-1.33a2.18,2.18,0,0,1,1.79.65,51.11,51.11,0,0,1,4,7.29c2.09,5.33,4.7,10.6,4,17.29Z"/><path class="cls-14" d="M333.06,501.57c-2.07-.46-2.84-2.19-3.66-3.8a24.86,24.86,0,0,1-2.13-16.19c.51-2.75,1.31-5.33.51-8.13a5.34,5.34,0,0,1,.54-2.61,1.75,1.75,0,0,1,2.84-.57,13.14,13.14,0,0,1,1.53,2.3,50.39,50.39,0,0,1,3.88,13.92,21.66,21.66,0,0,1-3.51,15.08Z"/><path class="cls-13" d="M366.56,407.31c-6.38-4.13-8.7-10.31-10.32-16.83-.42-1.79-.36-3.66-1.05-5.42a3.22,3.22,0,0,1,1.37-4.22c1.47-1,3.37-.6,4.84,1.3a34.89,34.89,0,0,1,4.17,6.32,51.35,51.35,0,0,1,2.64,7.88,6.08,6.08,0,0,1,.22,2.73c-.51,2.63-1.19,5.24-1.87,8.24Z"/><path class="cls-5" d="M351.77,144.12c.56-4.11,1.07-8.25,1.78-12.33a8.78,8.78,0,0,1,1.7-3.75c3.86-4.45,8.28-8,14.63-8.16a23.56,23.56,0,0,1,19.5,8.76,19.22,19.22,0,0,1,4.39,13.55c-.48,11.91-13.23,22-23.44,21.06a25.28,25.28,0,0,1-8.64-2.35c-7-3.35-10.35-8.93-9.92-16.78Z"/><path class="cls-5" d="M193.19,132.41a18.39,18.39,0,0,1,14.21,5.33c7.4,7.31,8.16,16.78-1.08,25.28a13,13,0,0,1-1.14.8c-8.7,6.35-15.36,7-25.59-1.25-6.15-5-6.78-15.31-1.45-21.15,2.16-2.38,4.85-4.22,7.23-6.43a9.08,9.08,0,0,1,7.82-2.58Z"/><path class="cls-6" d="M221,239.73c.46-3,.23-6,.94-9a36.84,36.84,0,0,1,15.7-22.84c2.47-1.68,4.88-3.49,7.32-5.22,2.77,1.08,5.47,2.24,8.58,2.32,6.3.15,11.57,3.26,16.42,6.75,3.85,2.75,5.84,7.12,6.69,11.76.73,4-3.12,10.21-7,11.57a183.6,183.6,0,0,1-38.24,9.24c-4.88.6-8-.54-10.38-4.62Z"/></g></g></svg>