<svg xmlns="http://www.w3.org/2000/svg" viewBox="0 0 520.37 714.92"><defs><style>.cls-1{fill:#543828;}.cls-1,.cls-10,.cls-11,.cls-12,.cls-13,.cls-14,.cls-15,.cls-16,.cls-17,.cls-18,.cls-19,.cls-2,.cls-20,.cls-21,.cls-22,.cls-23,.cls-24,.cls-25,.cls-26,.cls-27,.cls-28,.cls-29,.cls-3,.cls-4,.cls-5,.cls-6,.cls-7,.cls-8,.cls-9{fill-rule:evenodd;}.cls-2{fill:#fff;}.cls-3{fill:#c8bbb3;}.cls-4{fill:#c7bbb4;}.cls-5{fill:#ebe6e3;}.cls-6{fill:#f1f9fe;}.cls-7{fill:#fbf9f8;}.cls-8{fill:#ecf3f6;}.cls-9{fill:#826d60;}.cls-10{fill:#6d5243;}.cls-11{fill:#a9988d;}.cls-12{fill:#7d6455;}.cls-13{fill:#b19e93;}.cls-14{fill:#d3cac3;}.cls-15{fill:#8e7669;}.cls-16{fill:#d2c7c1;}.cls-17{fill:#573c2b;}.cls-18{fill:#583b2c;}.cls-19{fill:#c8e9f1;}.cls-20{fill:#c9eaf1;}.cls-21{fill:#caeaf1;}.cls-22{fill:#cdebf2;}.cls-23{fill:#6a5041;}.cls-24{fill:#836859;}.cls-25{fill:#8b7163;}.cls-26{fill:#f7f7f6;}.cls-27{fill:#f3f1ef;}.cls-28{fill:#735a4c;}.cls-29{fill:#c7e8f0;}</style></defs><title>Asset 7</title><g id="Layer_2" data-name="Layer 2"><g id="Layer_1-2" data-name="Layer 1"><path class="cls-1" d="M74.24,713.56c-10.21-3-12.79-11.34-13.84-20.38a95.64,95.64,0,0,1,2-31.72c.51-2.27.7-4.76,1.87-6.63,2.15-3.37,1.07-5.78-1-8.65C44.44,619.59,30,590.65,18,560.46a260.05,260.05,0,0,1-15.62-56A195,195,0,0,1,.22,465c.43-8.56.85-17.12,1.56-25.65a233.7,233.7,0,0,1,24.69-87.62,237.94,237.94,0,0,1,15.88-26.9A128.53,128.53,0,0,1,76.93,291c3.63-2.44,7.65-4.28,11.37-6.32a4.73,4.73,0,0,0-.68-3.46C77.5,262.32,70,242.44,66.44,221.33c-2.83-16.9-5.33-33.91-5.22-51.08.09-14.35,1.2-28.66,2.67-42.95C67,97.59,77.55,70.3,89.74,43.45a118.43,118.43,0,0,1,8-13.8c4-6.35,9.32-11.43,15.25-16,7.22-5.64,14.74-5.92,22.82-2.58a30.92,30.92,0,0,1,8.16,5.22,84.58,84.58,0,0,1,11.48,12.07c11.76,14.91,20,31.7,25.48,49.75,4.34,14.15,8.56,28.35,12.14,42.72,1.84,7.43,2.6,15,3.54,22.62.51,4.11,1,8.25,1.56,12.39a5.42,5.42,0,0,1,1.25,4.05c0,1.11,0,2.18,0,3.29v5.53c0,2.21.09,4.42-.14,6.63-1.13,2.89-.05,6.15-.88,8.84.37-4.47,1.08-9.12,1-13.86V166c0-1.42,0-2.87,0-4.31,0-1,0-2.13,0-3.21a7.56,7.56,0,0,1,1.28-4c.87-5.7,1.75-11.43,2.63-17.15,4.37-28.66,13.24-55.73,28.66-80.48,5.39-8.61,10.94-17.17,16.41-25.73a61.27,61.27,0,0,1,15-16.25c3.88-3,7.71-5.92,11.62-8.81C280.71,1.9,287,.39,294,.05c10.17-.53,18.45,3,25.71,9.87a85.85,85.85,0,0,1,15.87,21c8.87,15.93,14.54,33,17.95,50.82,3.59,18.94,5.47,38,4.45,57.32a202.79,202.79,0,0,1-5.56,36.34c-3.29,13.94-6.32,28-11.11,41.5a168.37,168.37,0,0,1-7.17,17.32,115.11,115.11,0,0,0-4.77,10.77,104.42,104.42,0,0,1-12.44,23.95c-.88,1.31-2.21,2.44-1.84,4.59,5.92,1.85,10.85,5.67,15.7,9.58,9.89,8,19.82,16,29.25,24.55a118.65,118.65,0,0,1,25.18,32.94c5.5,10.43,10.51,21.15,15.39,31.86a68.91,68.91,0,0,1,4.9,17.32c.46,2.7,1.48,4.54,4.25,5.7,4.45,1.87,8.31,5,13.07,6.66.46-1.81.88-3.34,1.19-4.93,1-5.24,3.89-9.38,7.6-13,9.47-9.1,20.66-13.61,33.93-13.21a42.89,42.89,0,0,1,28.94,11.59,156.16,156.16,0,0,1,12.36,12.19,44.43,44.43,0,0,1,9.84,18.11c1.05,4,2.41,8,3,12.11q4.64,32.52-21.63,52.21c-5.38,4-11.11,7.54-17.88,8.82-2.72.51-5.47.76-8.19,1.13-.54,1.84.7,3.09,1.36,4.48,7.22,15.36,10.26,31.58,10.43,48.44a242.78,242.78,0,0,1-5.13,50.35c-1.73,8.84-3.38,17.71-4.85,26.61A104.72,104.72,0,0,1,466.83,641c-1.64,3.82-3.2,7.71-4.67,11.59-6.24,16.24-16.19,30.08-27.61,43-.91,1-1.93,2-2.89,3-7.57,8-16.84,9.38-26.73,5.92-8.85-3.09-16.76-7.91-22-16.16-1.22-2-2.67-3.79-4.08-5.61-1-1.25-1.54-3-3.15-3.63-1.76-.65-2.89,1.14-4.39,1.53-4.63,1.25-9.1,3.55-14,1.51-1.93,1.27-2.24,3.48-3.09,5.3a64.39,64.39,0,0,1-7.2,11.82,44.63,44.63,0,0,1-14.4,12.84,37,37,0,0,0-3.88,2.83h-8.33c-1.08-1-2.59-.65-3.78-1.19-12.84-4-21.88-12.56-28.65-23.78-4.28-7.09-4-6.21-12.36-4.76-11.17,1.9-20.41,6.32-28.24,14.51-2.8,2.92-6.57,5.08-10.17,7.2-14.18,8.31-32.54,2.81-39.23-12.27-2.16-4.85-4.82-6.83-10-7.74-15.28-2.64-30.92-2.92-45.89-7.46-3.32-1-5.7.54-8.14,2.58-6.06,5-11.53,10.72-17.4,15.93-9.24,8.17-19.11,15.51-32.17,16.27-3.38-.31-6.84.71-10.12-.65Z"/><path class="cls-2" d="M85.4,713.62c13.44-3.86,24.72-11.23,34.5-21.09,5.22-5.22,10.72-10.18,16-15.31,1.22-1.19,2.29-1.1,3.74-.56a88.37,88.37,0,0,0,18.11,4.42c4.09.59,8.25,1,12.36,1.5,8.25,1.08,16.47,2.21,24.69,3.29a2.79,2.79,0,0,1,2.61,1.87,8.24,8.24,0,0,1,.43,1.3c1.5,11.09,13.74,20.33,27.24,20.13a16.48,16.48,0,0,0,8.56-2.27c7.54-4.53,15-9.27,21-15.7,3.35-3.52,6.8-5.79,12-5.79S276.91,683,282,681.33c.82-.28,1.5-1.1,2.58-.71,2.46,4.09,5,8.2,7.43,12.36a33.21,33.21,0,0,0,7.34,8.25,85.58,85.58,0,0,0,18.42,12.16c.43.37.57.74.4,1.05s-.34.48-.48.48H85.38c-.46-.31-.63-.59-.46-.88s.34-.42.48-.42Z"/><path class="cls-3" d="M85.4,713.62a11.17,11.17,0,0,1,0,1.3H74.24c0-.45,0-.9,0-1.36,3.74,0,7.45.06,11.16.06Z"/><path class="cls-4" d="M317.65,714.92c0-.51.05-1,.08-1.53,1.19,0,2.38,0,2.7,1.53Z"/><path class="cls-5" d="M198.19,160c0-1.39,0-2.78-.05-4.14.88-.46,1.73-.94,2.61-1.39-.06,1.39-.12,2.78-.17,4.17-.54.85-.88,2.09-2.39,1.36Z"/><path class="cls-6" d="M397.05,477.21c2.21-4,4.53-8,6.66-12.1,3.71-7.15,5-14.89,5.44-22.79a191.24,191.24,0,0,0-.54-27.08c-.17-2-.68-4-.06-6.43,7.32,2.58,12.84,7.68,19.25,11.17s10.52,9.49,15.88,14.34c1.24-2.24.28-3.65-.46-5-3.49-6.81-7.2-13.47-12.53-19.11-2.44-2.55-2.38-2.72-.48-6,1.28-2.21,2.78-4.25,4.11-6.43,5.76-9.33,14.63-13.1,25.09-13.84,5.3-.34,10.6-.39,15.84,1.11a29.49,29.49,0,0,1,11.57,6.09,136.14,136.14,0,0,1,11.08,10.52C508,412.78,512,426.1,509.58,440.79c-2.27,13.8-10,24.2-22.82,30.44a31.76,31.76,0,0,1-11.39,2.86,11,11,0,0,0-6.92,2.67c-1.28,1.13-2.35.76-3.4-.74s-2-3.09-3.12-4.59c-.4-.51-1-1.08-1.76-.8a1.3,1.3,0,0,0-.85,1.59,43.86,43.86,0,0,0,1,5.44c2.9,10.49,5.62,21,8.76,31.44,3.6,11.9,4.51,24,4.51,36.37,0,17-3.2,33.62-6.29,50.23-.94,5-1.79,10-2.55,15a119.83,119.83,0,0,1-8.45,28.54c-1.65,3.83-3.32,7.66-4.88,11.51-5.84,14.66-15.27,26.9-25.65,38.53a11.07,11.07,0,0,1-7.79,3.74c-11.17,1.1-19.79-3.18-26.45-11.88-2.13-2.78-4-5.67-6.1-8.45a47.47,47.47,0,0,0-4-4.82c-3.07-3.17-3.77-3.4-7.74-1.21-4.17,2.26-8.68,2.77-13.55,4.13-.34-3.79,1.53-6.91.11-10a14.22,14.22,0,0,0-1.61-3,16.83,16.83,0,0,0-2.73-2.21,15.47,15.47,0,0,1-2.23,1.79A4.36,4.36,0,0,0,351,661a116,116,0,0,1-2.8,12.87,57.86,57.86,0,0,1-12.82,22.79c-4,4.48-9.95,6.43-17,3.46a37,37,0,0,1-8.3-5,147.54,147.54,0,0,1-23.1-22c-.32-.34-.51-.77-.8-1.1-2.07-2.7-4.59-3.72-7.91-2.3a33.44,33.44,0,0,1-5.89,2,63.68,63.68,0,0,1-13.07,1.62c-5.33.06-10.66.31-16,.74-11.34.88-22.68.45-34,.36-7-.05-13.87-.65-20.81-.85-8.56-.25-17.15-.36-25.71-.48a117.36,117.36,0,0,1-28.12-3.85,6.7,6.7,0,0,0-6.41,1.27,150.16,150.16,0,0,0-17.46,15.88,52.92,52.92,0,0,1-17.74,11.9,33.43,33.43,0,0,1-15.59,2.58c-3.66-.22-4.85-1.1-6-4.65A28.1,28.1,0,0,1,70,688.08a102.77,102.77,0,0,1,1.87-22.82c.45-2.49.91-5,1.33-7.51.23-1.14.34-2.69,1.56-2.84,2-.25,2-1.41,2.1-2.86.14-4.11-1.39-7.62-3.68-10.94-7.77-11.23-15.4-22.59-21.86-34.64C37.1,579.91,24.49,552.7,16.81,523.39,10.4,498.89,9,474.12,11.14,449c1-11.09,2.15-22.09,4.08-33.06a200.14,200.14,0,0,1,12.87-42.43A238,238,0,0,1,47.56,336a121.58,121.58,0,0,1,29-31.55c4.62-3.49,9.1-7.17,13.72-10.66,1.79-1.36,3.29-3.2,6-3,1,.08,2.13-.8,3.06-1.45,2.58-1.81,3.18-3.63,1.73-6.49-1.64-3.29-3.66-6.41-5.53-9.58a88.13,88.13,0,0,1-8.08-17.63c-1.22-3.72-2.69-7.37-4.19-11-3.89-9.27-6-19-7.4-28.86-1.36-9.15-2.13-18.39-3.32-27.55a172.08,172.08,0,0,1-.85-31.92c.71-12.47,1.65-24.94,3.57-37.33a166.68,166.68,0,0,1,7-28.23Q88.07,73.61,95,57a145.5,145.5,0,0,1,9.5-18.51,59.45,59.45,0,0,1,9-11.4c6.72-6.66,15.51-7.34,23.27-1.79a44.76,44.76,0,0,1,8.42,8.25,142.29,142.29,0,0,1,16.41,24.92c6.18,12,10.18,24.8,13.95,37.67,1.62,5.56,3,11.17,4.71,16.7,3.71,11.76,5.13,23.92,6.57,36.11,2.53,21.26,1.65,42.58,1.31,63.87a136.84,136.84,0,0,1-4.45,30.86,76.06,76.06,0,0,0-1.56,11,24.48,24.48,0,0,0,.25,5.53c.2,1.53,2,2.58,3.06,1.62,2.64-2.5,5.9-2.33,9.1-2.55,6.72-.46,13.41-.8,19.85,1.87,1.53.62,2.66-.31,3.51-1.51a2.31,2.31,0,0,0-.2-3.17c-2.32-2.27-2.72-5.25-3.34-8.19a195.57,195.57,0,0,1-3.15-23.39c-1.39-16.38-3-32.77-1.9-49.24,1.79-25.68,4.91-51.13,13.66-75.6a182.86,182.86,0,0,1,16.22-34.47c5.72-9.24,11.56-18.42,17.35-27.63s14.2-15.79,23.07-21.8a14.05,14.05,0,0,1,5.76-2.27,71.66,71.66,0,0,1,10.31-1.25,23.52,23.52,0,0,1,17.61,6.89,77,77,0,0,1,14,18.91,152.85,152.85,0,0,1,16.92,50.37,299,299,0,0,1,3.77,38,169.43,169.43,0,0,1-4.11,40c-2.83,12.87-5.81,25.71-9.69,38.33a159.4,159.4,0,0,1-9.67,24.49,78,78,0,0,0-4.16,9.52,100.29,100.29,0,0,1-12.39,24,18.8,18.8,0,0,0-3.69,8.84c-.45,4.06.57,7.09,4.17,9.44a339.83,339.83,0,0,1,33.65,25.69c2.83,2.41,5.55,4.93,8.39,7.31,12.13,10.15,20.95,22.82,28,36.76,4.28,8.48,8.36,17,12.33,25.66a60.38,60.38,0,0,1,4.79,15.9A234.41,234.41,0,0,1,399,438.35a263.47,263.47,0,0,1-3.57,35.88A24.66,24.66,0,0,1,392,485.37a4.79,4.79,0,0,1-.77,1.53c.54,0,.17-.79.65-.9a23.55,23.55,0,0,1,5.14-8.79Z"/><path class="cls-7" d="M200.63,217.07c1.14,6.13,2.07,12.28,3.52,18.32,1.36,5.78,3.26,11.42,5,17.2-5.78.23-11.23.46-17.1.68,1.39-6.4,2.9-12.36,3.92-18.37s1.53-11.87,2.29-17.83a1.46,1.46,0,0,1,2.41,0Z"/><path class="cls-8" d="M208.14,687c11.54-.11,22.54.54,33.31-.2.91,1.36.11,2-.59,2.47-1.7,1.19-3.52,2.24-5.13,3.54-6.16,4.94-13,4.11-19.73,2a11.55,11.55,0,0,1-7.86-7.83Z"/><path class="cls-9" d="M391.09,486.62c1.45-4.11,2.89-8.25,4.37-12.39.42,1,.14,2.47,1.59,3a30.05,30.05,0,0,1-5.48,9.92c-.17-.17-.34-.34-.48-.51Z"/><path class="cls-10" d="M200.77,169.74a27.15,27.15,0,0,1-.7,7.37c-.71,2.52-.71,5.24-1.34,7.88-1.1-3.21-.54-6.49-.65-9.75,1.87-1.37-1.08-5.11,2.69-5.5Z"/><path class="cls-11" d="M199.27,200.44c.09,4.64,2.21,9.09,1.39,13.86-3.37.17-1-3.15-2.47-4.11,0-3.23.06-6.49.09-9.73.28-.76.62-.73,1,0Z"/><path class="cls-12" d="M200.77,169.74a3.18,3.18,0,0,0-1.36,2.75,3,3,0,0,1-1.33,2.75v-7c1.14-.68.11-3.37,2.61-2.78,0,1.42.06,2.84.08,4.26Z"/><path class="cls-13" d="M200.69,165.48c-1.19.6-1.08,2.47-2.61,2.78.06-1.87.09-3.71.11-5.58.63-.77,1-2,2.44-1.33,0,1.38,0,2.74.06,4.13Z"/><path class="cls-14" d="M198.19,210.19c1.73.82.86,3.2,2.47,4.11,0,.9,0,1.84,0,2.77h-2.41c0-2.29,0-4.59,0-6.88Z"/><path class="cls-15" d="M199.27,200.44c-.34,0-.68,0-1,0a23,23,0,0,1,.25-8.39c1.37,3.43.86,5.9.74,8.37Z"/><path class="cls-16" d="M200.63,161.35c-.82.45-1.61.9-2.44,1.33V160l2.39-1.36c0,.9,0,1.84,0,2.75Z"/><path class="cls-1" d="M334.74,362.46a100.87,100.87,0,0,1-1.42,12.42c-2.69,13.44-9.58,23.84-21.31,31-8.34,5.1-17,9.49-26.39,12a56.85,56.85,0,0,1-32.83-1.13,42.3,42.3,0,0,1-22.71-17.38c-1.9-2.89-3.51-6-5.3-8.93-7.05-11.73-7.45-24.07-3.37-36.79,4.56-14.12,13.18-25.49,24.83-34.3,10-7.57,21.55-11.91,34.3-10.35,20,2.41,36.45,11.48,48,28.38,5.13,7.48,6.55,16.13,6.21,25.08Z"/><path class="cls-1" d="M160.55,361.75c.2,4.2-.68,9.22-1.7,14.21-2.72,13.09-9.35,23.55-21.32,30.1-9.35,5.1-19,9.35-29.93,10.18-8.48.65-16.5-1.36-24.49-3.63-.68-.2-1.28-.54-2-.74-20.44-5.95-29.59-23-29.7-41.95A66.29,66.29,0,0,1,57.82,341a41.64,41.64,0,0,1,14.46-17.37c1-.66,1.84-1.65,2.92-1.85,5.58-1.13,10-4.59,14.91-7.14,5.56-2.92,11.45-3.51,17.55-2.78a71.78,71.78,0,0,1,22,6c3.12,1.48,6.21,3.07,9.3,4.6,8.28,4,13.92,10.54,17.63,18.85a41.76,41.76,0,0,1,4,20.43Z"/><path class="cls-1" d="M208,443.76A14.71,14.71,0,0,1,203.38,457a18,18,0,0,1-14.45,5.47c-.91-.08-1.85-.11-3.15-.2-1.08,2.41-2.3,4.88-3.35,7.4-2.72,6.52-7.85,9.47-14.59,9.89a34,34,0,0,1-7.6-.56c-4.93-.88-6.66-3-6.61-8.14a46.58,46.58,0,0,1,1-11.05A2.61,2.61,0,0,0,153,456.4a14.64,14.64,0,0,1-3.6-2,10.59,10.59,0,0,1-4.11-6.23c-.45-2.72-.79-5.59,2-8.14a12.61,12.61,0,0,0,5.16,9.07,7.7,7.7,0,0,0,10.18-.39,25.35,25.35,0,0,0,6.07-8.37,36.68,36.68,0,0,0,3.65-12.72c-2.15-1.51-4.76-1.51-7.23-1.9a20.15,20.15,0,0,1-9.52-3.83c-4.31-3.4-4.42-10.49,0-13.86,3.29-2.53,6.8-4.79,10.29-7,3.29-2.1,7.09-2.07,10.77-1.82,6.15.46,11.85,2.16,16.13,6.95a12.28,12.28,0,0,1,2.21,3.46c2.07,5,1,8.92-3.4,12-2.83,2-5.81,3.8-9.41,4.23A41.27,41.27,0,0,0,177.3,427c-.25,6.63,1,13,1.56,19.42a9.3,9.3,0,0,0,.94,2.57,4.39,4.39,0,0,0,4.17,3.12,17.66,17.66,0,0,0,7.51-.88c5.13-2.12,10.26-4.16,14.68-7.65a1.17,1.17,0,0,1,1.81.17Z"/><path class="cls-17" d="M162.19,220.45c.6,7.23.23,17.18.29,27.13a37.06,37.06,0,0,1-.06,6.91c-.45,2.52,2.07,5,.2,7.23-1.59,1.84-4.34,1.42-6.52,2-8.3,2.16-16.1,5.62-24,8.85a26.49,26.49,0,0,0-7.71,4.56,14,14,0,0,1-2.75,2.1c-1.73,1-4.59-.2-4.9-2.1-1-6.26-3.92-11.82-5.9-17.74-3.8-11.23-5.38-22.91-7.31-34.53-2.7-16.24-3.06-32.68-4-49.07a73.68,73.68,0,0,1,1.22-20.69c2.3-10.37,3.43-21,6.89-31.1a163.27,163.27,0,0,1,9.18-21.68,19.58,19.58,0,0,1,9.27-9,8.49,8.49,0,0,1,8.59.57,20.8,20.8,0,0,1,4.62,4.17,43.76,43.76,0,0,1,7,11.9,143.93,143.93,0,0,1,10.18,35.92,418.7,418.7,0,0,1,4.71,53.18c.08,6.23.59,12.44,1,21.4Z"/><path class="cls-18" d="M235.7,253.16a69.44,69.44,0,0,1-1.51-15.87c-.05-14.12,1.17-28.18,2.22-42.27a301.28,301.28,0,0,1,6.06-41.84,206.38,206.38,0,0,1,13.69-41.38,72.61,72.61,0,0,1,13.78-19.88,22.44,22.44,0,0,1,9.81-6.26c8.67-2.72,13.63.88,17,5.58a21.75,21.75,0,0,1,2.58,4.88c3.52,9.78,7.32,19.47,8.9,29.85.6,3.91,1,7.79,1.22,11.71q.56,9,.94,18c.48,11.85-1.28,23.56-2.92,35.24-2.16,15.36-6.21,30.33-10,45.32-1.95,7.69-5.38,14.77-8.84,21.83-.82,1.65-1.73,3.26-2.72,4.85-.85,1.39.31,3.26-1.19,4.65a238.75,238.75,0,0,0-42.13-7.66c3.35-5.49,8.82-2.09,13.21-3.14,6.32-.14,12.39,1.64,18.51,2.83,5.3,1,8-.93,10.12-5.72,10.89-24.41,15.93-50.23,19-76.54,2.92-25.09,1.67-49.89-7.32-73.9-2-5.3-3.8-10.83-10.31-11.82s-10.83,3-14.66,7.63c-11.34,13.52-16.75,29.79-21.17,46.37-6.47,24.27-9.08,49.13-9.64,74.18-.14,6.72-2,13.3-1.39,20.05-1.08,4.45,2.44,10-3.23,13.29Z"/><path class="cls-19" d="M414.34,568.26c-4.54-3-7.12-6.63-8.14-11.37s-2.49-9.3-2.35-14.2c0-2.75.14-5.53-1-8.19a3.09,3.09,0,0,1,.65-3.21c.71-.87,2.41-1.21,3-.42a23.14,23.14,0,0,1,2.27,3.43A89.64,89.64,0,0,1,416,555.13c1,4.06,1.47,8.71-1.64,13.13Z"/><path class="cls-19" d="M362.12,411.13a11,11,0,0,1,.23-3c1.47-4,1.08-8.16,1.16-12.3a15,15,0,0,1,.43-3.4,1,1,0,0,1,1.58-.54,10.86,10.86,0,0,1,2,2.75c2.27,4.56,3.26,9.55,4.34,14.48.31,1.34.39,2.72.76,4.06,2,6.74-.79,12.1-5,17a1.61,1.61,0,0,1-1.25.34,1.37,1.37,0,0,1-1.27-1.36c-.26-2.07-.77-4.05-1.19-6.06-.88-4-1.25-8.17-1.79-12Z"/><path class="cls-19" d="M407.48,640.88c-2.27-6.8-2.47-13-2.21-19.13a17.19,17.19,0,0,1,.48-4.76c1-2.73.82-5.45.9-8.2,0-1.61.12-3.2.29-4.81a1.54,1.54,0,0,1,2.18-.91,6.1,6.1,0,0,1,2.95,3.65c1.73,6,3.48,12,2.83,18.23a25,25,0,0,1-7.42,15.93Z"/><path class="cls-20" d="M154.85,604.23c.26,2.75-1.92,5.24-.88,8.14.23.56-1.55,1.16-2.29.68-3.49-2.19-5.87-5.16-6.49-9.36-.66-4.51-1.76-8.81-.31-13.58,1-3.4.25-7.34.31-11.05,0-1.36-.2-2.81.62-4a2,2,0,0,1,1.05-.85,1.36,1.36,0,0,1,1.08.6,31.83,31.83,0,0,1,2.24,5.78c1.64,7.4,3.09,14.85,4.59,22.28a12.52,12.52,0,0,1,.08,1.39Z"/><path class="cls-20" d="M396.9,561.91V564c-.08,2.09-.28,4.5-2.49,5.1-1.84.51-3.49-1.11-4.57-2.64a17.22,17.22,0,0,1-2.52-4.87c-.93-3.07-1.39-6.27-2.24-9.36-1-3.57-.65-7.31-1.9-10.86-.56-1.64-.11-3.68.12-5.49a2.07,2.07,0,0,1,1.33-1.34c.54-.14,1.64.12,1.81.48,3.57,8,8.2,15.54,10.24,24.16a13.58,13.58,0,0,1,.22,2.69Z"/><path class="cls-19" d="M186.37,607.38c-.39,2.66-.7,4.93-1.1,7.17a1.54,1.54,0,0,1-2.21.88,15.33,15.33,0,0,1-7.26-12.59c-.14-2.52,0-5-.06-7.6,0-3.2.29-6.43-1-9.52a3.42,3.42,0,0,1-.12-2,3,3,0,0,1,.94-1.7,2,2,0,0,1,2.55.08,12.07,12.07,0,0,1,2.1,2.67c3,5.24,4.39,11,5.27,17,.28,2,.54,4,.93,5.64Z"/><path class="cls-20" d="M427.12,640.74c-3.77-4.65-4.7-9.41-3.15-14.54a32.09,32.09,0,0,0,.8-6.12c.42-4.09,1.05-8.17,1.59-12.22a1.72,1.72,0,0,1,.25-.65,2.86,2.86,0,0,1,2.07-1.62,2.17,2.17,0,0,1,2.27,1.25c1.19,2.75,2.24,5.5,2.15,8.62a79.45,79.45,0,0,0,.06,11c.62,5.93-2.75,9.81-6,14.26Z"/><path class="cls-20" d="M459.72,441.86a3.3,3.3,0,0,1,3.23.91c3.23,3.2,7.51,5.24,10,9.27a19.83,19.83,0,0,0,4.28,4.5c2.27,1.88,3.06,4.48,4,7.09a4.1,4.1,0,0,1-.9,4.42c-2.13,2.41-4.11,2.56-6.49.4a14.79,14.79,0,0,1-3.43-4.28,85.34,85.34,0,0,0-4.74-8.42c-2.35-3.63-3.74-7.88-6.89-11.08a2,2,0,0,1,.94-2.81Z"/><path class="cls-19" d="M317.53,646.92a10.52,10.52,0,0,1-1,6c-1.19,2.18-3.12,2.49-5.05.85a10.26,10.26,0,0,1-3.31-7.37c-.4-8-.2-16.1-.12-24.12,0-.46.83-1.22,1.34-1.28a2.11,2.11,0,0,1,1.73.85,20.82,20.82,0,0,1,2.29,5c1.48,5.5,2.78,11.08,4.06,16.64a15.73,15.73,0,0,1,0,3.43Z"/><path class="cls-19" d="M294.43,624.07a1.83,1.83,0,0,1,2,1.59c.65,3.15,1.22,6.32,1.75,9.5.74,4.3,1.25,8.64,2.16,12.89a6.61,6.61,0,0,1-.29,4.68c-1,2.1-2.06,4.62-4.64,4.56-2.78,0-3.49-2.94-3.89-5.07-.76-4-1.39-8-.68-12.19.6-3.4.37-6.91.4-10.37a5.94,5.94,0,0,1,2-5,7.47,7.47,0,0,1,1.19-.63Z"/><path class="cls-20" d="M86.68,626.28a31.82,31.82,0,0,1,.62,4.09,2.22,2.22,0,0,1-.9,1.67,2.18,2.18,0,0,1-1.9.17A11.9,11.9,0,0,1,78.6,624c-1.61-9.3-1.44-18.77-2.1-28.18,0-.28.51-.77.88-.91s1.05,0,1.22.2a9.06,9.06,0,0,1,1.25,2.41c2.21,7.48,4.51,15,6.55,22.54.53,1.95.36,4.11.51,6.18l-.23,0Z"/><path class="cls-20" d="M195.25,304.86c0,1.62,0,3.23,0,4.85a10.89,10.89,0,0,1-3.43,7.34c-1.56,1.56-3.69,1.28-4.45-.76a17.56,17.56,0,0,1-1.19-10.72c1.07-4.87,2.38-9.83,2.15-15a10.25,10.25,0,0,1,.28-2.75c.2-.91.8-1.76,1.82-1.68a2.15,2.15,0,0,1,1.53,1.17c1.59,4.79,3.34,9.58,3.29,14.74v2.77Z"/><path class="cls-19" d="M222,611.35c-3.29-1.08-3.37-3.35-4.76-4.54a31.48,31.48,0,0,1-3.89-3.94,10,10,0,0,1-2.72-7c.26-4.67-1.07-9.09-2.27-13.55A15,15,0,0,1,208,579c0-.82,1.42-1.53,2.1-1,2.36,1.53,4.59,3.35,5.64,5.93,2.55,6.15,5.53,12.21,4.62,19.24a13.14,13.14,0,0,0,1.62,8.23Z"/><path class="cls-20" d="M173,297.41c-.15,3.26.65,7.68-1.28,11.85-.28.62-.34,1.33-.65,1.95-1,2-1.73,4.42-4.25,5.05-1.45.37-3.4-3.52-3.49-6.83a10.06,10.06,0,0,1,.11-2.75q2.81-11.35,5.7-22.62a1.41,1.41,0,0,1,1-.8,1.59,1.59,0,0,1,1.19.4,7.55,7.55,0,0,1,1.7,5.1v8.65Z"/><path class="cls-20" d="M339.08,647.43c-5.08-5.3-9.07-10.91-8.93-18.6,0-1.61,0-3.23,0-4.84a5,5,0,0,0-2.21-4.76c-1.05-.69-1.79-1.56-1-2.84a3,3,0,0,1,4.22-1,11.46,11.46,0,0,1,4.62,5c2.61,6.64,5.84,13.24,3.4,20.64-.7,2.15,1.51,4-.05,6.32Z"/><path class="cls-20" d="M492.8,449.46a4.69,4.69,0,0,1-6.38,4.19c-3.09-1.36-5-4-7.23-6.35a77.19,77.19,0,0,1-6.06-7.54,18.85,18.85,0,0,1-2.21-4.25,2.55,2.55,0,0,1,.36-1.9,1.25,1.25,0,0,1,1.82-.25c4.39,2.58,8.81,5,13.07,7.76a38.6,38.6,0,0,1,5.16,4.6,4.64,4.64,0,0,1,1.47,3.74Z"/><path class="cls-20" d="M431,557.26c-1.9-1.47-3.09-2.52-4.42-3.4-2.07-1.42-2.69-3.52-3.32-5.81-1.58-5.9-1.3-11.91-1.33-17.89a16.75,16.75,0,0,1,.29-2.72c.14-.82,1.72-1.39,2.21-.77a9.85,9.85,0,0,1,2,2.75c2,5.67,3.91,11.34,5.78,17a3.84,3.84,0,0,1,.14,2.66c-1,2.41-.22,5.08-1.33,8.14Z"/><path class="cls-20" d="M327.48,522.37a24.12,24.12,0,0,1-.93,3.11,3.06,3.06,0,0,1-3.57,1.36c-2.61-1.41-5.47-2.83-6.24-6-1.25-5.07-2.21-10.26-3.23-15.39a2.35,2.35,0,0,1,.82-2.46c.91-.63,1.76-.12,2.47.51a32.18,32.18,0,0,1,10.12,16c.25.88.36,1.79.56,2.87Z"/><path class="cls-20" d="M346.81,509c0,.91,0,1.84,0,2.75-.17,2.44-1.42,2.92-3.74,1.73-3.09-1.59-4.31-4.6-5.79-7.4a13.11,13.11,0,0,1-1.39-4.57,15.5,15.5,0,0,0-1.67-6.6c-.93-1.64-.31-3.06.45-4.51s2-1.7,3.35-.54c6.07,5.19,9.1,10.63,8.81,19.14Z"/><path class="cls-20" d="M350.36,432.93c-.63-4.22-2.21-6.6-3.63-9.1a9.19,9.19,0,0,1-1.19-3.88c-.14-4.14-.06-8.28-.06-12.44a5.49,5.49,0,0,1,1.68-3.66c1.07-1.25,2.66-1.25,3.37.14a46.6,46.6,0,0,1,4.65,16.44,5.15,5.15,0,0,1-.17,2,67.74,67.74,0,0,1-4.65,10.46Z"/><path class="cls-20" d="M295.93,512.47a5.56,5.56,0,0,1,1.45.8,30.66,30.66,0,0,1,10.15,17.46,5.75,5.75,0,0,1-2.38,6,2.63,2.63,0,0,1-3.72,0c-1.92-1.73-3.68-3.66-4.19-6.18-1.16-5.55-2-11.17-2.95-16.78-.09-.62.45-1.3,1.64-1.25Z"/><path class="cls-20" d="M212.43,285.84c.28.17,1.13.4,1.33.88a34.49,34.49,0,0,1,2.21,6.46c.42,2.24.65,4.51,1,6.75.68,4.37-1.65,7.91-4.59,10.94-.17.2-1,.06-1.22-.17-2.5-3.2-4-6.74-3.26-10.85.79-4.28,1.84-8.51,2.8-12.73a1.49,1.49,0,0,1,1.71-1.28Z"/><path class="cls-21" d="M99.27,621.07c0,.71,0,1.39,0,2.07-.12,1.3.36,3-1.39,3.48-1.22.32-2-.79-2.89-1.56a11,11,0,0,1-3.58-10.6,46.76,46.76,0,0,0,.91-8.87,23,23,0,0,1,.14-2.75c.29-2.1,1.56-3.91,2.47-3.54,1.56.65,1.36,2.18,1.67,3.49a90.71,90.71,0,0,1,2.67,18.28Z"/><path class="cls-20" d="M84,526.11c0-2.3,0-4.59,0-6.89A4,4,0,0,1,85.09,516a3,3,0,0,1,1.79-.65c.31,0,.85.48,1,.82q2.18,8.34,4.25,16.67a3.84,3.84,0,0,1,.06,2c-.62,1.9-.6,4.2-2.41,5.47-1.22.83-5.3-2.8-5.56-5.3a86.68,86.68,0,0,1-.05-9Z"/><path class="cls-21" d="M102,663.22c-.51,2.66-1,6.07-1.87,9.38a12.33,12.33,0,0,1-4.85,6.52,2.43,2.43,0,0,1-3.86-1.25,10.31,10.31,0,0,1,.85-8.61c2-3.32,4.26-6.55,6.47-9.75.48-.71,1.36-1.45,2.32-.74a3,3,0,0,1,.91,1.7,16.37,16.37,0,0,1,0,2.75Z"/><path class="cls-21" d="M450.73,623.68c-4.9-4.09-3.88-9.1-3.51-13.78.17-2.44,1.13-4.85,1.39-7.37.08-1,1.1-1.93,1.78-2.81a1.51,1.51,0,0,1,1.22-.45,1.44,1.44,0,0,1,.82.85c1.65,5.33,1.73,10.8,1.42,16.27-.17,2.61-1.67,4.68-3.12,7.29Z"/><path class="cls-20" d="M492.86,432.22c.17,1.7-.8,2.81-2.39,3.66a3.37,3.37,0,0,1-3.82-.42c-3.52-2.41-5.81-5.9-8.48-9a2,2,0,0,1,0-2.58A2.37,2.37,0,0,1,480,423a20.58,20.58,0,0,1,10.8,4.17c1.67,1.33,2.07,2.52,2.07,5.07Z"/><path class="cls-20" d="M71.34,519.59c0,4.14,0,8.28,0,12.41a1.14,1.14,0,0,1-.77.85,1.58,1.58,0,0,1-1.22-.34,8.2,8.2,0,0,1-3.09-5.24,34.54,34.54,0,0,1,2.81-20.15c.28-.6.79-1.2,1.61-.94s.8,1,.8,1.64v11.77Z"/><path class="cls-22" d="M56.09,530.81a11.53,11.53,0,0,1-3.74-7.93c-.65-7.8-1.16-15.71,1.33-23.36a1.48,1.48,0,0,1,1-.68,1.42,1.42,0,0,1,1,.68,2.29,2.29,0,0,1,.36,1.3v30Z"/><path class="cls-21" d="M111.65,668.55c-1.53,3.34-.79,7.77-3.17,11.34a12.38,12.38,0,0,1-2,2.72c-1,.76-2.24,1.93-3.66.93a3.93,3.93,0,0,1-1.67-3.57,11.6,11.6,0,0,1,1.13-3.91c1.79-3.2,3.71-6.29,5.67-9.35a1.76,1.76,0,0,1,2.32-.83c.91.43,1.25,1.28,1.39,2.67Z"/><path class="cls-21" d="M330.54,437.52c-2.43-5.66-2.83-10.71.26-15.64a2.22,2.22,0,0,1,1.73-.8,2.14,2.14,0,0,1,1.36,1.36c1,5.14.85,10.1-3.35,15.08Z"/><path class="cls-23" d="M235.7,253.16c1.41-1.22,1.19-2.89,1.22-4.45.05-3.2.08-6.41.14-9.61,4.59,1.9,3.23,6.07,3.23,9.41,0,5,1.93,7,6.92,6.89,3.37,0,7.48-1.19,9.6,3.14-3.23.06-6.46.15-9.69.2-1.61,0-3.29-.2-4.51,1.19-2.24.15-4.5.8-6.66-.22-.68-.34-1.9-.88-1.1-2,1.05-1.44.48-3.06.85-4.56Z"/><path class="cls-24" d="M208,443.76l-1.81-.17a2.28,2.28,0,0,1,.06-.65c.22-.74.22-2,1.44-1.33a1.24,1.24,0,0,1,.31,2.15Z"/><path class="cls-25" d="M391.57,487.13c-.19.54-.39,1.39-1.1.82s-.09-1.07.62-1.33a1.55,1.55,0,0,1,.48.51Z"/><path class="cls-2" d="M280,345.74a20,20,0,0,1,6.83-15.62c4.09-3.77,8.34-4.79,13.87-3.2,7.08,2,12.41,5.87,16,12.16,4.82,8.39,3.43,15.9-4.25,22a27,27,0,0,1-11.28,5,10.81,10.81,0,0,1-8-1.11,34.43,34.43,0,0,1-11-10.34,13.13,13.13,0,0,1-2.18-9Z"/><path class="cls-2" d="M125.54,331c7.66.34,13,4.71,16.56,11.42,2.61,5,2.46,10.07-.48,15.2A27.61,27.61,0,0,1,131.81,368a15.44,15.44,0,0,1-14.57.94,45,45,0,0,1-6.69-3.61,10.83,10.83,0,0,1-5.16-10.63c.25-3,.57-6,1.1-9a14.77,14.77,0,0,1,6.13-9.64c3.82-2.78,7.76-4.9,12.92-5.16Z"/><path class="cls-26" d="M170.05,450.62c.82-2.35.68-5,2.07-7.17,1.87,1.39.87,3.51,1.33,5.24,1,3.8,1.81,7.66,5.36,10.07,1.64,1.1,1.81,2.43,1,4.11-1,2-2,4.13-3,6.18a7.49,7.49,0,0,1-5.18,4.16c-5.19,1.73-5.7-2.49-5.5-5.33.39-5.89.31-12,3.94-17.26Z"/><path class="cls-27" d="M164.75,470.21c-.4,1,0,2.35-1.11,3.09a4,4,0,0,1-3.29.31,3,3,0,0,1-2.66-3.37c.05-3.43.05-6.86.11-10.29,0-1.7.48-3.09,2.33-3.74a9.78,9.78,0,0,0,4.47-3,3.36,3.36,0,0,0,1.34-1.19L166,452c1.85-.05,2.41,1.19,2.13,2.61-1.13,5.22-1,10.69-3.37,15.65Z"/><path class="cls-28" d="M164.75,470.21c-.54-5.53,1.1-10.75,2.09-16,.17-1,.17-1.75-.85-2.21,1.45-2.21,1.45-2.21,4.06-1.33.25,4.79-1.36,9.36-1.87,14.06-.17,1.56-.51,3.12-.66,4.71-.31,3.48-.28,3.48,4.09,3.82-4.2,1.87-4.2,1.87-6-1.95a5,5,0,0,0-.85-1.05Z"/><path class="cls-28" d="M165.94,452c0,.88-.57,1.13-1.34,1.19a1.36,1.36,0,0,1,1.34-1.19Z"/><path class="cls-29" d="M157.91,219c1,10.18.49,22.68.54,35.18,0,5,0,5.27-5.1,6.63a107.74,107.74,0,0,0-16.84,6.24,63.94,63.94,0,0,0-11.62,6.15,10,10,0,0,1-2.41,1.33,3.09,3.09,0,0,1-3.91-1.76c-4-12.07-8.31-24-9.69-36.79-.74-6.66-1.88-13.3-2.9-19.93-1.61-10.29-1.92-20.69-2.32-31.09-.09-2.78-.11-5.56-.4-8.34a75.54,75.54,0,0,1,1.48-23.41c1.16-5.64,2-11.4,3.2-17a125.29,125.29,0,0,1,12-31.69,23.11,23.11,0,0,1,3.69-5,7.79,7.79,0,0,1,11.68.37,47,47,0,0,1,6.37,9.86,132,132,0,0,1,10.46,34.39,365.84,365.84,0,0,1,4.45,42.8c.46,9.92.83,19.87,1.36,32.09Z"/><path class="cls-29" d="M256.81,258.54c-3.48-1.64-7.22-1-10.85-1.19-8.42-.39-7.2.43-7.74-7.45-.25-3.6.08-7.29-1.16-10.8.37-5.56.85-11.08,1.05-16.61q.76-20.16,3.06-40.14c2.58-22.42,7.65-44.16,16.5-65a81.46,81.46,0,0,1,14.65-22.59,17.94,17.94,0,0,1,9.44-5.47c5.27-1.25,9.61.54,12.47,5.21a40.88,40.88,0,0,1,2.89,6.3,123.38,123.38,0,0,1,8.79,39.09c.82,16,.62,31.83-1.76,47.76a416.39,416.39,0,0,1-11.34,50.74c-2.26,8.05-6.15,15.42-10.14,22.73a2.75,2.75,0,0,1-3.4,1.48c-7.49-1.42-14.83-3.57-22.46-4.06Z"/></g></g></svg>