<svg xmlns="http://www.w3.org/2000/svg" viewBox="0 0 642.61 587.22"><defs><style>.cls-1{fill:#543828;}.cls-1,.cls-10,.cls-11,.cls-12,.cls-13,.cls-14,.cls-15,.cls-16,.cls-17,.cls-18,.cls-19,.cls-2,.cls-20,.cls-21,.cls-22,.cls-23,.cls-24,.cls-3,.cls-4,.cls-5,.cls-6,.cls-7,.cls-8,.cls-9{fill-rule:evenodd;}.cls-2{fill:#b3a59c;}.cls-3{fill:#8e796e;}.cls-4{fill:#ffce69;}.cls-5{fill:#7e5e49;}.cls-6{fill:#735440;}.cls-7{fill:#82634c;}.cls-8{fill:#7a5843;}.cls-9{fill:#7e5d47;}.cls-10{fill:#af8e6f;}.cls-11{fill:#563a2a;}.cls-12{fill:#573a2a;}.cls-13{fill:#fff;}.cls-14,.cls-21{fill:#f1bb46;}.cls-15{fill:#927158;}.cls-16{fill:#795944;}.cls-17{fill:#a48063;}.cls-18{fill:#aa8a6c;}.cls-19{fill:#e8be85;}.cls-20{fill:#ab8667;}.cls-21{stroke:#f1bb46;stroke-miterlimit:10;stroke-width:0.2px;}.cls-22{fill:#e8bd85;}.cls-23{fill:#f37c7e;}.cls-24{fill:#7c4c41;}</style></defs><title>Asset 4</title><g id="Layer_2" data-name="Layer 2"><g id="Layer_1-2" data-name="Layer 1"><path class="cls-1" d="M115.45,581.23a32.65,32.65,0,0,1-1.11-5.39c-.08-2.21-.34-4.28,1.65-6.37,1.56-1.65,1.84-4.62,2.32-7.09a86.13,86.13,0,0,0,1.45-13.81,163.49,163.49,0,0,0-1.7-29.08,75.41,75.41,0,0,0-14.32-34.24c-3.12-4.31-6.32-8.56-9.64-12.73a76.4,76.4,0,0,1-15.87-35.77c-3.15-18.94-6.12-37.93-8.22-57-.37-3.17,1-6.91-1.22-9.38-1.9-2.13-5.13-3-7.65-4.59a209.22,209.22,0,0,1-33.82-26.59,66,66,0,0,1-12.1-16c-6.58-12-12-24.46-14-38.21a111.09,111.09,0,0,1,3.91-50.11c5.87-18.6,14.23-36.15,23.64-53.18a56.66,56.66,0,0,1,9.1-12.22c1.65-1.67,2.07-3,1.45-5.47-3.8-14.77-7.57-29.57-12.1-44.16a95.69,95.69,0,0,1-3.89-23.22C22.47,80.8,23,65.15,26.64,49.71a77.18,77.18,0,0,1,9.89-24.33c5.62-8.81,15.65-14.85,26.62-11.79,1.53.46,3.2.4,4.79.8a91.51,91.51,0,0,1,23.22,8.87c9.46,5.38,18.62,11.19,26.9,18.39,6.8,5.93,13.77,11.68,20.07,18.15a44.66,44.66,0,0,1,9.15,13c1.67,3.77,1.67,3.8,5.16,2.55s7-2.44,10.38-3.91c11.65-5.13,23.92-7.06,36.48-7.43,8.1-.2,16.21-.34,24.29-1.05a59.36,59.36,0,0,1,14.51.8c10.49,1.64,21.09,2.8,31.61,4.42,5.47.82,10.91,2.07,16.3,3.37,2,.51,2.89-.22,3.8-1.81,2.86-5,5.81-10,8.79-15a105.38,105.38,0,0,1,32.54-33.7A222.65,222.65,0,0,1,354,8c6.21-3.15,11.91-2.75,17.83.45A59.18,59.18,0,0,1,396,32.7,107.52,107.52,0,0,1,405,55.26c.54,2,1,4,1.56,6a2,2,0,0,0,.71,1.05c.77.48,1.33,0,1.76-.6,3.2-4.22,6.52-8.42,9.55-12.78a42.32,42.32,0,0,1,8.36-9.24c7.74-6.27,15.45-12.59,23.3-18.65S467,11.41,476.36,8.55C487.61,5.09,499,2,510.77.69A110,110,0,0,1,548,2.88c14.8,3.43,28.63,9.07,40.74,18.48a119.05,119.05,0,0,1,16.55,15.82c6.38,7.34,12.36,15,18.09,22.9,8.44,11.68,13.29,24.86,16.07,38.83a173.49,173.49,0,0,1,2.86,42.86,127.74,127.74,0,0,1-11.22,45.59C618,216.81,599.07,242,574.94,263.27A93.09,93.09,0,0,1,556.78,276c-2.44,1.3-5,2.35-7.52,3.54s-5.44.94-7.51,3c.74,2.38,1.48,4.79,2.27,7.17.37,1.1.76,2.18,1.22,3.23a81.45,81.45,0,0,1,6.26,32.48,19.7,19.7,0,0,0,1.25,7.49,68.31,68.31,0,0,1,3.77,32.79c-.88,7.12-1.56,14.26-2.32,21.38a91.08,91.08,0,0,1-4.37,18.2c-3.51,10.77-7.31,21.46-11.28,32.06q-6.56,17.55-12.36,35.37a179.51,179.51,0,0,1-25.68,49.72q-11.06,15.18-22.25,30.22A69.07,69.07,0,0,1,455,572.07c-7.54,4-14.74,2.55-21.77-1.38a9.51,9.51,0,0,1-4.79-8c-.59-7.17.4-14,5.64-19.39a25.09,25.09,0,0,0,4.17-6.35,142.81,142.81,0,0,0,8.67-21.14c2.16-6.86.51-12.28-4.84-16.76-1.79-1.5-3.52-3-5.42-4.36-4.14-2.95-8.39-5.76-12.78-8.79-1.93,0-3.57,1.45-5.5,2.13-11.91,4.33-23.61,9.35-36.29,11.28a4.36,4.36,0,0,0-3.82,3.46c-2.36,7.57-6,14.48-9.87,21.37A212,212,0,0,1,350.07,552,45.89,45.89,0,0,1,335,564a26.46,26.46,0,0,1-12.78,2.75,12,12,0,0,1-12-10.44c-.77-4.62-.06-9.24.56-13.83.29-1.81.71-3.63,1.05-5.44.29-1.28,1.65-3.09-1.36-2.72-6.94,10.34-14.12,20.58-20.75,31.15a39.41,39.41,0,0,1-17.66,15c-1.44.68-3.15,1-4.39,2-5.76,4.31-12.25,3.48-18.63,2.8a37.1,37.1,0,0,1-11.39-2.94c-4.39-2-6.75-5.19-6.89-10.24A58.54,58.54,0,0,1,233.26,555c1.84-6.92,3.85-13.81,5.61-20.75,1.64-6.49,3.06-13.07,3.15-19.81,0-2.56-.54-3.21-3.12-3.6a25.4,25.4,0,0,0-4.14-.34,64.23,64.23,0,0,1-23-4.45,37.68,37.68,0,0,0-3.94-1.28,2,2,0,0,0-2.41,1.81,3.44,3.44,0,0,0-.11,1.36c1.62,3.86-.09,7.15-1.67,10.55-3,6.26-5.67,12.64-8.51,19-5.47,12.31-13,23.42-19.61,35.1a19,19,0,0,1-7.94,7.48,45.05,45.05,0,0,1-17.72,5.61c-5.52.43-11.05,1-16.58,1.45-5.22.45-10.12-.29-14.34-3.74a5.07,5.07,0,0,0-1.93-.57c-1.33.31-2-.06-1.53-1.56Z"/><path class="cls-2" d="M310.5,534.29a12,12,0,0,1,.88-1.76,1.49,1.49,0,0,1,1-.59c.25,0,.68.48.74.76a5.18,5.18,0,0,1-1.28,4.31c-.51-.88-.14-2.21-1.36-2.72Z"/><path class="cls-3" d="M115.45,581.23c.51.51,1,1,1.53,1.56-.54,1-1.11,2.72-2.07,2.27-1.56-.71-.62-2.24,0-3.38.11-.2.34-.31.51-.45Z"/><path class="cls-4" d="M397.92,335.24a115.56,115.56,0,0,0,16.5-19.64c6.09-9.53,9.24-20.1,11.39-31.1,3.18-16.39,2.07-32.71-.62-49-1.5-9.13-3.06-18.26-4.59-27.38-.31-1.79.45-2.75,2.15-2.67,7.43.43,14.74,1.33,21.77,4,5.19,2,10.38,3.94,15.59,5.84a83.93,83.93,0,0,1,16.13,8c2.16,1.36,4.34,2.67,6.55,3.91a78.91,78.91,0,0,1,26.87,24.72c5.11,7.43,9.73,15.22,14.52,22.88.85,1.36,1.44,2.92,2.38,4.22,5.89,8.22,9.1,17.63,12.22,27.1.59,1.79,1.44,3.4.16,5.27-.68,1-.16,2.21.12,3.35a123.31,123.31,0,0,1,2.38,12.92,72.66,72.66,0,0,0,3,13.55c2.69,7.91,2.75,15.93,2,24-.54,6.44-1.56,12.87-2.19,19.31a59.87,59.87,0,0,1-2.8,12.86c-3.52,10.78-7,21.58-11.17,32.12-5.24,13.13-9.67,26.53-14.06,39.94a171.26,171.26,0,0,1-25.85,48.9q-9.52,12.84-19,25.71a65.76,65.76,0,0,1-10.32,11.22,33.46,33.46,0,0,1-10.18,5.82c-4,1.5-7.77.45-11.54-.74-.93-.31-1-1.42-1-2.38,0-1.82,1.39-2.81,2.27-4.14a116.46,116.46,0,0,0,16.41-36.57,27.72,27.72,0,0,0,.85-8.25c-.25-6.43-2.07-12.24-6.83-16.95a80.34,80.34,0,0,0-13.55-10.8c-1.19-.76-2-1.42-1.56-3.29.34-1.36-.34-3.11-1-4.53a4.48,4.48,0,0,0-5.64-2.41c-2.5.93-3.83,0-5.36-1.73a28.23,28.23,0,0,1-7.74-19.56c0-13.89.09-27.81,1.36-41.64a113.46,113.46,0,0,1,6.32-27c.77-2.18,1.42-4.42,2.1-6.63.34-2,.51-4,1.16-4.82a5.45,5.45,0,0,1-2.77,3.12,114.64,114.64,0,0,0-11.26,27.55,191.5,191.5,0,0,0-7,42.41,85.94,85.94,0,0,0,.14,10.4c.51,7.26,2.41,14.12,6.72,20.15.51.74,1,1.56,1.42,2.36a3,3,0,0,1,.14.88,14.86,14.86,0,0,1-2.3,1.22c-10.15,3.11-19.95,7.28-30.53,9.07S360.39,490.63,350,494c-6.86,2.18-14.12,2.41-21.15,3.74-1.3.26-1.9-.74-1.5-2.29,1.22-4.68,2.49-9.39,3.65-14.09a54.29,54.29,0,0,0,1.7-13.72c1.11-2.92.43-5.93.43-8.88a6.4,6.4,0,0,1,.51-1.89c.25-.66.28-.83,0-.49a6.49,6.49,0,0,1-2.24,2.75A142.94,142.94,0,0,0,318,491c-1.7,6-3.89,11.85-6,17.72a103.64,103.64,0,0,1-12.5,23.13c-6.3,9.16-12.9,18.09-18.49,27.72a20.71,20.71,0,0,1-12.87,9.84c-3.09.88-6.12,2.07-9.18,3.09-3.66,1.22-7.34.62-11-.14-6.49-1.42-8.56-.2-6.07-9.36,2.64-9.83,5-19.7,7.57-29.56a78.48,78.48,0,0,0,2.67-19.87c0-1.62-.14-3.2,1-4.62,2.49-3.09,1.5-5.95-.91-8.51a8.62,8.62,0,0,1-2.18-4.22c-1.39-6-4.74-11-8.31-15.87-3.17-4.28-6.2-8.62-9.32-13-3.55-.56-1.76,1.59-1.48,2.95,1.22,5.92,4.48,11.05,6.44,16.7,1.19,3.43,2.75,6.74,2.38,10.77a42.41,42.41,0,0,1-10.4-.23c-6.41-.65-12.82-1.56-19.22-2-15.25-1.16-30.08-4.05-44.25-9.95a5.26,5.26,0,0,0-1.36-.25,15.14,15.14,0,0,0-1.68-.94,2.11,2.11,0,0,0-1.27-.37c-1.42-1.1-3.43-.45-4.79-1.59,0,0-.46-.28-.46-.28a5,5,0,0,0,.34.51,6.08,6.08,0,0,1,2.22,2.5,1.23,1.23,0,0,0,1,.45c.54.31,1.07.65,1.61,1,8.19,4.87,17,8.33,25.94,11.42,2.78,1,5.9,1.28,8.36,3.43-.85,4-2,8-2.15,12.16a14.91,14.91,0,0,1-1.65,5.22c-5.3,11.82-10.43,23.72-17.57,34.58a62.34,62.34,0,0,0-5.5,9.64c-1.93,4.51-5.33,6.8-9.75,8a51.85,51.85,0,0,1-8.79,1.9c-7.82.71-15.62,1.93-23.53,1.73-1.41.26-2-.31-1.73-1.76,2.89-4.42,3.72-9.58,4-14.57,1-15.5,1.16-31-2.18-46.31a90.61,90.61,0,0,0-15.71-35.24c-3.85-5.21-7.82-10.35-11.68-15.56-5.58-7.57-9.66-15.73-11-25.2-1.13-8.25-2.58-16.47-4-24.66-1.93-10.46-4.39-20.81-7.26-31.07-.59-2.18-1.13-4.39-1.81-7.09,3.51,0,6.18,1.31,8.87,2.3,3.15,1.13,6.35,1.05,9.55,1,2.95-.06,5.84-1.27,8.65-.34a2.15,2.15,0,0,0-.68-2.83C96.51,368.15,90.62,364,83.16,362c-12.81-3.29-23.55-10.58-33.79-18.66-3.28-2.55-6.37-5.35-9.58-8C24.63,322.54,16.29,305.62,12,286.8a86.26,86.26,0,0,1,1.62-44c5.47-18.74,13.92-36.25,23-53.49,2-3.88,4.28-7.68,6.26-11.59a12.78,12.78,0,0,1,5.39-6c2.27-1.25,3.83-3.26,2.67-6.32C45.8,152.15,44,138,39.37,124.68a119.25,119.25,0,0,1-4.48-17.46c-2.58-13.78-2-27.69-.82-41.56a78.38,78.38,0,0,1,7.79-27.95,76.39,76.39,0,0,1,4-7.25A9.41,9.41,0,0,1,53.37,26a39.8,39.8,0,0,1,11.76.59,67.73,67.73,0,0,1,17.13,5.56,152.17,152.17,0,0,1,31.29,20.46,273.29,273.29,0,0,1,23.7,22.45,15.51,15.51,0,0,1,2.32,2.58c2,4.14,5.33,4.88,9.64,4.71a160.11,160.11,0,0,0,24.15-2.5,197.84,197.84,0,0,1,40-3.6,35.11,35.11,0,0,0,6.24-.22c7.94-1.42,15.68-.2,23.44,1.27a104.78,104.78,0,0,0,13,1.79,154.51,154.51,0,0,1,21.94,3.43c1.82.37,3.63.76,5.45,1.1,4.79.86,7.54-.56,8.78-5.21a10.59,10.59,0,0,1,2.1-4.2c8.39-10.2,16.78-20.41,25.74-30.1,9.92-10.77,22.36-17.83,35.4-24,5-2.41,9.67-2,14.46.91s9.18,6.29,12.42,10.94C395,50,400.5,69.69,397.27,91.71a186.05,186.05,0,0,1-9.5,36.2,36.76,36.76,0,0,0-2.52,12.14,47.5,47.5,0,0,1-.65,6.91,7.06,7.06,0,0,0,.65,3.8c3,8.53,8.22,15.82,12.56,23.61,7.31,13.1,11.62,27.24,14,42,1.84,11.16,3.63,22.39,5,33.61,2.12,17.3.54,34.22-6.35,50.4q-7.11,16.59-14.2,33.17c-.26,2.41-1.87,4.14-2.95,6,.06-.06,0,.25,0,.25s.17-.42.2-.48c1.19-1.73,2.35-3.43,4.42-4.08Z"/><path class="cls-4" d="M505.21,119.52c9.41-1.36,17.24,1.84,24.66,6.38a16.73,16.73,0,0,1,2.22,1.67c9.66,8.42,6.66,18.37-2.41,24.1-3.07,1.93-6.84,2.78-10.32,4a15,15,0,0,0-3.83,1.53c-5.1,3.43-5.3,8.88-.17,12.22a43.73,43.73,0,0,1,9.13,7.43,16.36,16.36,0,0,1,4.45,10.66c.14,5.72-2.67,10.43-8,12.61a42.52,42.52,0,0,1-17.65,3.09c-3.18-.11-5.65-2-8.37-3.14-4.11-1.76-6.23-1.11-8.44,2.77-.46.82-.68,1.76-1.17,2.55-.34.57-.87,1.45-1.36,1.48-4,.22-7.85,2.44-12.07.34-9.78-4.82-20.13-8.14-30.42-11.68-6.43-2.21-13.24-2-19.81-3.09-1-.17-2.16.65-3.29.85a1.39,1.39,0,0,1-1.62-.88c-.28-.65-.48-1.3-.71-2a112.21,112.21,0,0,0-18-35.75,11.17,11.17,0,0,1-2.33-6.32,46.05,46.05,0,0,1,2.78-19.7c5.42-15.08,9.21-30.59,9.75-46.72a12,12,0,0,1,2.41-7.08A45.89,45.89,0,0,1,416,68.56a64,64,0,0,0,9.86-11.63,46.55,46.55,0,0,1,9.33-10.23c5-4.11,10.06-8.19,15.05-12.33a63.82,63.82,0,0,1,20-11c14.26-5,28.77-8.84,43.79-10.35a85.39,85.39,0,0,1,15.25-.19,113.13,113.13,0,0,1,36.94,8.84,82.71,82.71,0,0,1,27.13,19A239.82,239.82,0,0,1,617.1,70.51a81.41,81.41,0,0,1,13,34.1c2.12,14.46,3,29,1.5,43.6-1.19,11.14-4.51,21.74-8.87,32-12.9,30.42-32.49,56-57.57,77.25A150.11,150.11,0,0,1,540,274.78c-2,1.13-2.63,1-3.91-1.11-4.34-7.11-8.59-14.26-12.9-21.4a105.91,105.91,0,0,0-31.09-33.19c-.88-.63-2.24-1.11-1.59-2.61,1-2.33,3-3.57,4.65-2.89,10.23,4.42,19.93,2.09,29.31-2.56a25.45,25.45,0,0,0,10.86-9.46,24,24,0,0,0,3.48-17.89c-1.22-6-3.23-11.59-7.51-16.13a24.18,24.18,0,0,1-1.62-2.15c1.56-2.13,3.83-2.89,5.7-4.14,13.92-9.33,11.71-25.4,4.74-33.37-7.46-8.5-17.21-12.24-28.38-12.47-2.61,0-5,.57-6.55,4.11Z"/><path class="cls-4" d="M367,502.71a36.13,36.13,0,0,1-1.41,4c-6.27,12.61-13.16,24.89-21.83,36.05-1,1.28-2.1,2.47-3.12,3.72-4.73,6.07-11.42,7.37-18.51,7.65a2,2,0,0,1-2.07-2.29,35.07,35.07,0,0,1,.54-6.18,116.16,116.16,0,0,0,3-36.4c-.19-2.52.83-3.17,3.46-2.58a9.36,9.36,0,0,1,1.33.43,38.1,38.1,0,0,0,23.11-.77c4.76-1.59,9.55-3.2,15.47-3.6Z"/><path class="cls-5" d="M424.43,372.8c.56-2.67,2-4.93,3.45-7.2.23-.34.85-.74,1.11-.65a1.17,1.17,0,0,1,.57,1.61c-1.22,2.64-1.48,5.7-3.52,7.94l-1.61-1.7Z"/><path class="cls-6" d="M331.39,459.11c.51-1.36,1.05-2.69,1.56-4.05,2.64,0,1.45,1.62,1.22,2.83-.45,3.26-.06,6.61-1.45,9.73-.08-1.82-.19-3.63-.22-5.42a3.76,3.76,0,0,0-1.11-3.09Z"/><path class="cls-7" d="M397.92,335.24c-.88,2.24-2.75,3.71-4.17,5.53a1.39,1.39,0,0,1-2,0c1.36-2.53,2.38-5.28,4.54-7.29.54.57,1.1,1.13,1.64,1.73Z"/><path class="cls-8" d="M156.1,481.11c2,.68,4,1.19,5.47,2.89-1,.2-2,.14-2.69,1.14-1.73-.32-3-1.51-4.4-2.44-.22-1.34.09-2.07,1.62-1.59Z"/><path class="cls-9" d="M230.93,470.31a4.08,4.08,0,0,1-1.41-2.95c-.09-1-1.11-2.38.62-2.72,1.3-.25,1.76,1.05,2.18,2.07a2.32,2.32,0,0,1,.09.65c-1.22.63-1.19,1.87-1.48,2.95Z"/><path class="cls-10" d="M125.14,572.92c.57.6,1.17,1.19,1.73,1.76-.82.74-1.84,1.45-2.66.26-.48-.74.05-1.59.93-2Z"/><path class="cls-8" d="M162.84,484.37a1.44,1.44,0,0,1,1.68.94,1.51,1.51,0,0,1-1.68-.94Z"/><path class="cls-8" d="M161.51,486.61a1.48,1.48,0,0,1-1.61-1,1.53,1.53,0,0,1,1.61,1Z"/><path class="cls-1" d="M288.76,239.48c-11-.62-21.94-2-32.12-7.14-16-8.05-24.4-21.51-27.12-38.69-2.1-13.47,1.55-26.11,7-38.27a24.11,24.11,0,0,1,4.74-6.8c7.88-7.85,16.24-15.08,26.22-20.3a36.6,36.6,0,0,1,24.86-3.6c4.08.8,8.19,1.5,12.24,2.47,11.77,2.86,21.63,9.12,30.36,17.37a27.49,27.49,0,0,1,5.47,7.12,71.2,71.2,0,0,1,7.06,21c.88,4.56.12,9.18-.76,13.77a77.24,77.24,0,0,1-8.2,22.74c-8.19,15.08-21.45,23.75-37.3,29.11-4.05,1.39-8.22,1.1-12.5,1.27Z"/><path class="cls-1" d="M177.36,179a44.29,44.29,0,0,1-3.49,19.67c-3.09,7.74-6.43,15.37-11.88,21.83-7.37,8.79-16.46,15.08-27.86,16.95-11.17,1.84-22.11.63-32.4-4.65a98.57,98.57,0,0,1-16.27-10.57c-8.7-6.92-12.5-16.36-14.06-27-.51-3.43-.94-6.88-1.36-10.31a41.17,41.17,0,0,1,2.18-18.46c2.3-6.55,4.93-13,7.37-19.44a24.75,24.75,0,0,1,8.7-11.45c3.55-2.58,7-5.33,10.78-7.57,3.11-1.85,6.43-3.89,10.43-2.16,1.73.74,3.11-.54,4.53-1.16a38.7,38.7,0,0,1,17.55-3.35,39.77,39.77,0,0,1,12.87,2.56c4.31,1.64,8.5,3.6,12.67,5.55a18.32,18.32,0,0,1,7.62,6.92,75.88,75.88,0,0,1,11.31,28.83c.74,4.59,1,9.18,1.31,13.8Z"/><path class="cls-1" d="M151.87,272.56c3,.23,6,.52,9,.69a57.1,57.1,0,0,0,6.92.25c7.11-.45,13-3.32,16.83-9.5a59.71,59.71,0,0,0,7.29-17.85,34.55,34.55,0,0,0,.39-6.21,2.66,2.66,0,0,0-2.26-3c-1.14-.25-2.3-.34-3.43-.56a18,18,0,0,1-7.52-3.4c-6.49-5.31-5.81-7.94-2.21-14.89a11.91,11.91,0,0,1,1.79-2.12c9.33-10.15,22.65-10.26,32.4-.43,3,3,4.08,6.64,4.65,10.55.37,2.58-1,4.53-2.84,6a18.63,18.63,0,0,1-9.32,4.33c-1.62.2-3.23.31-4.82.54a2.65,2.65,0,0,0-2.5,2.78c0,3.94,0,7.79,1.22,11.68a59,59,0,0,0,7.74,16.21c5.25,7.54,13,12.42,25.51,7.88a81.39,81.39,0,0,0,9.42-4.39c3.71-1.9,7.31-4,11-5.93a5,5,0,0,1,1.53-.28c.91,3.94-.62,7.2-2.8,10.26-4.48,6.3-10.8,10.12-17.92,12.53-2.69.91-3.48,2.24-4,4.76a75.74,75.74,0,0,0-1.31,16.59,208.15,208.15,0,0,1-1.13,21.46c-1.79,19.64-17.69,31.29-30.76,33.22-15.36,2.29-27.32-4.4-34-19.36A57.6,57.6,0,0,1,156,320.73a34.23,34.23,0,0,1,.87-8.25c1.88-7.4,3.58-14.86,5.33-22.28a51.83,51.83,0,0,1,3.77-10.07c-7-.62-13.6-.85-18.42-6,.4-3.48,2.58-1.95,4.36-1.56Z"/><path class="cls-11" d="M361.24,124.65c.11-1.53.82-3.12-1.05-4.28-5.3-3.29-10.34-7-15.82-10-11.5-6.32-23.27-12.19-35.88-16.15-2.33-.71-2.89-2.13-1.76-4.2A21.52,21.52,0,0,1,309,86.58a96.42,96.42,0,0,1,27.92-24.52A29.12,29.12,0,0,1,349.31,58a17.06,17.06,0,0,1,13.89,4.9c4.67,4.62,8.3,9.9,10,16.33,3,11.34,4,22.74,1,34.22a20.52,20.52,0,0,1-1.82,5.21c-2.41,4.23-5.55,7.34-11.08,6Z"/><path class="cls-12" d="M61.25,130.21A6.88,6.88,0,0,0,61,125.5c-2.89-9.12-3.74-18.59-4.9-28a56.66,56.66,0,0,1,1.28-20.7C59,70.45,61.87,64.7,66.81,60.14,70.21,57,74,56,78.26,58s8.42,3.88,12.44,6.09A114.43,114.43,0,0,1,112.22,79.3a54.66,54.66,0,0,1,8.53,10c1.59,2.36,1,4.57-1.59,5.76-11.87,5.44-21.88,13.77-32.68,20.89a128.58,128.58,0,0,0-19.62,16.53c-.48.48-.93,1-1.39,1.55a2.77,2.77,0,0,1-3.06,1.05c-1.61-.59-1.5-2.12-1.44-3.51,0-.45.2-.91.28-1.39Z"/><path class="cls-13" d="M154.85,96.08c8.65.88,16.67,3.29,23,9.81a22.94,22.94,0,0,1,4.88,8.22A7.92,7.92,0,0,1,181,123c-4.34,4.48-9.13,7.25-16,5.61-5.53-1.33-10.46-3.09-14.88-6.77a23.17,23.17,0,0,1-7.77-13.53c-1.27-6,2.78-11.39,9-12.27a29,29,0,0,1,3.49,0Z"/><path class="cls-13" d="M245.93,113.46c.68-9,6.52-15.37,16-17.21,2.24-.45,4.51-.77,6.78-1.28,4.42-1,8.7,0,12.73,1.9,5.75,2.75,7.37,10.21,2.66,14.4-6.86,6.13-14.23,11.74-23.3,14.4-6.46,1.9-15.87-2.86-14.85-12.21Z"/><path class="cls-14" d="M119.93,418.35c-1-5.44,1.39-10.54,1.39-15.87a1.27,1.27,0,0,1,.17-.66c.76-1.64.88-4.19,3-4.33,2.52-.14,2,2.49,2.52,4.11.93,2.69,1,5.41,1.22,8.19.56,5.95,1.44,11.88,2.24,17.8.59,4.57,1.24,9.13,1.84,13.69.17,1.11-.06,2.33.85,3.26.48.46,1.16,1.08.54,1.68a4,4,0,0,1-2.41,1.21,7.89,7.89,0,0,1-5.93-3.17c-1.87-2.41-3.74-5.1-3.88-8.05-.25-6-2.52-11.82-1.5-17.86Z"/><path class="cls-14" d="M480.52,283.82c-2.38-.11-4.22.08-6-.71-8.59-4-17-8.22-24-14.91a2.31,2.31,0,0,1-.79-2.44,2,2,0,0,1,2.15-1.39,11.07,11.07,0,0,1,3.4.32c6,1.72,11.94,3.48,17.83,5.41a26.45,26.45,0,0,1,12.64,9.27,2.5,2.5,0,0,1-1.73,4.14,28.69,28.69,0,0,1-3.57.31Z"/><path class="cls-14" d="M477,445.71c-.57-4.28,1.1-8.28,1.81-12.34,1-5.89,2.72-11.65,4.2-17.46a5.65,5.65,0,0,1,1.07-1.75,1.76,1.76,0,0,1,2.44,0,4.71,4.71,0,0,1,1.05,1.76c.57,4.28,2.07,8.42,1.5,12.9-.59,4.79-.93,9.64-2.29,14.28-1.16,4-2.87,7.83-6.44,10.46a1.78,1.78,0,0,1-2.72-1c-.31-2.29-.42-4.59-.62-6.88Z"/><path class="cls-14" d="M462.1,440.52c-.71-8.39.68-16.53,2.58-24.61a14.1,14.1,0,0,1,.9-2.58,2.38,2.38,0,0,1,3.58-.53,5.94,5.94,0,0,1,2.41,4.05c.87,11.14.79,22.11-5.33,32.09a8.14,8.14,0,0,1-2.58,3.17c-.17.12-.46.29-.6.2-.37-.17-.93-.48-.93-.74-.06-3.68,0-7.37,0-11.05Z"/><path class="cls-14" d="M311.81,406.7a11.32,11.32,0,0,1-1.37,6c-1.07,1.81-3.34,2.21-4.53.48-2.47-3.57-4.68-7.34-5.3-11.79-.85-5.9-1.76-11.76-2.55-17.63a14.14,14.14,0,0,1,.08-4.11,2.51,2.51,0,0,1,2.3-2.21,2.29,2.29,0,0,1,2.27,1.27c4.73,8.76,7.31,18.26,9.1,28Z"/><path class="cls-14" d="M491.49,272.08c-5.21-1.41-8.84-3.51-13-3.85a3.36,3.36,0,0,1-1.27-.51c-6.78-4-13.27-8.34-18.4-14.4a4.18,4.18,0,0,1-.79-1.87,1.86,1.86,0,0,1,1.27-2.19,7.58,7.58,0,0,1,5.39.46q3.48,1.49,7.06,2.83c7,2.7,11.36,8.48,16.1,13.78,1.22,1.33,2,3.06,3.65,5.75Z"/><path class="cls-14" d="M59.55,323.33c-4.59-1-6.1-4-6.38-7.25a60,60,0,0,1,3.26-26.51,11.27,11.27,0,0,1,1-1.81,1.84,1.84,0,0,1,2.92.17,4.53,4.53,0,0,1,.66,1.19c1.53,7.94,2.4,16,1.55,24-.34,3.34-1.9,6.57-3,10.17Z"/><path class="cls-14" d="M43.42,285c.28,9.18-2.78,17.21-8.14,24.46-1.1,1.53-2,1.36-2.94-.37-2.16-3.65-2-7.68-1.22-11.45,1.1-4.93,2.21-9.89,4.73-14.4,1-1.78,1.48-3.88,2.35-5.75.54-1.14.8-3,2.61-2.64,1.51.31,2,2,2.16,3.26a68.7,68.7,0,0,1,.45,6.89Z"/><path class="cls-14" d="M449.2,279.91c.71.2,1.39.31,2,.56,5,1.82,10,3.6,14.94,5.53,3.83,1.48,6.26,4.68,8.79,7.68a3.77,3.77,0,0,1,.14,4.54c-1.33,1.39-2.95,2.47-4.93,1.9a16,16,0,0,1-5-2.27,162.21,162.21,0,0,1-15.93-12.16,13.36,13.36,0,0,1-1.84-2.07,2,2,0,0,1,.11-2.55,8,8,0,0,1,1.7-1.16Z"/><path class="cls-14" d="M149,522.07c-.79-4.45,1.05-9.3,1.67-14.29.18-1.47,1.31-2.89,2.07-4.28a1.51,1.51,0,0,1,2.33.15,23.92,23.92,0,0,1,1.87,5.13c.74,4.48,1.22,9,1.76,13.57.65,5.47-1.56,10.35-3.26,15.31-.48,1.45-2.27,1.53-3.29.23A16.1,16.1,0,0,1,149,529c-.17-2,0-4.14,0-6.89Z"/><path class="cls-14" d="M174,446.5c-.68-.14-1.58-.06-1.95-.48-2.81-3-6.07-5.9-7.2-9.92-2.36-8.28-2.33-16.79-1.7-25.32,0-.45.82-1,1.39-1.25a1.4,1.4,0,0,1,1.19.52,17.29,17.29,0,0,1,2.38,4.13c2,6.58,4.16,13.16,5.52,19.88.83,4,.32,8.27.4,12.41Z"/><path class="cls-14" d="M366.06,301.79a11.72,11.72,0,0,1-2.58,8.48,2.06,2.06,0,0,1-3.06.39,9.78,9.78,0,0,1-4.11-7.71A65.09,65.09,0,0,0,355,290.59c-.34-1.5.12-3.2.32-4.79s.56-3.17.85-4.76c.22-1.27-.4-3.12,1.5-3.37,1.25-.17,1.7,1.33,2.24,2.32,3.74,6.78,5,14.29,6.15,21.8Z"/><path class="cls-14" d="M278.3,502c.31,5.28-1.16,9.92-2.69,14.52-1.17,3.43-4.06,6.35-5.33,5.52-2.38-1.47-3-4-3-6.63a47.19,47.19,0,0,1,5.05-22,7.12,7.12,0,0,1,1.22-1.65,2,2,0,0,1,3,.48A18.26,18.26,0,0,1,278.3,502Z"/><path class="cls-14" d="M143.46,422.21c0-3.21,0-6.44,0-9.64a9.4,9.4,0,0,1,1.21-4.62,1.33,1.33,0,0,1,2.24-.09c2.24,2.84,2.19,6.47,3.21,9.73.93,3,.93,6.37,1.95,9.38,1.48,4.28,1,8.62,1,12.95,0,1.68-1.28,2.24-2.89,1.56a10.56,10.56,0,0,1-6.69-9.61c-.2-3.2,0-6.43,0-9.66Z"/><path class="cls-14" d="M272.66,401a38.09,38.09,0,0,1,.34-4.14,2.24,2.24,0,0,1,1.3-1.38c.57-.17,1.62,0,1.87.36,4.31,6.3,8.39,12.73,10.27,20.24a10.35,10.35,0,0,1-.29,6.15c-.48,1.28-2.44,2-3.46,1.17-3.34-2.81-6.83-5.53-7.82-10.21-.85-4.05-2.55-7.93-2.21-12.19Z"/><path class="cls-14" d="M340,316a7.72,7.72,0,0,1-3.32,5.93,2.21,2.21,0,0,1-2.57,0,5.7,5.7,0,0,1-2.56-3.15,58.57,58.57,0,0,1-1.67-8.76c-.28-4.11-.14-8.27-.08-12.41a13.47,13.47,0,0,1,.54-3.38,1.71,1.71,0,0,1,2.77-.71,5.91,5.91,0,0,1,1.39,1.54A54.71,54.71,0,0,1,340,316Z"/><path class="cls-14" d="M493.14,455.2c.25-2.07.85-4.08.68-6-.8-9.1,1.08-17.88,2.95-26.67a6.55,6.55,0,0,1,.59-2,2.38,2.38,0,0,1,2.18-1.39,2.27,2.27,0,0,1,2.1,1.56,14.75,14.75,0,0,1,.62,4.06c.06,4.16-.05,8.33.06,12.5a13.17,13.17,0,0,1-2.72,8.39,40.11,40.11,0,0,0-5.16,8.9c-.11.31-.76.4-1.3.65Z"/><path class="cls-14" d="M285.87,523.83c-.74-.82-1.42-1.28-1.56-1.84a69,69,0,0,1-1.53-7.43,10.28,10.28,0,0,1,.25-4.76c1.51-4,.23-8.34,2-12.28.37-.88-.4-2.21-.57-3.34a1.21,1.21,0,0,1,1.14-1.42,2.62,2.62,0,0,1,1.84.48,8.12,8.12,0,0,1,1.56,2.27,31.93,31.93,0,0,1,3.26,15.39c-.26,5.13-3.35,8.87-6.35,12.93Z"/><path class="cls-14" d="M375.67,279.14c.48-1.73-1.42-5,1.5-5.75,2.27-.63,2.81,2.63,4.06,4.16,3.2,3.86,4.22,8.68,5.38,13.38.85,3.35-1,6.3-1.59,9.47-.14.94-1.44,1-2.15.12-4.59-5.48-7.43-11.63-7.2-18.94,0-.68,0-1.39,0-2.44Z"/><path class="cls-14" d="M174,521.62c.23,4.73.34,9.1-2.32,13-1,1.5-2,1.61-3.18.2a12.36,12.36,0,0,1-2.89-7.57c-.22-7,1.87-13.61,3.4-20.27a2,2,0,0,1,1.56-1.13,2.12,2.12,0,0,1,1.51,1.19A36.15,36.15,0,0,1,174,521.62Z"/><path class="cls-14" d="M326.35,407.21c-3.91-4.36-6.89-8.48-6.32-14.26.19-2.07,0-4.14,0-6.21a6.7,6.7,0,0,0-1.42-4.42c-1.22-1.5-.74-2.66.85-4a1.8,1.8,0,0,1,2.46-.08,10.39,10.39,0,0,1,3.32,5.1c1.11,3,1.82,6.21,3.12,9.1,2.35,5.24.62,9.7-2,14.74Z"/><path class="cls-14" d="M374.51,462.63a35.33,35.33,0,0,1-.91,4.25,2.26,2.26,0,0,1-3.43.94,13,13,0,0,1-5-6.41c-1.5-4.59-2.78-9.24-4.14-13.86a4.24,4.24,0,0,1-.14-1.33c0-1.25,2.1-2.58,3.09-1.88a24.28,24.28,0,0,1,10.55,18.29Z"/><path class="cls-14" d="M197.63,110.23a17.65,17.65,0,0,1-2.22,7.88,1.4,1.4,0,0,1-2.32.31,10.3,10.3,0,0,1-3.77-7.83c-.08-2.52,0-5-.06-7.59,0-3.21.29-6.41-1-9.53a2.9,2.9,0,0,1,.79-3.17,1.59,1.59,0,0,1,2.38-.26,3.1,3.1,0,0,1,.83,1.08,82.78,82.78,0,0,1,5.33,17.74,7.83,7.83,0,0,1,0,1.37Z"/><path class="cls-14" d="M360.36,475c0,.19-.14,1.1-.34,2a1.2,1.2,0,0,1-1.58.91,10.88,10.88,0,0,1-7.32-5.84c-2.15-4.57-3.83-9.36-5.64-14.06a2,2,0,0,1,.54-2.5,2,2,0,0,1,2.55-.17c4.17,3.83,9.16,7,11,12.87a21.12,21.12,0,0,1,.82,6.81Z"/><path class="cls-14" d="M383.32,468.13c-3-5.79-6.94-10.69-6.35-17.46a15.44,15.44,0,0,0-.82-4.74,10.9,10.9,0,0,1-.14-5.47,1.86,1.86,0,0,1,2.72-1.08,4.65,4.65,0,0,1,1,.91c5.13,7.88,7.23,16.36,4.85,25.65a9.76,9.76,0,0,1-1.31,2.19Z"/><path class="cls-14" d="M78.91,327.73c-1.81-2.89-3.74-4.85-4.39-7.17-.94-3.43-2.89-6.89-1.25-10.75a16,16,0,0,0,.59-4.08c.15-1.33-.14-2.89,1.54-3.51,1.33-.51,3,.31,3.85,2.18,2.58,5.3,4.39,10.71,1.9,16.64-.79,1.9-1.33,3.91-2.24,6.69Z"/><path class="cls-14" d="M209.16,118.73c-3.46-1.62-3.82-5.1-4.31-8.11-.93-6.06,1.17-11.76,3.52-17.29.17-.45,1.08-.74,1.67-.85.85-.17,1.22.62,1.42,1.25,2.18,6.94,2.61,13.94-.17,20.83-.54,1.39-.46,3.21-2.13,4.17Z"/><path class="cls-14" d="M301.37,522c-4.67-7.62-4.33-15.19-2.15-23,.25-.88.4-1.87,1.56-1.9a2.1,2.1,0,0,1,2.07,1.48c2.29,6.54,4.22,13.12.11,19.73a28.79,28.79,0,0,0-1.59,3.65Z"/><path class="cls-14" d="M226.94,119.15C224.5,111,224.47,104,229.2,97.41a1.92,1.92,0,0,1,3.35.37,15.42,15.42,0,0,1,.23,12.7,21.52,21.52,0,0,1-5.84,8.67Z"/><path class="cls-14" d="M181.67,528.87c-2.67-4.7-3.12-9.41.14-14.06a2.35,2.35,0,0,1,1.7-.93,1.66,1.66,0,0,1,1.56,1.87c.05,3.86.85,7.79-1.33,11.39-.49.8-.91,1.62-2.07,1.73Z"/><path class="cls-15" d="M334.17,457.89,333,455.06c.23-1.3.34-2.64,1.45-3.6,1.16,2.78,1.19,2.78-.23,6.43Z"/><path class="cls-16" d="M151.87,272.56c-1.47.49-3.31-.14-4.36,1.56a4.29,4.29,0,0,1-2.89-2.86,1.32,1.32,0,0,1,1.78-.2c1.79.63,3.86.31,5.47,1.5Z"/><path class="cls-17" d="M156.1,481.11a2.39,2.39,0,0,0-1.62,1.59c-.37-.2-.91-.31-1.13-.63a6.74,6.74,0,0,1-.74-1.73,5.86,5.86,0,0,1,1.84-.34,5.51,5.51,0,0,1,1.65,1.11Z"/><path class="cls-18" d="M391.74,340.8c.68,0,1.33,0,2,0a5.85,5.85,0,0,1-.62,1.19c-.68.79-1.42,2.18-2.55.93-.51-.59.25-1.67,1.16-2.09Z"/><path class="cls-19" d="M174,446.47a11.22,11.22,0,0,1,1.28.17c.2.06.51.28.48.37-.09.54-.51.76-1,.45a3.85,3.85,0,0,1-.82-1Z"/><path class="cls-20" d="M146.4,271.06c-.59.06-1.19.12-1.78.2-.85-.59-.77-1.1.22-1.3.77-.14,1.25.45,1.56,1.1Z"/><path class="cls-14" d="M563.07,215.16c-.23-7-1.48-13.49-1-20a47.5,47.5,0,0,1,.88-8.22,35,35,0,0,0,.51-8.28,16.51,16.51,0,0,1,2-7.91,1.54,1.54,0,0,1,1.81-.65c.4.12,1,.4,1.08.71.43,1.08.62,2.21,1,3.29a58.92,58.92,0,0,1,2.36,23.9c-.66,6.49-3.72,12.13-8.59,17.17Z"/><path class="cls-14" d="M418.93,135.85c1.72-7,3.23-14.57,7.34-21.06a21.28,21.28,0,0,1,9.1-8.22,2.18,2.18,0,0,1,3.4,2.38c-.51,4.48-2.5,8.39-4.76,12.1-2.87,4.71-6.13,9.16-8.48,14.2a11.78,11.78,0,0,1-2.07,2.73c-.76.85-1.56,1.73-2.86,1.7-.88-.06-1.82-2-1.67-3.83Z"/><path class="cls-14" d="M589.91,190.05a46.17,46.17,0,0,0,0,4.85c.57,5.69-2.32,10.2-5,14.82a3.39,3.39,0,0,1-1,1,2.24,2.24,0,0,1-2.58.22,2.63,2.63,0,0,1-1.08-1.59c-.23-4.62-.57-9.24.26-13.83A146.33,146.33,0,0,0,583,179.84c.17-2.43.32-5.15,2.67-6.69,1.3-.82,3.37,2.07,3.91,6.5a90.1,90.1,0,0,1,.09,10.4Z"/><path class="cls-14" d="M424.31,101.83a8.32,8.32,0,0,1-1,4.54,134.53,134.53,0,0,1-15,22.34,6.33,6.33,0,0,1-3,1.56,1,1,0,0,1-1.25-1.19c1.05-3,2.24-6,3.43-9,1.76-4.51,3.8-8.93,5.22-13.55,1-3.32,3.12-5.55,5.5-7.74a3.61,3.61,0,0,1,3.8-1c1.38.51,2.24,2,2.29,4.08Z"/><path class="cls-14" d="M564.09,79.78a5.16,5.16,0,0,1,1,0c6.92,2,13.44,4.68,18.23,10.4.28.37.51.77.76,1.14,1.42,2.29,1.5,3.71.43,5.07a5.33,5.33,0,0,1-6.1,2.1,8.57,8.57,0,0,1-3.06-1.5c-3.88-3.21-7.74-6.47-11.51-9.78a4.61,4.61,0,0,1-1.36-5.61,6.24,6.24,0,0,1,1.62-1.82Z"/><path class="cls-14" d="M455,118.25c-2.77,8.27-5.41,16.58-11,23.58a34.14,34.14,0,0,1-6.18,6.41,2.22,2.22,0,0,1-2.61.08,2.5,2.5,0,0,1-1-2.44,8.58,8.58,0,0,1,.37-2c.68-2,1.34-3.91,2.19-5.81,4.62-10.32,5.35-11.11,18.22-19.79Z"/><path class="cls-21" d="M591.19,81.17a6.08,6.08,0,0,1-.91,1.76c-1.84,1.56-4,2.41-6.35,1.59a14.53,14.53,0,0,1-3.68-1.88c-2.56-1.92-5-4-7.52-6a12.08,12.08,0,0,1-3.37-5.13,3,3,0,0,1,.54-3.2,2.31,2.31,0,0,1,2.52-.48c4.74,1.13,8.9,3.66,13.24,5.67,2.92,1.3,4.65,4.33,5.53,7.68Z"/><path class="cls-14" d="M595.67,207.68c.05-4.31-.14-8.42-.32-12.5A48.32,48.32,0,0,1,597,180.92c.59-2.21.9-4.48,1.47-6.69a2.39,2.39,0,0,1,1.39-1.3A1.69,1.69,0,0,1,602.1,174a15.11,15.11,0,0,1,1.45,4.57c.25,4.56.9,9.18-1,13.58-2.24,5.18-4.57,10.37-6.86,15.53Z"/><path class="cls-14" d="M589.29,65.15c-1.42-.28-1.87-.42-2.33-.45-7.68-.71-12-5.84-15.73-11.88a5,5,0,0,1-.74-3.26,2.2,2.2,0,0,1,2.27-2.09,6,6,0,0,1,2.67.42c5.55,2.52,10.34,5.9,12.36,12,.48,1.5.87,3,1.5,5.21Z"/><path class="cls-22" d="M455,118.27a2.29,2.29,0,0,1,.31-.56c.49.11.35.34-.34.54Z"/><path class="cls-13" d="M308.15,144a36.35,36.35,0,0,1,17.09,6.07c5.59,3.8,7.54,9.18,6.52,16.18-1,6.81-4.25,11.31-9.86,14.86-4.48,2.83-8.73,2.49-13.13.51-2.75-1.19-5.36-2.67-8-4-13.61-6.69-11.42-26-1.47-31.58a16.23,16.23,0,0,1,8.87-2Z"/><path class="cls-13" d="M123,159.52a67.1,67.1,0,0,1,1.36-8.16c2.35-8.48,12.22-14,20.72-11.8,4.77,1.22,9.07,3.15,12.59,6.81,8.84,9.18,9.27,24.43-3.52,32.82-9.8,6.46-21.26,3.69-27.29-6.49A26.37,26.37,0,0,1,123,159.52Z"/><path class="cls-23" d="M186.4,305.93c1.42-4.65,2.84-9.27,4.22-13.92a50.21,50.21,0,0,1,4.11-9.55,12.62,12.62,0,0,1,4-4.71,2.39,2.39,0,0,1,3.15.14c.34.32.7.63,1,.94a32.15,32.15,0,0,0,14.65,9c1.22.34,2.27,1,1.93,2.35-1.82,7-1.14,14.26-1.9,21.4-.43,4.08.42,8.28.65,12.42a35.43,35.43,0,0,1-1,11.73c-2.69,9.92-9,16.73-18.51,20.07-12.93,4.54-26.31.14-32.85-13.15-4.54-9.24-6.58-19.25-4.4-29.65,1.65-7.68,3.52-15.34,5.3-23,.31-1.36.77-2.66,1.17-4,1-3.71,2.69-6.72,7-7.71,2.16-.48,4.11-2,6.16-3.09,3.51-1.9,7.14-1.5,10.77-.45a1.49,1.49,0,0,1,1,2.13c-.6,1.24-1.51,2.35-2.16,3.57-3.17,5.72-5.47,11.73-5.87,18.34-1.7,5.41,1.51,10.85-.28,14.77a13.13,13.13,0,0,1,1.73-7.6Z"/><path class="cls-24" d="M186.4,305.93c.77,3.63-1.81,6.8-.57,10.91-2.63-1.47-2.15-3.23-2.12-4.67.11-4.48-.88-9.1,1.24-13.38.06,1.36.2,2.72.2,4.11a3.61,3.61,0,0,0,1.25,3Z"/><path class="cls-14" d="M310.67,91.37a2.89,2.89,0,0,1,1-2.55,122.18,122.18,0,0,1,22.85-19.1,40.37,40.37,0,0,1,12.1-5.08c6-1.36,11,.17,14.86,5,3.4,4.28,5.75,9,5.92,14.54a81.66,81.66,0,0,1-4,28.72c-.91,2.66-1.39,2.8-3.92,1-11.45-8-24-13.92-37-18.82-3.88-1.45-7.88-2.53-11.79-3.78Z"/><path class="cls-14" d="M65.05,125.5c-2.41-4.76-2.52-9.21-3-13.52-1-9.61-2.55-19.25-.93-29a35.54,35.54,0,0,1,7.28-17c2-2.46,4.28-3.4,7.32-2.21.62.26,1.36.34,2,.63C89.77,70.37,101.5,76.78,111,86.56a27.78,27.78,0,0,1,1.84,2.09,7.22,7.22,0,0,1,.65,1.48C97,101,80.21,111.59,65.05,125.5Z"/></g></g></svg>