<svg xmlns="http://www.w3.org/2000/svg" viewBox="0 0 202.62 205.5"><defs><style>.cls-1{fill:#fef8df;}.cls-2{fill:#f0e8b8;}.cls-3{fill:#c22026;}.cls-4{fill:#5e5f5f;}</style></defs><title>steak</title><g id="Layer_2" data-name="Layer 2"><g id="Layer_1-2" data-name="Layer 1"><path class="cls-1" d="M108.05,205.5c-26.1,0-54.2-7.3-71.6-18.5-19.6-12.7-38.3-38.5-36.3-63.3,1-11.9,7.2-28.4,31.4-38.9,24.9-10.9,33.2-28.5,35.8-41.4A52.59,52.59,0,0,1,107.65,2a83.11,83.11,0,0,1,18.2-2c21.9,0,40.7,9.7,54.3,28,24.6,33.2,27,87.1,16.8,120.9-11,36-43.3,56.6-88.9,56.6Z"/><path class="cls-2" d="M109.35,9.9a44.8,44.8,0,0,0-34.2,35.2c-2.9,14.5-12.1,34.8-40.4,47.1-47.5,20.7-22.7,69.4,6.1,88,35.3,22.8,128.4,32.8,148.4-33.6C206,91.4,185.55-6.7,109.35,9.9Z"/><path class="cls-3" d="M135.15,34.2S105.55,27.6,115,60s30.4,65.2-2,90.8,19.9,34.6,45.6,10.6C184.85,136.7,187.15,46.4,135.15,34.2Z"/><circle class="cls-1" cx="100.65" cy="115.6" r="17.1"/><circle class="cls-4" cx="100.65" cy="115.6" r="10.8"/><path class="cls-3" d="M63.15,99.5a7.58,7.58,0,0,1,10,8.8c-1.6,6.8-1.5,14.8,4,21.7,11.9,14.9,10,26.2,1.9,35.2s-35.4,1.4-46.8-18.7C23.35,130.8,21.05,115,63.15,99.5Z"/></g></g></svg>