<svg xmlns="http://www.w3.org/2000/svg" viewBox="0 0 193.3 100.91"><defs><style>.cls-1{fill:#88bee7;}.cls-2{fill:#8a8b8f;}.cls-3{fill:#b9b9bc;}.cls-4{fill:#6a6b6d;}</style></defs><title>water</title><g id="Layer_2" data-name="Layer 2"><g id="Layer_1-2" data-name="Layer 1"><path class="cls-1" d="M127.8,31.91s-5.7,4.5-17.6,7.4a58.12,58.12,0,0,1-27.5,0c-11.9-2.9-17.6-7.4-17.6-7.4-21.4,11.3-40.4,0-40.4,0v28.3H168.3V31.91C168.2,31.91,149.2,43.21,127.8,31.91Z"/><path class="cls-2" d="M176.6,56.31V27.91c0,.7-5.8,2.8-6.3,3a171.51,171.51,0,0,1-18.6,6.7C112.5,49,68.4,48.11,30.1,33.71a98,98,0,0,1-13.3-5.9v28.4l-10.4,37H187Z"/><rect class="cls-2" y="93.21" width="193.3" height="7.7"/><path class="cls-3" d="M25.2,57.11a236,236,0,0,0,30.3,3.5v28.6H18.7Z"/><rect class="cls-3" x="17.6" y="95.51" width="46.4" height="3.3"/><path class="cls-3" d="M26.9,50.61V39.91s16.5,7.9,41.6,10.4v5.3S46.2,54.91,26.9,50.61Z"/><path class="cls-4" d="M187,93.21H168l-10.4-37V35.71c4.3-1.4,8.6-3,12.7-4.8.5-.2,6.3-2.4,6.3-3v28.4Z"/><rect class="cls-4" x="173.5" y="93.21" width="19.8" height="7.7"/><path class="cls-1" d="M85.3,24.81s-5.1-36.1-28-21.2c-15.7,10.2,5.5,7.1,15.8,11.8A37.35,37.35,0,0,1,85.3,24.81Z"/><path class="cls-1" d="M105.4,24.81s5.1-36.1,28-21.2c15.7,10.2-5.5,7.1-15.8,11.8A38.74,38.74,0,0,0,105.4,24.81Z"/></g></g></svg>